<?xml version="1.0" encoding="utf-8"?>
<!-- Generator: Adobe Illustrator 16.2.1, SVG Export Plug-In . SVG Version: 6.00 Build 0)  -->
<!DOCTYPE svg PUBLIC "-//W3C//DTD SVG 1.1//EN" "http://www.w3.org/Graphics/SVG/1.1/DTD/svg11.dtd">
<svg version="1.1" id="svg1" xmlns="http://www.w3.org/2000/svg" xmlns:xlink="http://www.w3.org/1999/xlink" x="0px" y="0px"
	 width="852px" height="367px" viewBox="0 0 852 367" enable-background="new 0 0 852 367" xml:space="preserve">
<g id="figure1">
	<g id="patch1">
		<path fill="#FFFFFF" stroke="#FFFFFF" stroke-linecap="square" stroke-linejoin="round" d="M0,367.2h852.3V0H0V367.2"/>
	</g>
	<g id="axes1">
		<g id="patch2">
			<path fill="#FFFFFF" d="M109.778,330.48h293.76V36.72h-293.76V330.48"/>
		</g>
		<g id="line2d1">
			<g>
				<defs>
					<rect id="SVGID_1_" x="109.778" y="36.72" width="293.76" height="293.761"/>
				</defs>
				<clipPath id="SVGID_2_">
					<use xlink:href="#SVGID_1_"  overflow="visible"/>
				</clipPath>
				<path clip-path="url(#SVGID_2_)" fill="none" stroke="#A52A2A" stroke-width="2" d="M390.186,183.6l-0.111-5.452l-0.333-5.442
					l-0.556-5.425l-0.776-5.397l-0.997-5.361l-1.215-5.316l-1.431-5.262l-1.644-5.199l-1.855-5.127l-2.063-5.048l-2.267-4.959
					l-2.468-4.863l-2.664-4.758l-2.856-4.645l-3.044-4.524l-3.226-4.396l-3.402-4.261l-3.574-4.119l-3.739-3.969l-3.898-3.813
					l-4.051-3.651l-4.196-3.482l-4.335-3.308l-4.466-3.128l-4.59-2.944l-4.707-2.753l-4.815-2.559l-4.916-2.36l-5.008-2.158
					l-5.092-1.952l-5.167-1.742l-5.234-1.529l-5.292-1.314l-5.341-1.098l-5.382-0.878l-5.413-0.658l-5.436-0.437l-5.449-0.214
					l-2.517-0.024l0,0"/>
			</g>
		</g>
		<g id="line2d2">
			<g>
				<defs>
					<rect id="SVGID_3_" x="109.778" y="36.72" width="293.76" height="293.761"/>
				</defs>
				<clipPath id="SVGID_4_">
					<use xlink:href="#SVGID_3_"  overflow="visible"/>
				</clipPath>
				<path clip-path="url(#SVGID_4_)" fill="none" stroke="#FF0000" stroke-width="2" d="M256.659,50.073l-5.452,0.111l-5.442,0.334
					l-5.425,0.556l-5.397,0.777l-5.361,0.997l-5.316,1.214l-5.262,1.431l-5.199,1.645l-5.127,1.855l-5.048,2.063l-4.959,2.268
					l-4.863,2.468l-4.758,2.665l-4.645,2.856l-4.524,3.043l-4.396,3.226l-4.261,3.403l-4.119,3.574l-3.969,3.739l-3.813,3.898
					l-3.651,4.05l-3.482,4.196l-3.308,4.334l-3.128,4.466l-2.944,4.59l-2.753,4.707l-2.559,4.815l-2.36,4.916l-2.158,5.008
					l-1.951,5.092l-1.742,5.167l-1.529,5.234l-1.315,5.292l-1.097,5.342l-0.878,5.381l-0.658,5.414l-0.437,5.435l-0.214,5.449
					l-0.023,2.517l0,0"/>
			</g>
		</g>
		<g id="line2d3">
			<g>
				<defs>
					<rect id="SVGID_5_" x="109.778" y="36.72" width="293.76" height="293.761"/>
				</defs>
				<clipPath id="SVGID_6_">
					<use xlink:href="#SVGID_5_"  overflow="visible"/>
				</clipPath>
				<path clip-path="url(#SVGID_6_)" fill="none" stroke="#FFA500" stroke-width="2" d="M123.131,183.6l0.111,5.452l0.334,5.442
					l0.556,5.425l0.777,5.397l0.997,5.361l1.214,5.316l1.431,5.262l1.645,5.199l1.855,5.127l2.063,5.048l2.268,4.96l2.468,4.861
					l2.665,4.758l2.856,4.646l3.043,4.524l3.226,4.396l3.403,4.261l3.574,4.118l3.739,3.97l3.898,3.813l4.05,3.65l4.196,3.482
					l4.334,3.309l4.466,3.129l4.59,2.943l4.707,2.753l4.815,2.56l4.916,2.36l5.008,2.157l5.092,1.952l5.167,1.742l5.234,1.529
					l5.292,1.314l5.341,1.098l5.382,0.878l5.413,0.658l5.436,0.437l5.449,0.214l2.517,0.023l0,0"/>
			</g>
		</g>
		<g id="line2d4">
			<g>
				<defs>
					<rect id="SVGID_7_" x="109.778" y="36.72" width="293.76" height="293.761"/>
				</defs>
				<clipPath id="SVGID_8_">
					<use xlink:href="#SVGID_7_"  overflow="visible"/>
				</clipPath>
				<path clip-path="url(#SVGID_8_)" fill="none" stroke="#FFFF00" stroke-width="2" d="M256.659,317.127l5.452-0.111l5.443-0.334
					l5.424-0.556l5.397-0.776l5.361-0.997l5.316-1.214l5.262-1.431l5.199-1.645l5.128-1.855l5.047-2.062l4.959-2.268l4.862-2.468
					l4.758-2.664l4.645-2.857l4.524-3.043l4.396-3.227l4.261-3.402l4.119-3.574l3.969-3.738l3.813-3.898l3.651-4.051l3.482-4.195
					l3.309-4.336l3.128-4.466l2.943-4.591l2.753-4.706l2.56-4.815l2.36-4.915l2.158-5.009l1.952-5.092l1.742-5.166l1.53-5.234
					l1.314-5.293l1.097-5.341l0.878-5.382l0.658-5.413l0.437-5.436l0.214-5.448l0.023-2.517l0,0"/>
			</g>
		</g>
		<g id="matplotlib.axis1">
			<g id="xtick1">
				<g id="line2d5">
					<g>
						<defs>
							<rect id="SVGID_9_" x="109.778" y="36.72" width="293.76" height="293.761"/>
						</defs>
						<clipPath id="SVGID_10_">
							<use xlink:href="#SVGID_9_"  overflow="visible"/>
						</clipPath>
						
							<path clip-path="url(#SVGID_10_)" fill="none" stroke="#000000" stroke-width="0.5" stroke-linejoin="round" stroke-dasharray="1,3" d="
							M123.131,330.48V36.72"/>
					</g>
				</g>
				<g id="line2d6">
					<g>
						<g>
							<path id="m30e32995789d870ad79a2e54c91cf9c6" fill="none" stroke="#000000" stroke-width="0.5" stroke-linejoin="round" d="
								M123.131,330.48v-4"/>
						</g>
					</g>
				</g>
				<g id="line2d7">
					<g>
						<g>
							<path id="m9281cae24120827b11d5ea8a7ad3e96b" fill="none" stroke="#000000" stroke-width="0.5" stroke-linejoin="round" d="
								M123.131,36.72v4"/>
						</g>
					</g>
				</g>
				<g id="text1">
					<g transform="translate(109.584375,343.386250)scale(0.120000)">
						<g>
							<path id="c_6a8d56c819c37117ab4cf023bec22a5a" d="M10.593-35.502h62.594v8.301H10.593V-35.502z"/>
						</g>
						<g>
							<path id="c_42baa63129a918535c52adb20d687ea7" d="M96.196-8.297h16.109V-63.92l-17.533,3.516v-8.984l17.44-3.516h9.859
								v64.608h16.109v8.301H96.196V-8.297z"/>
						</g>
						<g>
							<path id="c_ed3e21196fb739f392806f09ca0594ef" d="M158.098-12.406h10.315v12.41h-10.315V-12.406z"/>
						</g>
						<g>
							<path id="c_7a2040fe3b94fcd41d0a72c84e93b115" d="M210.979-66.402c-5.07,0-8.891,2.498-11.45,7.495
								c-2.555,4.989-3.829,12.5-3.829,22.534c0,9.985,1.274,17.48,3.829,22.485c2.559,4.997,6.38,7.495,11.45,7.495
								c5.115,0,8.948-2.498,11.503-7.495c2.559-5.005,3.841-12.5,3.841-22.485c0-10.034-1.282-17.546-3.841-22.534
								C219.927-63.904,216.094-66.402,210.979-66.402 M210.979-74.215c8.179,0,14.425,3.231,18.738,9.701
								c4.309,6.453,6.466,15.837,6.466,28.141c0,12.272-2.157,21.639-6.466,28.109c-4.313,6.453-10.559,9.684-18.738,9.684
								c-8.167,0-14.404-3.231-18.717-9.684c-4.313-6.47-6.47-15.837-6.47-28.109c0-12.305,2.157-21.688,6.47-28.141
								C196.575-70.984,202.813-74.215,210.979-74.215"/>
						</g>
					</g>
				</g>
			</g>
			<g id="xtick2">
				<g id="line2d8">
					<g>
						<defs>
							<rect id="SVGID_11_" x="109.778" y="36.72" width="293.76" height="293.761"/>
						</defs>
						<clipPath id="SVGID_12_">
							<use xlink:href="#SVGID_11_"  overflow="visible"/>
						</clipPath>
						
							<path clip-path="url(#SVGID_12_)" fill="none" stroke="#000000" stroke-width="0.5" stroke-linejoin="round" stroke-dasharray="1,3" d="
							M189.895,330.48V36.72"/>
					</g>
				</g>
				<g id="line2d9">
					<g>
						<g>
							
								<path id="m30e32995789d870ad79a2e54c91cf9c6_1_" fill="none" stroke="#000000" stroke-width="0.5" stroke-linejoin="round" d="
								M189.895,330.48v-4"/>
						</g>
					</g>
				</g>
				<g id="line2d10">
					<g>
						<g>
							
								<path id="m9281cae24120827b11d5ea8a7ad3e96b_1_" fill="none" stroke="#000000" stroke-width="0.5" stroke-linejoin="round" d="
								M189.895,36.72v4"/>
						</g>
					</g>
				</g>
				<g id="text2">
					<g transform="translate(176.473011,343.386250)scale(0.120000)">
						<g>
							<path id="c_6a8d56c819c37117ab4cf023bec22a5a_1_" d="M10.593-35.502h62.594v8.301H10.593V-35.502z"/>
						</g>
						<g>
							<path id="c_7a2040fe3b94fcd41d0a72c84e93b115_1_" d="M115.569-66.402c-5.07,0-8.891,2.498-11.45,7.495
								c-2.555,4.989-3.829,12.5-3.829,22.534c0,9.985,1.274,17.48,3.829,22.485c2.559,4.997,6.38,7.495,11.45,7.495
								c5.115,0,8.948-2.498,11.503-7.495c2.559-5.005,3.841-12.5,3.841-22.485c0-10.034-1.282-17.546-3.841-22.534
								C124.517-63.904,120.684-66.402,115.569-66.402 M115.569-74.215c8.179,0,14.425,3.231,18.734,9.701
								c4.313,6.453,6.47,15.837,6.47,28.141c0,12.272-2.157,21.639-6.47,28.109c-4.309,6.453-10.555,9.684-18.734,9.684
								c-8.167,0-14.404-3.231-18.717-9.684c-4.313-6.47-6.47-15.837-6.47-28.109c0-12.305,2.156-21.688,6.47-28.141
								C101.165-70.984,107.403-74.215,115.569-74.215"/>
						</g>
						<g>
							<path id="c_ed3e21196fb739f392806f09ca0594ef_1_" d="M158.099-12.406h10.315v12.41h-10.315V-12.406z"/>
						</g>
						<g>
							<path id="c_1260a2df50f305f3db244e29828f968e" d="M189.996-72.905h38.721v8.309h-29.688v17.863
								c1.424-0.488,2.852-0.854,4.281-1.099c1.436-0.236,2.873-0.358,4.313-0.358c8.134,0,14.575,2.23,19.328,6.689
								c4.761,4.46,7.141,10.498,7.141,18.107c0,7.845-2.445,13.948-7.328,18.302c-4.887,4.338-11.772,6.51-20.658,6.51
								c-3.06,0-6.181-0.26-9.359-0.781c-3.166-0.521-6.441-1.302-9.827-2.344v-9.92c2.926,1.595,5.953,2.783,9.078,3.564
								s6.425,1.172,9.904,1.172c5.636,0,10.095-1.481,13.375-4.435c3.292-2.962,4.94-6.982,4.94-12.069
								c0-5.07-1.648-9.09-4.94-12.044c-3.28-2.97-7.739-4.452-13.375-4.452c-2.633,0-5.265,0.293-7.89,0.871
								c-2.612,0.586-5.286,1.497-8.016,2.734V-72.905z"/>
						</g>
					</g>
				</g>
			</g>
			<g id="xtick3">
				<g id="line2d11">
					<g>
						<defs>
							<rect id="SVGID_13_" x="109.778" y="36.72" width="293.76" height="293.761"/>
						</defs>
						<clipPath id="SVGID_14_">
							<use xlink:href="#SVGID_13_"  overflow="visible"/>
						</clipPath>
						
							<path clip-path="url(#SVGID_14_)" fill="none" stroke="#000000" stroke-width="0.5" stroke-linejoin="round" stroke-dasharray="1,3" d="
							M256.659,330.48V36.72"/>
					</g>
				</g>
				<g id="line2d12">
					<g>
						<g>
							
								<path id="m30e32995789d870ad79a2e54c91cf9c6_2_" fill="none" stroke="#000000" stroke-width="0.5" stroke-linejoin="round" d="
								M256.659,330.48v-4"/>
						</g>
					</g>
				</g>
				<g id="line2d13">
					<g>
						<g>
							
								<path id="m9281cae24120827b11d5ea8a7ad3e96b_2_" fill="none" stroke="#000000" stroke-width="0.5" stroke-linejoin="round" d="
								M256.659,36.72v4"/>
						</g>
					</g>
				</g>
				<g id="text3">
					<g transform="translate(247.908523,343.386250)scale(0.120000)">
						<g>
							<path id="c_7a2040fe3b94fcd41d0a72c84e93b115_2_" d="M31.781-66.402c-5.074,0-8.891,2.498-11.454,7.495
								c-2.551,4.989-3.825,12.5-3.825,22.534c0,9.985,1.274,17.48,3.825,22.485c2.563,4.997,6.38,7.495,11.454,7.495
								c5.115,0,8.948-2.498,11.499-7.495c2.563-5.005,3.845-12.5,3.845-22.485c0-10.034-1.282-17.546-3.845-22.534
								C40.728-63.904,36.895-66.402,31.781-66.402 M31.781-74.215c8.179,0,14.425,3.231,18.734,9.701
								c4.313,6.453,6.47,15.837,6.47,28.141c0,12.272-2.157,21.639-6.47,28.109C46.205-1.811,39.959,1.42,31.781,1.42
								c-8.167,0-14.404-3.231-18.717-9.684c-4.313-6.47-6.47-15.837-6.47-28.109c0-12.305,2.157-21.688,6.47-28.141
								C17.376-70.984,23.614-74.215,31.781-74.215"/>
						</g>
						<g>
							<path id="c_ed3e21196fb739f392806f09ca0594ef_2_" d="M74.31-12.406h10.315v12.41H74.31V-12.406z"/>
						</g>
						<g>
							<path id="c_7a2040fe3b94fcd41d0a72c84e93b115_3_" d="M127.191-66.402c-5.074,0-8.891,2.498-11.454,7.495
								c-2.551,4.989-3.825,12.5-3.825,22.534c0,9.985,1.274,17.48,3.825,22.485c2.563,4.997,6.38,7.495,11.454,7.495
								c5.115,0,8.948-2.498,11.499-7.495c2.563-5.005,3.845-12.5,3.845-22.485c0-10.034-1.282-17.546-3.845-22.534
								C136.138-63.904,132.305-66.402,127.191-66.402 M127.191-74.215c8.179,0,14.425,3.231,18.734,9.701
								c4.313,6.453,6.47,15.837,6.47,28.141c0,12.272-2.157,21.639-6.47,28.109c-4.309,6.453-10.555,9.684-18.734,9.684
								c-8.167,0-14.404-3.231-18.717-9.684c-4.313-6.47-6.47-15.837-6.47-28.109c0-12.305,2.157-21.688,6.47-28.141
								C112.786-70.984,119.024-74.215,127.191-74.215"/>
						</g>
					</g>
				</g>
			</g>
			<g id="xtick4">
				<g id="line2d14">
					<g>
						<defs>
							<rect id="SVGID_15_" x="109.778" y="36.72" width="293.76" height="293.761"/>
						</defs>
						<clipPath id="SVGID_16_">
							<use xlink:href="#SVGID_15_"  overflow="visible"/>
						</clipPath>
						
							<path clip-path="url(#SVGID_16_)" fill="none" stroke="#000000" stroke-width="0.5" stroke-linejoin="round" stroke-dasharray="1,3" d="
							M323.422,330.48V36.72"/>
					</g>
				</g>
				<g id="line2d15">
					<g>
						<g>
							
								<path id="m30e32995789d870ad79a2e54c91cf9c6_3_" fill="none" stroke="#000000" stroke-width="0.5" stroke-linejoin="round" d="
								M323.422,330.48v-4"/>
						</g>
					</g>
				</g>
				<g id="line2d16">
					<g>
						<g>
							
								<path id="m9281cae24120827b11d5ea8a7ad3e96b_3_" fill="none" stroke="#000000" stroke-width="0.5" stroke-linejoin="round" d="
								M323.422,36.72v4"/>
						</g>
					</g>
				</g>
				<g id="text4">
					<g transform="translate(314.797159,343.386250)scale(0.120000)">
						<g>
							<path id="c_7a2040fe3b94fcd41d0a72c84e93b115_4_" d="M31.781-66.402c-5.074,0-8.891,2.498-11.454,7.495
								c-2.551,4.989-3.825,12.5-3.825,22.534c0,9.985,1.273,17.48,3.825,22.485c2.563,4.997,6.38,7.495,11.454,7.495
								c5.115,0,8.948-2.498,11.499-7.495c2.563-5.005,3.845-12.5,3.845-22.485c0-10.034-1.282-17.546-3.845-22.534
								C40.729-63.904,36.896-66.402,31.781-66.402 M31.781-74.215c8.179,0,14.421,3.231,18.734,9.701
								c4.313,6.453,6.47,15.837,6.47,28.141c0,12.272-2.156,21.639-6.47,28.109C46.202-1.811,39.96,1.42,31.781,1.42
								c-8.167,0-14.404-3.231-18.718-9.684c-4.313-6.47-6.47-15.837-6.47-28.109c0-12.305,2.157-21.688,6.47-28.141
								C17.377-70.984,23.615-74.215,31.781-74.215"/>
						</g>
						<g>
							<path id="c_ed3e21196fb739f392806f09ca0594ef_3_" d="M74.31-12.406h10.315v12.41H74.31V-12.406z"/>
						</g>
						<g>
							<path id="c_1260a2df50f305f3db244e29828f968e_1_" d="M106.207-72.905h38.721v8.309H115.24v17.863
								c1.424-0.488,2.852-0.854,4.281-1.099c1.437-0.236,2.873-0.358,4.313-0.358c8.134,0,14.575,2.23,19.328,6.689
								c4.761,4.46,7.137,10.498,7.137,18.107c0,7.845-2.441,13.948-7.324,18.302c-4.887,4.338-11.772,6.51-20.658,6.51
								c-3.064,0-6.181-0.26-9.359-0.781c-3.166-0.521-6.441-1.302-9.827-2.344v-9.92c2.926,1.595,5.953,2.783,9.078,3.564
								s6.425,1.172,9.904,1.172c5.635,0,10.095-1.481,13.375-4.435c3.292-2.962,4.94-6.982,4.94-12.069
								c0-5.07-1.648-9.09-4.94-12.044c-3.28-2.97-7.739-4.452-13.375-4.452c-2.637,0-5.265,0.293-7.89,0.871
								c-2.616,0.586-5.286,1.497-8.016,2.734V-72.905z"/>
						</g>
					</g>
				</g>
			</g>
			<g id="xtick5">
				<g id="line2d17">
					<g>
						<defs>
							<rect id="SVGID_17_" x="109.778" y="36.72" width="293.76" height="293.761"/>
						</defs>
						<clipPath id="SVGID_18_">
							<use xlink:href="#SVGID_17_"  overflow="visible"/>
						</clipPath>
						
							<path clip-path="url(#SVGID_18_)" fill="none" stroke="#000000" stroke-width="0.5" stroke-linejoin="round" stroke-dasharray="1,3" d="
							M390.186,330.48V36.72"/>
					</g>
				</g>
				<g id="line2d18">
					<g>
						<g>
							
								<path id="m30e32995789d870ad79a2e54c91cf9c6_4_" fill="none" stroke="#000000" stroke-width="0.5" stroke-linejoin="round" d="
								M390.186,330.48v-4"/>
						</g>
					</g>
				</g>
				<g id="line2d19">
					<g>
						<g>
							
								<path id="m9281cae24120827b11d5ea8a7ad3e96b_4_" fill="none" stroke="#000000" stroke-width="0.5" stroke-linejoin="round" d="
								M390.186,36.72v4"/>
						</g>
					</g>
				</g>
				<g id="text5">
					<g transform="translate(381.693608,343.386250)scale(0.120000)">
						<g>
							<path id="c_42baa63129a918535c52adb20d687ea7_1_" d="M12.405-8.297h16.109V-63.92l-17.529,3.516v-8.984l17.436-3.516h9.859
								v64.608h16.113v8.301H12.405V-8.297z"/>
						</g>
						<g>
							<path id="c_ed3e21196fb739f392806f09ca0594ef_4_" d="M74.311-12.406h10.311v12.41H74.311V-12.406z"/>
						</g>
						<g>
							<path id="c_7a2040fe3b94fcd41d0a72c84e93b115_5_" d="M127.196-66.402c-5.078,0-8.895,2.498-11.458,7.495
								c-2.551,4.989-3.825,12.5-3.825,22.534c0,9.985,1.273,17.48,3.825,22.485c2.563,4.997,6.38,7.495,11.458,7.495
								c5.111,0,8.944-2.498,11.499-7.495c2.563-5.005,3.841-12.5,3.841-22.485c0-10.034-1.278-17.546-3.841-22.534
								C136.139-63.904,132.306-66.402,127.196-66.402 M127.196-74.215c8.17,0,14.42,3.231,18.734,9.701
								c4.313,6.453,6.462,15.837,6.462,28.141c0,12.272-2.148,21.639-6.462,28.109c-4.313,6.453-10.563,9.684-18.734,9.684
								c-8.171,0-14.408-3.231-18.722-9.684c-4.313-6.47-6.47-15.837-6.47-28.109c0-12.305,2.157-21.688,6.47-28.141
								C112.787-70.984,119.025-74.215,127.196-74.215"/>
						</g>
					</g>
				</g>
			</g>
			<g id="text6">
				<g id="mathtext1">
					<g transform="translate(253.158523,355.558125)">
						<g transform="translate(0.000000,-1.703125)scale(0.120000)">
							<path id="c_277960698c3e9ebfcde4d2161536ce57" d="M0.938-2.048c0.141,0.109,0.34,0.163,0.598,0.163
								c0.25,0,0.47-0.12,0.662-0.359c0.191-0.24,0.322-0.503,0.392-0.788l0.545-2.128c0.086-0.386,0.129-0.65,0.129-0.791
								c0-0.199-0.056-0.373-0.167-0.521S2.831-6.696,2.631-6.696c-0.254,0-0.492,0.079-0.714,0.237
								c-0.223,0.159-0.41,0.36-0.562,0.604c-0.152,0.243-0.26,0.49-0.322,0.74C1.016-5.062,0.985-5.037,0.938-5.037H0.791
								c-0.062,0-0.094-0.038-0.094-0.112v-0.034c0.078-0.298,0.21-0.588,0.397-0.87c0.188-0.283,0.417-0.513,0.688-0.688
								c0.273-0.176,0.563-0.264,0.872-0.264c0.292,0,0.557,0.078,0.793,0.234c0.236,0.156,0.403,0.368,0.501,0.638
								c0.137-0.245,0.312-0.452,0.525-0.619C4.686-6.921,4.92-7.005,5.173-7.005c0.172,0,0.348,0.03,0.527,0.092
								c0.18,0.06,0.327,0.152,0.441,0.277s0.17,0.281,0.17,0.469c0,0.202-0.065,0.378-0.197,0.525
								c-0.131,0.146-0.298,0.219-0.5,0.219c-0.129,0-0.236-0.041-0.323-0.123C5.205-5.629,5.162-5.733,5.162-5.858
								c0-0.168,0.058-0.314,0.172-0.44c0.117-0.128,0.254-0.203,0.415-0.228c-0.145-0.113-0.344-0.17-0.598-0.17
								c-0.257,0-0.481,0.119-0.671,0.357C4.291-6.099,4.157-5.834,4.078-5.542L3.551-3.42C3.465-3.099,3.422-2.835,3.422-2.629
								c0,0.204,0.057,0.379,0.172,0.525c0.115,0.146,0.269,0.219,0.461,0.219c0.375,0,0.709-0.165,1.003-0.495
								c0.295-0.33,0.489-0.692,0.583-1.087c0.016-0.047,0.047-0.069,0.094-0.069h0.148c0.031,0,0.056,0.011,0.075,0.031
								c0.02,0.021,0.03,0.046,0.03,0.073c0,0.008-0.004,0.02-0.011,0.036C5.864-2.92,5.625-2.497,5.261-2.125
								c-0.363,0.371-0.772,0.557-1.23,0.557c-0.292,0-0.557-0.079-0.793-0.236C3.002-1.963,2.834-2.177,2.736-2.448
								c-0.125,0.235-0.298,0.44-0.519,0.617c-0.22,0.175-0.455,0.263-0.705,0.263c-0.171,0-0.348-0.031-0.531-0.092
								C0.8-1.72,0.652-1.812,0.538-1.937C0.426-2.062,0.369-2.22,0.369-2.412c0-0.188,0.065-0.358,0.195-0.512
								C0.696-3.079,0.86-3.156,1.056-3.156c0.132,0,0.244,0.039,0.333,0.119s0.135,0.185,0.135,0.313
								c0,0.169-0.057,0.315-0.169,0.44C1.244-2.158,1.105-2.08,0.938-2.048"/>
						</g>
					</g>
				</g>
			</g>
		</g>
		<g id="matplotlib.axis2">
			<g id="ytick1">
				<g id="line2d20">
					<g>
						<defs>
							<rect id="SVGID_19_" x="109.778" y="36.72" width="293.76" height="293.761"/>
						</defs>
						<clipPath id="SVGID_20_">
							<use xlink:href="#SVGID_19_"  overflow="visible"/>
						</clipPath>
						
							<path clip-path="url(#SVGID_20_)" fill="none" stroke="#000000" stroke-width="0.5" stroke-linejoin="round" stroke-dasharray="1,3" d="
							M109.778,317.127h293.76"/>
					</g>
				</g>
				<g id="line2d21">
					<g>
						<g>
							<path id="m3400efa6b1638b3fea9e19e898273957" fill="none" stroke="#000000" stroke-width="0.5" stroke-linejoin="round" d="
								M109.778,317.127h4"/>
						</g>
					</g>
				</g>
				<g id="line2d22">
					<g>
						<g>
							<path id="m20b58b2501143cb5e0a5e8f1ef6f1643" fill="none" stroke="#000000" stroke-width="0.5" stroke-linejoin="round" d="
								M403.538,317.127h-4"/>
						</g>
					</g>
				</g>
				<g id="text7">
					<g transform="translate(78.684773,321.494460)scale(0.120000)">
						<g>
							<path id="c_6a8d56c819c37117ab4cf023bec22a5a_2_" d="M10.595-35.501h62.594v8.301H10.595V-35.501z"/>
						</g>
						<g>
							<path id="c_42baa63129a918535c52adb20d687ea7_2_" d="M96.194-8.295h16.109v-55.623l-17.529,3.516v-8.984l17.436-3.516h9.859
								v64.608h16.109v8.293H96.194V-8.295z"/>
						</g>
						<g>
							<path id="c_ed3e21196fb739f392806f09ca0594ef_5_" d="M158.1-12.405h10.311v12.402H158.1V-12.405z"/>
						</g>
						<g>
							<path id="c_7a2040fe3b94fcd41d0a72c84e93b115_6_" d="M210.981-66.409c-5.074,0-8.891,2.506-11.454,7.503
								c-2.551,4.989-3.829,12.5-3.829,22.534c0,9.985,1.278,17.48,3.829,22.477c2.563,5.005,6.38,7.503,11.454,7.503
								c5.115,0,8.948-2.498,11.499-7.503c2.563-4.997,3.845-12.492,3.845-22.477c0-10.034-1.282-17.546-3.845-22.534
								C219.929-63.902,216.096-66.409,210.981-66.409 M210.981-74.221c8.179,0,14.421,3.239,18.734,9.709
								c4.313,6.453,6.47,15.837,6.47,28.141c0,12.264-2.157,21.639-6.47,28.109c-4.313,6.453-10.555,9.684-18.734,9.684
								c-8.167,0-14.408-3.231-18.717-9.684c-4.313-6.47-6.47-15.845-6.47-28.109c0-12.305,2.157-21.688,6.47-28.141
								C196.573-70.982,202.815-74.221,210.981-74.221"/>
						</g>
					</g>
				</g>
			</g>
			<g id="ytick2">
				<g id="line2d23">
					<g>
						<defs>
							<rect id="SVGID_21_" x="109.778" y="36.72" width="293.76" height="293.761"/>
						</defs>
						<clipPath id="SVGID_22_">
							<use xlink:href="#SVGID_21_"  overflow="visible"/>
						</clipPath>
						
							<path clip-path="url(#SVGID_22_)" fill="none" stroke="#000000" stroke-width="0.5" stroke-linejoin="round" stroke-dasharray="1,3" d="
							M109.778,250.363h293.76"/>
					</g>
				</g>
				<g id="line2d24">
					<g>
						<g>
							
								<path id="m3400efa6b1638b3fea9e19e898273957_1_" fill="none" stroke="#000000" stroke-width="0.5" stroke-linejoin="round" d="
								M109.778,250.363h4"/>
						</g>
					</g>
				</g>
				<g id="line2d25">
					<g>
						<g>
							
								<path id="m20b58b2501143cb5e0a5e8f1ef6f1643_1_" fill="none" stroke="#000000" stroke-width="0.5" stroke-linejoin="round" d="
								M403.538,250.363h-4"/>
						</g>
					</g>
				</g>
				<g id="text8">
					<g transform="translate(78.934773,254.730824)scale(0.120000)">
						<g>
							<path id="c_6a8d56c819c37117ab4cf023bec22a5a_3_" d="M10.595-35.501h62.594v8.301H10.595V-35.501z"/>
						</g>
						<g>
							<path id="c_7a2040fe3b94fcd41d0a72c84e93b115_7_" d="M115.571-66.409c-5.074,0-8.891,2.506-11.454,7.503
								c-2.551,4.989-3.829,12.5-3.829,22.526c0,9.994,1.278,17.489,3.829,22.494c2.563,4.997,6.38,7.495,11.454,7.495
								c5.115,0,8.948-2.498,11.499-7.495c2.563-5.005,3.845-12.5,3.845-22.494c0-10.026-1.282-17.537-3.845-22.526
								C124.519-63.903,120.686-66.409,115.571-66.409 M115.571-74.222c8.179,0,14.421,3.239,18.734,9.701
								c4.313,6.462,6.47,15.845,6.47,28.141c0,12.272-2.157,21.647-6.47,28.109c-4.313,6.462-10.555,9.692-18.734,9.692
								c-8.166,0-14.408-3.231-18.717-9.692c-4.313-6.462-6.47-15.837-6.47-28.109c0-12.297,2.157-21.68,6.47-28.141
								C101.163-70.983,107.404-74.222,115.571-74.222"/>
						</g>
						<g>
							<path id="c_ed3e21196fb739f392806f09ca0594ef_6_" d="M158.1-12.405h10.311v12.402H158.1V-12.405z"/>
						</g>
						<g>
							<path id="c_1260a2df50f305f3db244e29828f968e_2_" d="M189.997-72.903h38.717v8.309h-29.688v17.863
								c1.428-0.488,2.856-0.863,4.285-1.099c1.436-0.236,2.873-0.358,4.309-0.358c8.138,0,14.579,2.23,19.328,6.689
								c4.761,4.451,7.141,10.49,7.141,18.107c0,7.845-2.441,13.949-7.328,18.294c-4.883,4.346-11.768,6.519-20.654,6.519
								c-3.064,0-6.181-0.26-9.359-0.781c-3.17-0.521-6.445-1.302-9.831-2.344v-9.92c2.93,1.595,5.953,2.783,9.078,3.564
								s6.429,1.172,9.908,1.172c5.636,0,10.095-1.481,13.375-4.443c3.292-2.954,4.936-6.974,4.936-12.061
								c0-5.07-1.644-9.082-4.936-12.044c-3.28-2.97-7.739-4.46-13.375-4.46c-2.637,0-5.265,0.293-7.89,0.879
								c-2.616,0.586-5.286,1.497-8.016,2.734V-72.903z"/>
						</g>
					</g>
				</g>
			</g>
			<g id="ytick3">
				<g id="line2d26">
					<g>
						<defs>
							<rect id="SVGID_23_" x="109.778" y="36.72" width="293.76" height="293.761"/>
						</defs>
						<clipPath id="SVGID_24_">
							<use xlink:href="#SVGID_23_"  overflow="visible"/>
						</clipPath>
						
							<path clip-path="url(#SVGID_24_)" fill="none" stroke="#000000" stroke-width="0.5" stroke-linejoin="round" stroke-dasharray="1,3" d="
							M109.778,183.6h293.76"/>
					</g>
				</g>
				<g id="line2d27">
					<g>
						<g>
							
								<path id="m3400efa6b1638b3fea9e19e898273957_2_" fill="none" stroke="#000000" stroke-width="0.5" stroke-linejoin="round" d="
								M109.778,183.6h4"/>
						</g>
					</g>
				</g>
				<g id="line2d28">
					<g>
						<g>
							
								<path id="m20b58b2501143cb5e0a5e8f1ef6f1643_2_" fill="none" stroke="#000000" stroke-width="0.5" stroke-linejoin="round" d="
								M403.538,183.6h-4"/>
						</g>
					</g>
				</g>
				<g id="text9">
					<g transform="translate(88.278523,187.967187)scale(0.120000)">
						<g>
							<path id="c_7a2040fe3b94fcd41d0a72c84e93b115_8_" d="M31.782-66.406c-5.074,0-8.891,2.498-11.454,7.499
								c-2.551,4.989-3.829,12.5-3.829,22.53c0,9.99,1.278,17.485,3.829,22.49c2.563,4.997,6.38,7.495,11.454,7.495
								c5.115,0,8.948-2.499,11.499-7.495c2.563-5.005,3.845-12.5,3.845-22.49c0-10.03-1.282-17.542-3.845-22.53
								C40.73-63.907,36.897-66.406,31.782-66.406 M31.782-74.218c8.179,0,14.421,3.235,18.734,9.7
								c4.313,6.462,6.47,15.841,6.47,28.141c0,12.268-2.157,21.643-6.47,28.105C46.202-1.81,39.961,1.421,31.782,1.421
								c-8.167,0-14.408-3.231-18.717-9.692c-4.313-6.462-6.47-15.837-6.47-28.105c0-12.301,2.157-21.68,6.47-28.141
								C17.374-70.983,23.615-74.218,31.782-74.218"/>
						</g>
						<g>
							<path id="c_ed3e21196fb739f392806f09ca0594ef_7_" d="M74.311-12.406h10.311v12.402H74.311V-12.406z"/>
						</g>
						<g>
							<path id="c_7a2040fe3b94fcd41d0a72c84e93b115_9_" d="M127.192-66.406c-5.074,0-8.891,2.498-11.454,7.499
								c-2.551,4.989-3.829,12.5-3.829,22.53c0,9.99,1.278,17.485,3.829,22.49c2.563,4.997,6.38,7.495,11.454,7.495
								c5.115,0,8.948-2.499,11.499-7.495c2.563-5.005,3.845-12.5,3.845-22.49c0-10.03-1.282-17.542-3.845-22.53
								C136.14-63.907,132.307-66.406,127.192-66.406 M127.192-74.218c8.179,0,14.421,3.235,18.734,9.7
								c4.313,6.462,6.47,15.841,6.47,28.141c0,12.268-2.157,21.643-6.47,28.105c-4.313,6.461-10.555,9.692-18.734,9.692
								c-8.167,0-14.408-3.231-18.717-9.692c-4.313-6.462-6.47-15.837-6.47-28.105c0-12.301,2.157-21.68,6.47-28.141
								C112.784-70.983,119.026-74.218,127.192-74.218"/>
						</g>
					</g>
				</g>
			</g>
			<g id="ytick4">
				<g id="line2d29">
					<g>
						<defs>
							<rect id="SVGID_25_" x="109.778" y="36.72" width="293.76" height="293.761"/>
						</defs>
						<clipPath id="SVGID_26_">
							<use xlink:href="#SVGID_25_"  overflow="visible"/>
						</clipPath>
						
							<path clip-path="url(#SVGID_26_)" fill="none" stroke="#000000" stroke-width="0.5" stroke-linejoin="round" stroke-dasharray="1,3" d="
							M109.778,116.836h293.76"/>
					</g>
				</g>
				<g id="line2d30">
					<g>
						<g>
							
								<path id="m3400efa6b1638b3fea9e19e898273957_3_" fill="none" stroke="#000000" stroke-width="0.5" stroke-linejoin="round" d="
								M109.778,116.836h4"/>
						</g>
					</g>
				</g>
				<g id="line2d31">
					<g>
						<g>
							
								<path id="m20b58b2501143cb5e0a5e8f1ef6f1643_3_" fill="none" stroke="#000000" stroke-width="0.5" stroke-linejoin="round" d="
								M403.538,116.836h-4"/>
						</g>
					</g>
				</g>
				<g id="text10">
					<g transform="translate(88.528523,121.203551)scale(0.120000)">
						<g>
							<path id="c_7a2040fe3b94fcd41d0a72c84e93b115_10_" d="M31.782-66.406c-5.074,0-8.891,2.499-11.454,7.499
								c-2.551,4.989-3.829,12.5-3.829,22.53c0,9.99,1.278,17.485,3.829,22.485c2.563,5.001,6.38,7.499,11.454,7.499
								c5.115,0,8.948-2.498,11.499-7.499c2.563-5.001,3.845-12.496,3.845-22.485c0-10.03-1.282-17.542-3.845-22.53
								C40.73-63.907,36.897-66.406,31.782-66.406 M31.782-74.219c8.179,0,14.421,3.235,18.734,9.705
								c4.313,6.458,6.47,15.837,6.47,28.137c0,12.272-2.157,21.643-6.47,28.113C46.203-1.806,39.961,1.42,31.782,1.42
								c-8.167,0-14.408-3.227-18.717-9.684c-4.313-6.47-6.47-15.841-6.47-28.113c0-12.301,2.157-21.68,6.47-28.137
								C17.374-70.984,23.615-74.219,31.782-74.219"/>
						</g>
						<g>
							<path id="c_ed3e21196fb739f392806f09ca0594ef_8_" d="M74.311-12.406h10.311V0H74.311V-12.406z"/>
						</g>
						<g>
							<path id="c_1260a2df50f305f3db244e29828f968e_3_" d="M106.208-72.908h38.717v8.313h-29.688v17.859
								c1.428-0.488,2.856-0.85,4.285-1.091c1.436-0.24,2.873-0.362,4.309-0.362c8.138,0,14.579,2.23,19.328,6.689
								c4.761,4.46,7.141,10.494,7.141,18.107c0,7.845-2.441,13.944-7.328,18.298c-4.883,4.346-11.768,6.514-20.654,6.514
								c-3.064,0-6.181-0.26-9.359-0.781c-3.17-0.521-6.445-1.302-9.831-2.344v-9.92c2.93,1.595,5.953,2.779,9.078,3.56
								s6.429,1.172,9.908,1.172c5.636,0,10.095-1.477,13.375-4.435c3.292-2.958,4.936-6.978,4.936-12.064
								c0-5.07-1.644-9.086-4.936-12.044c-3.28-2.97-7.739-4.456-13.375-4.456c-2.637,0-5.265,0.293-7.89,0.875
								c-2.616,0.586-5.286,1.497-8.016,2.734V-72.908z"/>
						</g>
					</g>
				</g>
			</g>
			<g id="ytick5">
				<g id="line2d32">
					<g>
						<defs>
							<rect id="SVGID_27_" x="109.778" y="36.72" width="293.76" height="293.761"/>
						</defs>
						<clipPath id="SVGID_28_">
							<use xlink:href="#SVGID_27_"  overflow="visible"/>
						</clipPath>
						
							<path clip-path="url(#SVGID_28_)" fill="none" stroke="#000000" stroke-width="0.5" stroke-linejoin="round" stroke-dasharray="1,3" d="
							M109.778,50.073h293.76"/>
					</g>
				</g>
				<g id="line2d33">
					<g>
						<g>
							
								<path id="m3400efa6b1638b3fea9e19e898273957_4_" fill="none" stroke="#000000" stroke-width="0.5" stroke-linejoin="round" d="
								M109.778,50.073h4"/>
						</g>
					</g>
				</g>
				<g id="line2d34">
					<g>
						<g>
							
								<path id="m20b58b2501143cb5e0a5e8f1ef6f1643_4_" fill="none" stroke="#000000" stroke-width="0.5" stroke-linejoin="round" d="
								M403.538,50.073h-4"/>
						</g>
					</g>
				</g>
				<g id="text11">
					<g transform="translate(88.794148,54.439915)scale(0.120000)">
						<g>
							<path id="c_42baa63129a918535c52adb20d687ea7_3_" d="M12.405-8.297h16.109V-63.92l-17.529,3.516v-8.984l17.436-3.516h9.859
								v64.608h16.109V0H12.405V-8.297z"/>
						</g>
						<g>
							<path id="c_ed3e21196fb739f392806f09ca0594ef_9_" d="M74.311-12.406h10.311V0H74.311V-12.406z"/>
						</g>
						<g>
							<path id="c_7a2040fe3b94fcd41d0a72c84e93b115_11_" d="M127.192-66.406c-5.074,0-8.891,2.498-11.454,7.499
								c-2.551,4.989-3.829,12.5-3.829,22.534c0,9.985,1.278,17.48,3.829,22.481c2.563,5.001,6.38,7.499,11.454,7.499
								c5.115,0,8.948-2.499,11.499-7.499c2.563-5.001,3.845-12.496,3.845-22.481c0-10.034-1.282-17.546-3.845-22.534
								C136.14-63.908,132.307-66.406,127.192-66.406 M127.192-74.219c8.179,0,14.421,3.235,18.734,9.705
								c4.313,6.458,6.47,15.837,6.47,28.141c0,12.268-2.157,21.639-6.47,28.109c-4.313,6.458-10.555,9.684-18.734,9.684
								c-8.167,0-14.408-3.227-18.717-9.684c-4.313-6.47-6.47-15.841-6.47-28.109c0-12.305,2.157-21.684,6.47-28.141
								C112.784-70.984,119.026-74.219,127.192-74.219"/>
						</g>
					</g>
				</g>
			</g>
			<g id="text12">
				<g id="mathtext2">
					<g transform="translate(73.684773,186.600000)rotate(-90.0)">
						<g transform="translate(0.000000,-3.703125)scale(0.120000)">
							<path id="c_b1ccbd40de9466de4ee940ca0731021f" d="M1.008-1.985c0.168,0.289,0.461,0.433,0.878,0.433
								c0.379,0,0.707-0.133,0.984-0.399c0.278-0.265,0.501-0.586,0.671-0.964c0.17-0.376,0.302-0.762,0.396-1.157
								c-0.355,0.336-0.74,0.504-1.155,0.504c-0.316,0-0.586-0.054-0.808-0.163c-0.223-0.11-0.396-0.273-0.52-0.489
								C1.332-4.438,1.272-4.701,1.272-5.01c0-0.261,0.034-0.529,0.104-0.804c0.071-0.276,0.17-0.583,0.296-0.921
								C1.8-7.074,1.911-7.368,2.004-7.618c0.105-0.292,0.158-0.532,0.158-0.72c0-0.239-0.088-0.358-0.264-0.358
								c-0.316,0-0.578,0.164-0.783,0.49s-0.356,0.69-0.453,1.093c-0.016,0.051-0.049,0.077-0.1,0.077H0.422
								c-0.066,0-0.1-0.038-0.1-0.113v-0.034c0.129-0.478,0.326-0.9,0.59-1.269c0.268-0.369,0.604-0.553,1.01-0.553
								c0.285,0,0.525,0.094,0.723,0.281S2.942-8.298,2.942-8.01c0,0.149-0.033,0.305-0.099,0.469
								c-0.035,0.098-0.115,0.311-0.24,0.639C2.477-6.574,2.381-6.303,2.314-6.088c-0.066,0.215-0.12,0.426-0.163,0.634
								C2.108-5.248,2.086-5.041,2.086-4.834c0,0.265,0.057,0.489,0.17,0.673c0.113,0.184,0.293,0.276,0.54,0.276
								c0.496,0,0.941-0.303,1.335-0.908L5.04-8.49c0.026-0.106,0.088-0.197,0.186-0.272C5.325-8.838,5.43-8.876,5.542-8.876
								c0.098,0,0.183,0.031,0.255,0.094C5.87-8.72,5.906-8.638,5.906-8.537c0,0.046-0.003,0.078-0.011,0.094l-1.19,4.775
								C4.6-3.257,4.406-2.865,4.125-2.49s-0.62,0.677-1.016,0.906C2.712-1.356,2.299-1.241,1.87-1.241
								c-0.207,0-0.413-0.041-0.617-0.122c-0.202-0.08-0.366-0.2-0.491-0.36C0.636-1.883,0.574-2.07,0.574-2.286
								c0-0.219,0.064-0.408,0.193-0.568c0.13-0.16,0.302-0.24,0.516-0.24c0.13,0,0.239,0.04,0.326,0.12s0.132,0.185,0.132,0.313
								c0,0.184-0.069,0.344-0.207,0.48C1.397-2.043,1.239-1.974,1.055-1.974C1.047-1.978,1.04-1.981,1.032-1.984
								C1.024-1.985,1.016-1.985,1.008-1.985"/>
						</g>
					</g>
				</g>
			</g>
		</g>
		<g id="patch3">
			<path fill="none" stroke="#000000" stroke-linecap="square" stroke-linejoin="round" d="M109.778,36.72h293.76"/>
		</g>
		<g id="patch4">
			<path fill="none" stroke="#000000" stroke-linecap="square" stroke-linejoin="round" d="M403.538,330.48V36.72"/>
		</g>
		<g id="patch5">
			<path fill="none" stroke="#000000" stroke-linecap="square" stroke-linejoin="round" d="M109.778,330.48h293.76"/>
		</g>
		<g id="patch6">
			<path fill="none" stroke="#000000" stroke-linecap="square" stroke-linejoin="round" d="M109.778,330.48V36.72"/>
		</g>
		<g id="text13">
			<g transform="translate(366.453580,79.578381)scale(0.260000)">
				<g>
					<path id="c_f7a27dd75e8271b80b605f33cd79f506" d="M24.704-5.171h9.281v5.17H5.516v-5.17h9.281v-62.5H5.516v-5.236h28.469v5.236
						h-9.281V-5.171z"/>
				</g>
			</g>
		</g>
		<g id="text14">
			<g transform="translate(134.324403,79.578381)scale(0.260000)">
				<g>
					<path id="c_f7a27dd75e8271b80b605f33cd79f506_1_" d="M24.703-5.171h9.281v5.17H5.515v-5.17h9.281v-62.5H5.515v-5.236h28.469
						v5.236h-9.281V-5.171z"/>
				</g>
				<g>
					<path id="c_f7a27dd75e8271b80b605f33cd79f506_2_" d="M64.205-5.171h9.281v5.17H45.017v-5.17h9.281v-62.5h-9.281v-5.236h28.469
						v5.236h-9.281V-5.171z"/>
				</g>
			</g>
		</g>
		<g id="text15">
			<g transform="translate(129.191591,306.574744)scale(0.260000)">
				<g>
					<path id="c_f7a27dd75e8271b80b605f33cd79f506_3_" d="M24.703-5.17h9.281v5.172H5.515V-5.17h9.281v-62.5H5.515v-5.236h28.469
						v5.236h-9.281V-5.17z"/>
				</g>
				<g>
					<path id="c_f7a27dd75e8271b80b605f33cd79f506_4_" d="M64.205-5.17h9.281v5.172H45.017V-5.17h9.281v-62.5h-9.281v-5.236h28.469
						v5.236h-9.281V-5.17z"/>
				</g>
				<g>
					<path id="c_f7a27dd75e8271b80b605f33cd79f506_5_" d="M103.707-5.17h9.281v5.172H84.519V-5.17H93.8v-62.5h-9.281v-5.236h28.469
						v5.236h-9.281V-5.17z"/>
				</g>
			</g>
		</g>
		<g id="text16">
			<g transform="translate(356.164517,306.574744)scale(0.260000)">
				<g>
					<path id="c_f7a27dd75e8271b80b605f33cd79f506_6_" d="M24.704-5.17h9.281v5.172H5.516V-5.17h9.281v-62.5H5.516v-5.236h28.469
						v5.236h-9.281V-5.17z"/>
				</g>
				<g>
					<path id="c_77359844e15ba4a53c2a7ed465a2e7f0" d="M56.987-67.67l21.531,55.949l21.484-55.949h-8.203v-5.236h21.391v5.236
						h-7.078L80.081,0.002h-8.406L45.799-67.67h-7.281v-5.236h26.578v5.236H56.987z"/>
				</g>
			</g>
		</g>
		<g id="text17">
			<g id="mathtext3">
				<g transform="translate(221.158523,34.720000)">
					<g transform="translate(0.000000,-3.173063)scale(0.144000)">
						<path id="c_277960698c3e9ebfcde4d2161536ce57_1_" d="M1.125-3.587c0.169,0.131,0.409,0.196,0.718,0.196
							c0.3,0,0.564-0.144,0.794-0.432c0.229-0.288,0.386-0.603,0.47-0.945l0.655-2.554c0.104-0.463,0.155-0.78,0.155-0.95
							c0-0.238-0.067-0.447-0.2-0.625c-0.133-0.178-0.32-0.268-0.56-0.268c-0.305,0-0.59,0.095-0.857,0.286S1.807-8.447,1.625-8.155
							C1.442-7.862,1.313-7.566,1.238-7.266C1.22-7.204,1.182-7.174,1.125-7.174H0.95c-0.075,0-0.112-0.045-0.112-0.135v-0.041
							C0.93-7.706,1.089-8.054,1.314-8.393c0.225-0.341,0.5-0.616,0.826-0.826c0.327-0.211,0.676-0.317,1.046-0.317
							c0.351,0,0.668,0.094,0.952,0.281C4.421-9.067,4.622-8.812,4.739-8.49c0.165-0.294,0.375-0.542,0.63-0.742
							c0.255-0.203,0.535-0.304,0.839-0.304c0.207,0,0.418,0.037,0.632,0.11c0.216,0.072,0.392,0.183,0.529,0.333
							c0.136,0.15,0.205,0.338,0.205,0.562c0,0.243-0.079,0.453-0.236,0.63C7.18-7.725,6.98-7.637,6.737-7.637
							c-0.154,0-0.284-0.05-0.387-0.148C6.246-7.885,6.194-8.009,6.194-8.159c0-0.201,0.069-0.377,0.207-0.529
							c0.14-0.153,0.306-0.244,0.498-0.272C6.724-9.097,6.485-9.165,6.181-9.165c-0.309,0-0.578,0.143-0.806,0.43
							C5.149-8.449,4.989-8.13,4.894-7.779L4.262-5.234c-0.104,0.386-0.155,0.702-0.155,0.95c0,0.244,0.069,0.455,0.207,0.63
							c0.138,0.175,0.323,0.263,0.554,0.263c0.45,0,0.851-0.198,1.204-0.594c0.354-0.396,0.587-0.831,0.7-1.305
							c0.02-0.056,0.057-0.083,0.113-0.083h0.178c0.037,0,0.067,0.013,0.09,0.038C7.175-5.31,7.187-5.281,7.187-5.247
							c0,0.009-0.005,0.023-0.014,0.042C7.036-4.633,6.75-4.125,6.314-3.68C5.879-3.234,5.387-3.011,4.838-3.011
							c-0.351,0-0.668-0.095-0.952-0.284c-0.284-0.19-0.485-0.448-0.603-0.771c-0.15,0.282-0.358,0.529-0.624,0.74
							c-0.264,0.21-0.546,0.315-0.846,0.315c-0.206,0-0.418-0.037-0.637-0.11C0.959-3.193,0.783-3.305,0.646-3.454
							c-0.135-0.15-0.203-0.34-0.203-0.569c0-0.225,0.078-0.43,0.234-0.614c0.157-0.186,0.354-0.279,0.589-0.279
							c0.159,0,0.292,0.048,0.4,0.144c0.108,0.096,0.162,0.221,0.162,0.375c0,0.203-0.067,0.379-0.203,0.529
							C1.493-3.718,1.326-3.624,1.125-3.587"/>
					</g>
					<g transform="translate(8.214172,-9.295312)scale(0.100800)">
						<path id="c_1210e7f4d85518601ea3049211d562d0" d="M8.717-9.295v-0.271c0-0.017,0.006-0.035,0.019-0.054l1.565-1.732
							c0.236-0.256,0.428-0.471,0.575-0.644c0.148-0.174,0.294-0.375,0.438-0.602c0.145-0.227,0.259-0.458,0.343-0.691
							c0.084-0.234,0.126-0.482,0.126-0.745c0-0.276-0.051-0.54-0.152-0.791c-0.102-0.251-0.254-0.452-0.456-0.604
							c-0.201-0.151-0.445-0.227-0.73-0.227c-0.292,0-0.555,0.088-0.788,0.265c-0.233,0.175-0.397,0.402-0.493,0.68
							c0.026-0.006,0.062-0.009,0.109-0.009c0.151,0,0.28,0.051,0.386,0.153c0.107,0.102,0.161,0.233,0.161,0.394
							c0,0.154-0.054,0.285-0.161,0.392c-0.106,0.106-0.234,0.159-0.386,0.159c-0.158,0-0.29-0.055-0.397-0.164
							c-0.106-0.11-0.159-0.24-0.159-0.388c0-0.253,0.047-0.49,0.142-0.71c0.095-0.221,0.232-0.418,0.411-0.59
							c0.18-0.173,0.382-0.306,0.606-0.397c0.225-0.092,0.463-0.139,0.715-0.139c0.384,0,0.742,0.082,1.072,0.244
							c0.332,0.163,0.594,0.393,0.788,0.69c0.194,0.296,0.292,0.643,0.292,1.041c0,0.292-0.064,0.569-0.192,0.832
							c-0.128,0.263-0.292,0.501-0.493,0.717c-0.2,0.214-0.455,0.458-0.767,0.73c-0.312,0.272-0.517,0.454-0.614,0.545l-1.142,1.098
							h0.969c0.476,0,0.874-0.004,1.194-0.011c0.32-0.008,0.49-0.021,0.509-0.038c0.079-0.085,0.16-0.396,0.243-0.931h0.294
							l-0.285,1.797H8.717z"/>
					</g>
					<g transform="translate(20.385176,-3.173063)scale(0.144000)">
						<path id="c_6a3a612567bb59e037cbf13158797929" d="M21.468-6.485c-0.08,0-0.146-0.03-0.198-0.09
							c-0.051-0.062-0.076-0.127-0.076-0.198c0-0.07,0.025-0.136,0.076-0.196c0.053-0.062,0.119-0.092,0.198-0.092h4.234v-4.248
							c0-0.075,0.028-0.137,0.083-0.185c0.057-0.05,0.125-0.074,0.205-0.074c0.07,0,0.136,0.024,0.196,0.074
							c0.062,0.048,0.092,0.109,0.092,0.185v4.248h4.232c0.07,0,0.131,0.03,0.182,0.092c0.052,0.06,0.079,0.125,0.079,0.196
							c0,0.071-0.026,0.137-0.079,0.198c-0.051,0.06-0.112,0.09-0.182,0.09h-4.232v4.248c0,0.075-0.031,0.137-0.092,0.185
							c-0.06,0.049-0.125,0.074-0.196,0.074c-0.08,0-0.148-0.025-0.205-0.074C25.73-2.1,25.702-2.162,25.702-2.237v-4.248H21.468z"
							/>
					</g>
					<g transform="translate(32.474468,-3.173063)scale(0.144000)">
						<path id="c_b1ccbd40de9466de4ee940ca0731021f_1_" d="M33.685-1.112c0.201,0.347,0.552,0.52,1.053,0.52
							c0.455,0,0.848-0.16,1.181-0.479c0.333-0.318,0.602-0.704,0.806-1.156c0.204-0.452,0.362-0.915,0.475-1.389
							c-0.426,0.404-0.888,0.605-1.386,0.605c-0.38,0-0.703-0.065-0.97-0.196c-0.267-0.132-0.475-0.328-0.624-0.587
							C34.074-4.055,34-4.371,34-4.742c0-0.313,0.042-0.635,0.126-0.965c0.085-0.332,0.204-0.7,0.355-1.105
							c0.153-0.407,0.286-0.76,0.398-1.06c0.126-0.351,0.189-0.639,0.189-0.864c0-0.287-0.105-0.43-0.315-0.43
							c-0.381,0-0.694,0.196-0.94,0.587s-0.427,0.829-0.544,1.312c-0.018,0.062-0.058,0.092-0.119,0.092h-0.169
							c-0.08,0-0.119-0.045-0.119-0.135v-0.041c0.154-0.573,0.391-1.081,0.708-1.523c0.32-0.442,0.723-0.664,1.211-0.664
							c0.342,0,0.631,0.112,0.868,0.337c0.237,0.225,0.355,0.511,0.355,0.857c0,0.178-0.04,0.366-0.119,0.562
							c-0.042,0.117-0.138,0.373-0.288,0.767c-0.15,0.393-0.265,0.718-0.346,0.977c-0.08,0.258-0.145,0.511-0.196,0.76
							c-0.051,0.248-0.077,0.496-0.077,0.745c0,0.318,0.067,0.587,0.203,0.808c0.136,0.22,0.353,0.331,0.648,0.331
							c0.595,0,1.129-0.363,1.602-1.089l1.091-4.437c0.031-0.127,0.105-0.236,0.223-0.326c0.119-0.092,0.245-0.137,0.38-0.137
							c0.117,0,0.219,0.038,0.306,0.112c0.087,0.075,0.131,0.173,0.131,0.295c0,0.055-0.005,0.093-0.014,0.112L38.12-3.13
							c-0.126,0.492-0.358,0.963-0.695,1.413c-0.337,0.45-0.744,0.812-1.22,1.086c-0.475,0.274-0.971,0.412-1.487,0.412
							c-0.249,0-0.496-0.048-0.74-0.146c-0.243-0.096-0.44-0.24-0.59-0.432s-0.225-0.417-0.225-0.675
							c0-0.263,0.078-0.49,0.232-0.682c0.156-0.192,0.362-0.288,0.619-0.288c0.156,0,0.287,0.048,0.392,0.144
							c0.105,0.096,0.158,0.221,0.158,0.375c0,0.221-0.083,0.413-0.248,0.576c-0.164,0.165-0.355,0.248-0.574,0.248
							c-0.011-0.004-0.021-0.008-0.029-0.011C33.703-1.111,33.694-1.112,33.685-1.112"/>
					</g>
					<g transform="translate(39.529247,-9.295312)scale(0.100800)">
						<path id="c_1210e7f4d85518601ea3049211d562d0_1_" d="M40.032-9.295v-0.271c0-0.017,0.006-0.035,0.019-0.054l1.565-1.732
							c0.236-0.256,0.428-0.471,0.575-0.644c0.148-0.174,0.294-0.375,0.438-0.602c0.145-0.227,0.259-0.458,0.343-0.691
							c0.084-0.234,0.126-0.482,0.126-0.745c0-0.276-0.051-0.54-0.153-0.791s-0.253-0.452-0.455-0.604
							c-0.202-0.151-0.445-0.227-0.731-0.227c-0.292,0-0.554,0.088-0.788,0.265c-0.233,0.175-0.397,0.402-0.493,0.68
							c0.026-0.006,0.062-0.009,0.108-0.009c0.151,0,0.28,0.051,0.386,0.153c0.107,0.102,0.161,0.233,0.161,0.394
							c0,0.154-0.053,0.285-0.161,0.392c-0.106,0.106-0.234,0.159-0.386,0.159c-0.157,0-0.29-0.055-0.397-0.164
							c-0.106-0.11-0.159-0.24-0.159-0.388c0-0.253,0.047-0.49,0.142-0.71c0.096-0.221,0.232-0.418,0.411-0.59
							c0.179-0.173,0.381-0.306,0.606-0.397c0.225-0.092,0.463-0.139,0.715-0.139c0.384,0,0.742,0.082,1.073,0.244
							c0.332,0.163,0.594,0.393,0.787,0.69c0.194,0.296,0.292,0.643,0.292,1.041c0,0.292-0.064,0.569-0.192,0.832
							c-0.128,0.263-0.292,0.501-0.493,0.717c-0.2,0.214-0.455,0.458-0.767,0.73c-0.312,0.272-0.517,0.454-0.614,0.545l-1.142,1.098
							h0.968c0.476,0,0.874-0.004,1.194-0.011c0.32-0.008,0.49-0.021,0.509-0.038c0.079-0.085,0.16-0.396,0.243-0.931h0.294
							l-0.285,1.797H40.032z"/>
					</g>
					<g transform="translate(51.700251,-3.173063)scale(0.144000)">
						<path id="c_7bbc93c01755cdeb977d08bdfb9ce616" d="M52.783-5.086c-0.08,0-0.146-0.03-0.198-0.09
							c-0.051-0.062-0.077-0.127-0.077-0.198c0-0.08,0.025-0.147,0.077-0.203c0.052-0.057,0.118-0.085,0.198-0.085h9.043
							c0.07,0,0.131,0.028,0.182,0.085c0.053,0.055,0.079,0.123,0.079,0.203c0,0.07-0.026,0.136-0.079,0.198
							c-0.051,0.06-0.112,0.09-0.182,0.09H52.783z M52.783-7.885c-0.08,0-0.146-0.028-0.198-0.083
							c-0.051-0.057-0.077-0.125-0.077-0.205c0-0.07,0.025-0.136,0.077-0.196c0.052-0.062,0.118-0.092,0.198-0.092h9.043
							c0.07,0,0.131,0.031,0.182,0.092c0.053,0.06,0.079,0.125,0.079,0.196c0,0.08-0.026,0.148-0.079,0.205
							c-0.051,0.056-0.112,0.083-0.182,0.083H52.783z"/>
					</g>
					<g transform="translate(63.789542,-3.173063)scale(0.144000)">
						<path id="c_1a459ac34855d27ec37ccb0e66298d36" d="M65.126-3.173V-3.68c1.2,0,1.8-0.152,1.8-0.457v-7.56
							c-0.497,0.24-1.125,0.36-1.885,0.36v-0.506c1.177,0,2.066-0.308,2.666-0.923h0.203c0.033,0,0.064,0.014,0.094,0.041
							c0.032,0.025,0.047,0.055,0.047,0.088v8.5c0,0.305,0.6,0.457,1.8,0.457v0.506H65.126z"/>
					</g>
				</g>
			</g>
		</g>
	</g>
	<g id="axes2">
		<g id="patch7">
			<path fill="#FFFFFF" d="M470.069,330.48h293.76V36.72h-293.76V330.48"/>
		</g>
		<g id="line2d35">
			<g>
				<defs>
					<rect id="SVGID_29_" x="470.069" y="36.72" width="293.76" height="293.761"/>
				</defs>
				<clipPath id="SVGID_30_">
					<use xlink:href="#SVGID_29_"  overflow="visible"/>
				</clipPath>
				<path clip-path="url(#SVGID_30_)" fill="none" stroke="#FFFF00" stroke-width="2.5" d="M469.936,225.261l0.134-0.398
					l0.133-0.399l0.134-0.399l0.134-0.399l0.134-0.4l0.133-0.401l0.134-0.401l0.134-0.401l0.133-0.401l0.134-0.402l0.134-0.402
					l0.134-0.404l0.133-0.402l0.134-0.404l0.134-0.404l0.134-0.404l0.133-0.404l0.134-0.405l0.134-0.405l0.134-0.406l0.133-0.406
					l0.134-0.406l0.134-0.406l0.133-0.408l0.134-0.406l0.134-0.408l0.134-0.408l0.133-0.408l0.134-0.408l0.134-0.41l0.134-0.408
					l0.133-0.41l0.134-0.41l0.134-0.41l0.134-0.41l0.133-0.41l0.134-0.411l0.134-0.411l0.133-0.411l0.134-0.412l0.134-0.411
					l0.134-0.412l0.133-0.413l0.134-0.413l0.134-0.412l0.134-0.414l0.133-0.412l0.134-0.414l0.134-0.414l0.133-0.414l0.134-0.414
					l0.134-0.414l0.134-0.415l0.133-0.415l0.134-0.415l0.134-0.415l0.134-0.415l0.133-0.416l0.134-0.415l0.134-0.416l0.134-0.416
					l0.133-0.417l0.134-0.416l0.134-0.417l0.133-0.416l0.134-0.418l0.134-0.416l0.134-0.418l0.133-0.417l0.134-0.417l0.134-0.418
					l0.134-0.418l0.133-0.418l0.134-0.418l0.134-0.418l0.134-0.418l0.133-0.418l0.134-0.418l0.134-0.419l0.133-0.419l0.134-0.418
					l0.134-0.419l0.134-0.419l0.133-0.418l0.134-0.42l0.134-0.418l0.134-0.42l0.133-0.419l0.134-0.419l0.134-0.42l0.133-0.419
					l0.134-0.419l0.134-0.42l0.134-0.419l0.133-0.419l0.134-0.42l0.134-0.42l0.134-0.419l0.133-0.419l0.134-0.42l0.134-0.419"/>
			</g>
		</g>
		<g id="line2d36">
			<g>
				<defs>
					<rect id="SVGID_31_" x="470.069" y="36.72" width="293.76" height="293.761"/>
				</defs>
				<clipPath id="SVGID_32_">
					<use xlink:href="#SVGID_31_"  overflow="visible"/>
				</clipPath>
				<path clip-path="url(#SVGID_32_)" fill="none" stroke="#A52A2A" stroke-width="2.5" d="M483.422,183.6l10.815-33.613
					l5.742-17.098l4.673-13.249l4.14-11.094l3.738-9.412l3.472-8.156l3.205-6.982l3.071-6.161l2.804-5.143l2.671-4.45l2.537-3.806
					l2.403-3.215l2.27-2.677l2.137-2.194l2.137-1.872l2.003-1.459l1.869-1.1l1.869-0.846l1.736-0.556l1.735-0.334l1.736-0.111l0,0"
					/>
			</g>
		</g>
		<g id="line2d37">
			<g>
				<defs>
					<rect id="SVGID_33_" x="470.069" y="36.72" width="293.76" height="293.761"/>
				</defs>
				<clipPath id="SVGID_34_">
					<use xlink:href="#SVGID_33_"  overflow="visible"/>
				</clipPath>
				<path clip-path="url(#SVGID_34_)" fill="none" stroke="#FF0000" stroke-width="2.5" d="M550.186,50.073l1.735,0.111l1.736,0.334
					l1.735,0.556l1.87,0.846l1.869,1.1l1.869,1.353l2.003,1.727l2.137,2.154l2.137,2.471l2.27,2.965l2.403,3.512l2.537,4.11
					l2.671,4.758l2.804,5.453l3.071,6.48l3.204,7.294l3.472,8.466l3.739,9.711l4.14,11.381l4.673,13.513l5.608,16.922l8.146,25.373
					l0.935,2.936l0,0"/>
			</g>
		</g>
		<g id="line2d38">
			<g>
				<defs>
					<rect id="SVGID_35_" x="470.069" y="36.72" width="293.76" height="293.761"/>
				</defs>
				<clipPath id="SVGID_36_">
					<use xlink:href="#SVGID_35_"  overflow="visible"/>
				</clipPath>
				<path clip-path="url(#SVGID_36_)" fill="none" stroke="#FFA500" stroke-width="2.5" d="M616.949,183.6l10.815,33.613
					l5.741,17.098l4.674,13.249l4.14,11.094l3.738,9.412l3.472,8.156l3.205,6.981l3.071,6.16l2.804,5.145l2.671,4.449l2.537,3.807
					l2.403,3.215l2.27,2.677l2.137,2.193l2.137,1.872l2.003,1.46l1.869,1.1l1.869,0.846l1.736,0.556l1.735,0.334l1.736,0.111l0,0"/>
			</g>
		</g>
		<g id="line2d39">
			<g>
				<defs>
					<rect id="SVGID_37_" x="470.069" y="36.72" width="293.76" height="293.761"/>
				</defs>
				<clipPath id="SVGID_38_">
					<use xlink:href="#SVGID_37_"  overflow="visible"/>
				</clipPath>
				<path clip-path="url(#SVGID_38_)" fill="none" stroke="#FFFF00" stroke-width="2.5" d="M683.713,317.127l1.735-0.111
					l1.736-0.334l1.735-0.556l1.869-0.846l1.87-1.1l1.869-1.354l2.003-1.727l2.137-2.154l2.136-2.471l2.271-2.964l2.403-3.512
					l2.537-4.111l2.671-4.758l2.804-5.453l3.071-6.48l3.204-7.294l3.472-8.467l3.739-9.712l4.14-11.381l4.673-13.514l5.608-16.922
					l8.146-25.372l0.935-2.936l0,0"/>
			</g>
		</g>
		<g id="line2d40">
			<g>
				<defs>
					<rect id="SVGID_39_" x="470.069" y="36.72" width="293.76" height="293.761"/>
				</defs>
				<clipPath id="SVGID_40_">
					<use xlink:href="#SVGID_39_"  overflow="visible"/>
				</clipPath>
				<path clip-path="url(#SVGID_40_)" fill="none" stroke="#A52A2A" stroke-width="2.5" d="M750.477,183.6l0.133-0.419l0.134-0.419
					l0.134-0.419l0.134-0.42l0.133-0.419l0.134-0.419l0.134-0.419l0.134-0.419l0.133-0.419l0.134-0.419l0.134-0.419l0.133-0.419
					l0.134-0.419l0.134-0.419l0.134-0.419l0.133-0.419l0.134-0.419l0.134-0.419l0.134-0.419l0.133-0.418l0.134-0.419l0.134-0.418
					l0.133-0.418l0.134-0.418l0.134-0.418l0.134-0.418l0.133-0.418l0.134-0.418l0.134-0.418l0.134-0.417l0.133-0.418l0.134-0.417
					l0.134-0.417l0.134-0.417l0.133-0.417l0.134-0.417l0.134-0.417l0.134-0.417l0.133-0.417l0.134-0.416l0.134-0.417l0.133-0.416
					l0.134-0.416l0.134-0.416l0.134-0.416l0.133-0.415l0.134-0.415l0.134-0.415l0.134-0.415l0.133-0.414l0.134-0.415l0.134-0.414
					l0.133-0.414l0.134-0.414l0.134-0.414l0.134-0.413l0.133-0.413l0.134-0.413l0.134-0.413l0.134-0.412l0.133-0.412l0.134-0.412
					l0.134-0.412l0.133-0.411l0.134-0.411l0.134-0.411l0.134-0.411l0.133-0.41l0.134-0.41l0.134-0.41l0.134-0.409l0.133-0.409
					l0.134-0.409l0.134-0.408l0.134-0.408l0.133-0.408l0.134-0.408l0.134-0.407l0.134-0.407l0.133-0.407l0.134-0.406l0.134-0.406
					l0.133-0.405l0.134-0.405l0.134-0.405l0.134-0.404l0.133-0.404l0.134-0.404l0.134-0.403l0.134-0.403l0.133-0.403l0.134-0.402
					l0.134-0.402l0.133-0.401l0.134-0.401l0.134-0.4l0.134-0.4l0.133-0.4l0.134-0.4l0.134-0.399l0.134-0.399"/>
			</g>
		</g>
		<g id="matplotlib.axis3">
			<g id="xtick6">
				<g id="line2d41">
					<g>
						<defs>
							<rect id="SVGID_41_" x="470.069" y="36.72" width="293.76" height="293.761"/>
						</defs>
						<clipPath id="SVGID_42_">
							<use xlink:href="#SVGID_41_"  overflow="visible"/>
						</clipPath>
						
							<path clip-path="url(#SVGID_42_)" fill="none" stroke="#000000" stroke-width="0.5" stroke-linejoin="round" stroke-dasharray="1,3" d="
							M483.422,330.48V36.72"/>
					</g>
				</g>
				<g id="line2d42">
					<g>
						<g>
							
								<path id="m30e32995789d870ad79a2e54c91cf9c6_5_" fill="none" stroke="#000000" stroke-width="0.5" stroke-linejoin="round" d="
								M483.422,330.48v-4"/>
						</g>
					</g>
				</g>
				<g id="line2d43">
					<g>
						<g>
							
								<path id="m9281cae24120827b11d5ea8a7ad3e96b_5_" fill="none" stroke="#000000" stroke-width="0.5" stroke-linejoin="round" d="
								M483.422,36.72v4"/>
						</g>
					</g>
				</g>
				<g id="text18">
					<g transform="translate(480.398267,343.386250)scale(0.120000)">
						<g>
							<path id="c_7a2040fe3b94fcd41d0a72c84e93b115_12_" d="M31.781-66.403c-5.07,0-8.887,2.498-11.45,7.495
								c-2.555,4.989-3.833,12.5-3.833,22.534c0,9.985,1.278,17.48,3.833,22.485c2.563,4.997,6.38,7.495,11.45,7.495
								c5.119,0,8.952-2.498,11.499-7.495c2.563-5.005,3.849-12.5,3.849-22.485c0-10.034-1.286-17.546-3.849-22.534
								C40.733-63.904,36.9-66.403,31.781-66.403 M31.781-74.215c8.179,0,14.421,3.231,18.734,9.701
								c4.313,6.453,6.47,15.837,6.47,28.141c0,12.272-2.157,21.639-6.47,28.109C46.202-1.811,39.96,1.419,31.781,1.419
								c-8.162,0-14.404-3.231-18.717-9.684c-4.313-6.47-6.47-15.837-6.47-28.109c0-12.305,2.156-21.688,6.47-28.141
								C17.377-70.984,23.619-74.215,31.781-74.215"/>
						</g>
					</g>
				</g>
			</g>
			<g id="xtick7">
				<g id="line2d44">
					<g>
						<defs>
							<rect id="SVGID_43_" x="470.069" y="36.72" width="293.76" height="293.761"/>
						</defs>
						<clipPath id="SVGID_44_">
							<use xlink:href="#SVGID_43_"  overflow="visible"/>
						</clipPath>
						
							<path clip-path="url(#SVGID_44_)" fill="none" stroke="#000000" stroke-width="0.5" stroke-linejoin="round" stroke-dasharray="1,3" d="
							M616.949,330.48V36.72"/>
					</g>
				</g>
				<g id="line2d45">
					<g>
						<g>
							
								<path id="m30e32995789d870ad79a2e54c91cf9c6_6_" fill="none" stroke="#000000" stroke-width="0.5" stroke-linejoin="round" d="
								M616.949,330.48v-4"/>
						</g>
					</g>
				</g>
				<g id="line2d46">
					<g>
						<g>
							
								<path id="m9281cae24120827b11d5ea8a7ad3e96b_6_" fill="none" stroke="#000000" stroke-width="0.5" stroke-linejoin="round" d="
								M616.949,36.72v4"/>
						</g>
					</g>
				</g>
				<g id="text19">
					<g transform="translate(613.355227,340.761250)scale(0.120000)">
						<g>
							<path id="c_73898205c3b95b421cc0f9bc5a9ca268" d="M56.595-44.577h-8.887l-5.127,23.779c-0.488,2.409-0.863,4.362-1.115,5.859
								c-0.236,1.489-0.358,2.596-0.358,3.312c0,1.888,0.382,3.231,1.139,4.028c0.773,0.806,2.059,1.204,3.85,1.204
								c0.553,0,1.204-0.041,1.953-0.122c0.749-0.081,1.725-0.212,2.938-0.374l-1.473,6.893c-0.977,0.26-1.913,0.448-2.808,0.578
								c-0.896,0.13-1.766,0.203-2.612,0.203c-3.841,0-6.747-0.83-8.716-2.49c-1.97-1.668-2.954-4.126-2.954-7.373
								c0-1.497,0.171-3.418,0.513-5.762s1.066-6.136,2.173-11.377l3.906-18.359H23.099l-9.473,44.58H4.78l9.53-44.58h-1.994
								c-1.766,0-3.133,0.521-4.109,1.562c-0.985,1.042-1.62,2.677-1.904,4.924H-1.51c0.911-5.396,2.531-9.115,4.858-11.141
								C5.675-51.274,9.525-52.3,14.896-52.3h43.4L56.595-44.577z"/>
						</g>
					</g>
				</g>
			</g>
			<g id="xtick8">
				<g id="line2d47">
					<g>
						<defs>
							<rect id="SVGID_45_" x="470.07" y="36.72" width="293.76" height="293.761"/>
						</defs>
						<clipPath id="SVGID_46_">
							<use xlink:href="#SVGID_45_"  overflow="visible"/>
						</clipPath>
						
							<path clip-path="url(#SVGID_46_)" fill="none" stroke="#000000" stroke-width="0.5" stroke-linejoin="round" stroke-dasharray="1,3" d="
							M750.477,330.48V36.72"/>
					</g>
				</g>
				<g id="line2d48">
					<g>
						<g>
							
								<path id="m30e32995789d870ad79a2e54c91cf9c6_7_" fill="none" stroke="#000000" stroke-width="0.5" stroke-linejoin="round" d="
								M750.477,330.48v-4"/>
						</g>
					</g>
				</g>
				<g id="line2d49">
					<g>
						<g>
							
								<path id="m9281cae24120827b11d5ea8a7ad3e96b_7_" fill="none" stroke="#000000" stroke-width="0.5" stroke-linejoin="round" d="
								M750.477,36.72v4"/>
						</g>
					</g>
				</g>
				<g id="text20">
					<g transform="translate(743.593437,343.386250)scale(0.120000)">
						<g>
							<path id="c_ed3f3ed3ebfbd18bcb9c012009a68ad1" d="M19.185-8.297h34.424v8.301H7.328v-8.301
								c3.744-3.874,8.838-9.074,15.299-15.592c6.47-6.535,10.531-10.742,12.183-12.638c3.158-3.548,5.363-6.543,6.616-9.001
								c1.253-2.458,1.888-4.875,1.888-7.251c0-3.874-1.359-7.031-4.077-9.473c-2.718-2.449-6.258-3.67-10.628-3.67
								c-3.092,0-6.355,0.537-9.798,1.611c-3.426,1.074-7.088,2.702-10.995,4.891v-9.969c3.963-1.595,7.674-2.8,11.125-3.613
								c3.459-0.814,6.616-1.213,9.481-1.213c7.552,0,13.574,1.888,18.066,5.664c4.484,3.776,6.73,8.813,6.73,15.129
								c0,3.003-0.562,5.843-1.685,8.529c-1.115,2.677-3.157,5.843-6.128,9.489c-0.813,0.944-3.401,3.678-7.764,8.187
								C33.289-22.71,27.136-16.403,19.185-8.297"/>
						</g>
						<g>
							<path id="c_73898205c3b95b421cc0f9bc5a9ca268_1_" d="M120.219-44.577h-8.895l-5.119,23.779
								c-0.488,2.409-0.863,4.362-1.115,5.859c-0.236,1.489-0.358,2.596-0.358,3.312c0,1.888,0.383,3.231,1.14,4.028
								c0.773,0.806,2.059,1.204,3.849,1.204c0.553,0,1.205-0.041,1.953-0.122c0.749-0.081,1.725-0.212,2.938-0.374l-1.473,6.893
								c-0.977,0.26-1.913,0.448-2.808,0.578c-0.903,0.13-1.766,0.203-2.612,0.203c-3.841,0-6.754-0.83-8.716-2.49
								c-1.969-1.668-2.954-4.126-2.954-7.373c0-1.497,0.171-3.418,0.513-5.762s1.066-6.136,2.173-11.377l3.906-18.359H86.714
								L77.25,0.003h-8.846l9.53-44.58H75.94c-1.766,0-3.133,0.521-4.11,1.562c-0.985,1.042-1.62,2.677-1.913,4.924h-7.812
								c0.92-5.396,2.539-9.115,4.867-11.141c2.328-2.043,6.177-3.068,11.54-3.068h43.408L120.219-44.577z"/>
						</g>
					</g>
				</g>
			</g>
			<g id="xtick9">
				<g id="line2d50">
					<g>
						<defs>
							<rect id="SVGID_47_" x="470.07" y="36.72" width="293.76" height="293.761"/>
						</defs>
						<clipPath id="SVGID_48_">
							<use xlink:href="#SVGID_47_"  overflow="visible"/>
						</clipPath>
						
							<path clip-path="url(#SVGID_48_)" fill="none" stroke="#000000" stroke-width="0.5" stroke-linejoin="round" stroke-dasharray="1,3" d="
							M550.186,330.48V36.72"/>
					</g>
				</g>
				<g id="line2d51">
					<g>
						<g>
							
								<path id="m30e32995789d870ad79a2e54c91cf9c6_8_" fill="none" stroke="#000000" stroke-width="0.5" stroke-linejoin="round" d="
								M550.186,330.48v-4"/>
						</g>
					</g>
				</g>
				<g id="line2d52">
					<g>
						<g>
							
								<path id="m9281cae24120827b11d5ea8a7ad3e96b_8_" fill="none" stroke="#000000" stroke-width="0.5" stroke-linejoin="round" d="
								M550.186,36.72v4"/>
						</g>
					</g>
				</g>
				<g id="text21">
					<g transform="translate(541.318153,343.386250)scale(0.120000)">
						<g>
							<path id="c_73898205c3b95b421cc0f9bc5a9ca268_2_" d="M56.594-44.577h-8.887l-5.127,23.779
								c-0.488,2.409-0.862,4.362-1.106,5.859c-0.244,1.489-0.366,2.596-0.366,3.312c0,1.888,0.382,3.231,1.147,4.028
								c0.765,0.806,2.051,1.204,3.841,1.204c0.554,0,1.205-0.041,1.953-0.122c0.749-0.081,1.726-0.212,2.938-0.374l-1.473,6.893
								c-0.977,0.26-1.912,0.448-2.808,0.578c-0.895,0.13-1.766,0.203-2.612,0.203c-3.841,0-6.746-0.83-8.716-2.49
								c-1.969-1.668-2.954-4.126-2.954-7.373c0-1.497,0.171-3.418,0.513-5.762s1.066-6.136,2.173-11.377l3.906-18.359H23.098
								l-9.473,44.58H4.78l9.538-44.58h-2.002c-1.766,0-3.133,0.521-4.11,1.562c-0.977,1.042-1.619,2.677-1.904,4.924h-7.812
								c0.912-5.396,2.531-9.115,4.858-11.141C5.675-51.274,9.524-52.3,14.895-52.3h43.4L56.594-44.577z"/>
						</g>
						<g>
							<path id="c_9c6d5cbc59c6231647eb409cc6b37bb3" d="M84.28-72.905h8.293L67.182,9.281h-8.293L84.28-72.905z"/>
						</g>
						<g>
							<path id="c_ed3f3ed3ebfbd18bcb9c012009a68ad1_1_" d="M111.77-8.297h34.416v8.301H99.905v-8.301
								c3.744-3.874,8.838-9.074,15.3-15.592c6.47-6.535,10.53-10.742,12.19-12.638c3.149-3.548,5.355-6.543,6.608-9.001
								c1.261-2.458,1.888-4.875,1.888-7.251c0-3.874-1.359-7.031-4.077-9.473c-2.718-2.449-6.258-3.67-10.628-3.67
								c-3.093,0-6.356,0.537-9.79,1.611c-3.435,1.074-7.097,2.702-11.003,4.891v-9.969c3.972-1.595,7.674-2.8,11.125-3.613
								c3.458-0.814,6.616-1.213,9.48-1.213c7.552,0,13.574,1.888,18.066,5.664c4.492,3.776,6.73,8.813,6.73,15.129
								c0,3.003-0.562,5.843-1.685,8.529c-1.115,2.677-3.158,5.843-6.128,9.489c-0.806,0.944-3.402,3.678-7.764,8.187
								C125.865-22.71,119.713-16.403,111.77-8.297"/>
						</g>
					</g>
				</g>
			</g>
			<g id="xtick10">
				<g id="line2d53">
					<g>
						<defs>
							<rect id="SVGID_49_" x="470.069" y="36.72" width="293.76" height="293.761"/>
						</defs>
						<clipPath id="SVGID_50_">
							<use xlink:href="#SVGID_49_"  overflow="visible"/>
						</clipPath>
						
							<path clip-path="url(#SVGID_50_)" fill="none" stroke="#000000" stroke-width="0.5" stroke-linejoin="round" stroke-dasharray="1,3" d="
							M683.713,330.48V36.72"/>
					</g>
				</g>
				<g id="line2d54">
					<g>
						<g>
							
								<path id="m30e32995789d870ad79a2e54c91cf9c6_9_" fill="none" stroke="#000000" stroke-width="0.5" stroke-linejoin="round" d="
								M683.713,330.48v-4"/>
						</g>
					</g>
				</g>
				<g id="line2d55">
					<g>
						<g>
							
								<path id="m9281cae24120827b11d5ea8a7ad3e96b_9_" fill="none" stroke="#000000" stroke-width="0.5" stroke-linejoin="round" d="
								M683.713,36.72v4"/>
						</g>
					</g>
				</g>
				<g id="text22">
					<g transform="translate(671.579801,343.386250)scale(0.120000)">
						<g>
							<path id="c_3dcfa38a02242cb63ec6726c6e70be7a" d="M40.58-39.311c4.72,1.009,8.398,3.117,11.043,6.307
								c2.661,3.19,3.988,7.129,3.988,11.816c0,7.186-2.474,12.752-7.422,16.699C43.241-0.55,36.21,1.419,27.095,1.419
								c-3.052,0-6.201-0.301-9.44-0.903c-3.239-0.602-6.584-1.514-10.026-2.718v-9.513c2.727,1.587,5.713,2.791,8.968,3.605
								c3.255,0.814,6.665,1.221,10.213,1.221c6.177,0,10.889-1.221,14.127-3.654c3.239-2.441,4.858-5.99,4.858-10.645
								c0-4.305-1.505-7.658-4.517-10.075c-3.011-2.433-7.194-3.646-12.557-3.646h-8.504v-8.105h8.895
								c4.842,0,8.553-0.968,11.125-2.905c2.571-1.937,3.857-4.728,3.857-8.374c0-3.743-1.327-6.616-3.988-8.61
								c-2.645-2.01-6.437-3.019-11.385-3.019c-2.71,0-5.615,0.301-8.708,0.887s-6.494,1.497-10.205,2.726v-8.781
								c3.751-1.042,7.267-1.823,10.539-2.344c3.264-0.521,6.348-0.781,9.245-0.781c7.487,0,13.411,1.701,17.765,5.103
								c4.37,3.402,6.551,7.992,6.551,13.786c0,4.036-1.156,7.454-3.475,10.229C48.124-42.314,44.836-40.385,40.58-39.311"/>
						</g>
						<g>
							<path id="c_73898205c3b95b421cc0f9bc5a9ca268_3_" d="M120.219-44.577h-8.895l-5.119,23.779
								c-0.488,2.409-0.863,4.362-1.115,5.859c-0.236,1.489-0.358,2.596-0.358,3.312c0,1.888,0.382,3.231,1.139,4.028
								c0.773,0.806,2.059,1.204,3.85,1.204c0.553,0,1.204-0.041,1.953-0.122c0.749-0.081,1.725-0.212,2.938-0.374l-1.473,6.893
								c-0.977,0.26-1.913,0.448-2.808,0.578c-0.903,0.13-1.766,0.203-2.612,0.203c-3.841,0-6.755-0.83-8.716-2.49
								c-1.97-1.668-2.954-4.126-2.954-7.373c0-1.497,0.171-3.418,0.513-5.762s1.066-6.136,2.173-11.377l3.906-18.359H86.714
								L77.25,0.003h-8.846l9.53-44.58h-1.994c-1.766,0-3.133,0.521-4.109,1.562c-0.985,1.042-1.62,2.677-1.913,4.924h-7.812
								c0.919-5.396,2.539-9.115,4.867-11.141c2.327-2.043,6.177-3.068,11.54-3.068h43.408L120.219-44.577z"/>
						</g>
						<g>
							<path id="c_9c6d5cbc59c6231647eb409cc6b37bb3_1_" d="M147.904-72.905h8.292L130.806,9.281h-8.292L147.904-72.905z"/>
						</g>
						<g>
							<path id="c_ed3f3ed3ebfbd18bcb9c012009a68ad1_2_" d="M175.386-8.297h34.424v8.301h-46.281v-8.301
								c3.743-3.874,8.838-9.074,15.299-15.592c6.47-6.535,10.531-10.742,12.183-12.638c3.158-3.548,5.363-6.543,6.616-9.001
								c1.253-2.458,1.888-4.875,1.888-7.251c0-3.874-1.359-7.031-4.077-9.473c-2.718-2.449-6.258-3.67-10.628-3.67
								c-3.092,0-6.356,0.537-9.798,1.611c-3.426,1.074-7.088,2.702-10.994,4.891v-9.969c3.963-1.595,7.674-2.8,11.125-3.613
								c3.458-0.814,6.616-1.213,9.481-1.213c7.552,0,13.574,1.888,18.066,5.664c4.484,3.776,6.73,8.813,6.73,15.129
								c0,3.003-0.562,5.843-1.685,8.529c-1.115,2.677-3.158,5.843-6.128,9.489c-0.814,0.944-3.402,3.678-7.764,8.187
								C189.489-22.71,183.337-16.403,175.386-8.297"/>
						</g>
					</g>
				</g>
			</g>
			<g id="text23">
				<g id="mathtext4">
					<g transform="translate(613.448977,356.495625)">
						<g transform="translate(0.000000,-1.703125)scale(0.120000)">
							<path id="c_277960698c3e9ebfcde4d2161536ce57_2_" d="M0.938-2.048c0.141,0.109,0.341,0.163,0.598,0.163
								c0.25,0,0.471-0.12,0.662-0.359c0.191-0.24,0.322-0.503,0.392-0.788l0.546-2.128c0.086-0.386,0.129-0.65,0.129-0.791
								c0-0.199-0.055-0.373-0.166-0.521S2.831-6.696,2.631-6.696c-0.254,0-0.492,0.079-0.715,0.237
								c-0.223,0.159-0.41,0.36-0.562,0.604c-0.152,0.243-0.26,0.49-0.322,0.74C1.016-5.062,0.985-5.037,0.938-5.037H0.791
								c-0.062,0-0.094-0.038-0.094-0.112v-0.034c0.077-0.298,0.21-0.588,0.397-0.87c0.188-0.283,0.417-0.513,0.688-0.688
								c0.272-0.176,0.562-0.264,0.871-0.264c0.293,0,0.558,0.078,0.794,0.234s0.402,0.368,0.5,0.638
								c0.138-0.245,0.312-0.452,0.525-0.619c0.212-0.169,0.445-0.253,0.699-0.253c0.173,0,0.349,0.03,0.527,0.092
								c0.18,0.06,0.326,0.152,0.44,0.277c0.113,0.125,0.17,0.281,0.17,0.469c0,0.202-0.065,0.378-0.196,0.525
								C5.983-5.497,5.817-5.423,5.614-5.423c-0.129,0-0.236-0.041-0.322-0.123C5.206-5.629,5.163-5.733,5.163-5.858
								c0-0.168,0.057-0.314,0.172-0.44c0.116-0.128,0.255-0.203,0.414-0.228c-0.145-0.113-0.344-0.17-0.598-0.17
								c-0.258,0-0.481,0.119-0.671,0.357C4.29-6.099,4.157-5.834,4.079-5.542L3.551-3.421C3.465-3.099,3.422-2.836,3.422-2.629
								c0,0.204,0.058,0.379,0.172,0.525c0.115,0.146,0.27,0.219,0.462,0.219c0.375,0,0.709-0.165,1.003-0.495
								c0.295-0.33,0.489-0.692,0.583-1.087C5.659-3.514,5.69-3.537,5.736-3.537h0.148c0.031,0,0.056,0.011,0.075,0.031
								c0.02,0.021,0.029,0.046,0.029,0.073c0,0.008-0.004,0.02-0.011,0.036C5.864-2.921,5.625-2.497,5.261-2.125
								C4.899-1.754,4.489-1.568,4.032-1.568c-0.293,0-0.557-0.079-0.793-0.236C3.002-1.963,2.834-2.177,2.736-2.448
								c-0.125,0.235-0.298,0.44-0.52,0.617c-0.22,0.175-0.455,0.263-0.705,0.263c-0.171,0-0.348-0.031-0.53-0.092
								C0.799-1.72,0.652-1.812,0.539-1.937C0.426-2.062,0.37-2.22,0.37-2.412c0-0.188,0.065-0.358,0.195-0.512
								C0.696-3.079,0.86-3.156,1.056-3.156c0.132,0,0.243,0.039,0.333,0.119c0.091,0.08,0.136,0.185,0.136,0.313
								c0,0.169-0.057,0.315-0.169,0.44C1.245-2.158,1.105-2.08,0.938-2.048"/>
						</g>
					</g>
				</g>
			</g>
		</g>
		<g id="matplotlib.axis4">
			<g id="ytick6">
				<g id="line2d56">
					<g>
						<defs>
							<rect id="SVGID_51_" x="470.07" y="36.72" width="293.76" height="293.761"/>
						</defs>
						<clipPath id="SVGID_52_">
							<use xlink:href="#SVGID_51_"  overflow="visible"/>
						</clipPath>
						
							<path clip-path="url(#SVGID_52_)" fill="none" stroke="#000000" stroke-width="0.5" stroke-linejoin="round" stroke-dasharray="1,3" d="
							M470.07,317.127h293.76"/>
					</g>
				</g>
				<g id="line2d57">
					<g>
						<g>
							
								<path id="m3400efa6b1638b3fea9e19e898273957_5_" fill="none" stroke="#000000" stroke-width="0.5" stroke-linejoin="round" d="
								M470.07,317.127h4"/>
						</g>
					</g>
				</g>
				<g id="line2d58">
					<g>
						<g>
							
								<path id="m20b58b2501143cb5e0a5e8f1ef6f1643_5_" fill="none" stroke="#000000" stroke-width="0.5" stroke-linejoin="round" d="
								M763.829,317.127h-4"/>
						</g>
					</g>
				</g>
				<g id="text24">
					<g transform="translate(438.975227,321.494460)scale(0.120000)">
						<g>
							<path id="c_6a8d56c819c37117ab4cf023bec22a5a_4_" d="M10.592-35.501H73.19v8.301H10.592V-35.501z"/>
						</g>
						<g>
							<path id="c_42baa63129a918535c52adb20d687ea7_4_" d="M96.196-8.296h16.113v-55.623l-17.538,3.516v-8.984l17.44-3.516h9.863
								v64.608h16.105v8.293H96.196V-8.296z"/>
						</g>
						<g>
							<path id="c_ed3e21196fb739f392806f09ca0594ef_10_" d="M158.102-12.405h10.311v12.402h-10.311V-12.405z"/>
						</g>
						<g>
							<path id="c_7a2040fe3b94fcd41d0a72c84e93b115_13_" d="M210.983-66.409c-5.07,0-8.895,2.506-11.45,7.503
								c-2.555,4.989-3.833,12.5-3.833,22.534c0,9.985,1.278,17.48,3.833,22.477c2.555,5.005,6.38,7.503,11.45,7.503
								c5.111,0,8.944-2.498,11.499-7.503c2.563-4.997,3.841-12.492,3.841-22.477c0-10.034-1.278-17.546-3.841-22.534
								C219.927-63.903,216.094-66.409,210.983-66.409 M210.983-74.222c8.179,0,14.421,3.239,18.734,9.709
								c4.313,6.453,6.47,15.837,6.47,28.141c0,12.264-2.157,21.639-6.47,28.109c-4.313,6.453-10.555,9.684-18.734,9.684
								c-8.17,0-14.404-3.231-18.717-9.684c-4.313-6.47-6.47-15.845-6.47-28.109c0-12.305,2.156-21.688,6.47-28.141
								C196.578-70.983,202.812-74.222,210.983-74.222"/>
						</g>
					</g>
				</g>
			</g>
			<g id="ytick7">
				<g id="line2d59">
					<g>
						<defs>
							<rect id="SVGID_53_" x="470.07" y="36.72" width="293.76" height="293.761"/>
						</defs>
						<clipPath id="SVGID_54_">
							<use xlink:href="#SVGID_53_"  overflow="visible"/>
						</clipPath>
						
							<path clip-path="url(#SVGID_54_)" fill="none" stroke="#000000" stroke-width="0.5" stroke-linejoin="round" stroke-dasharray="1,3" d="
							M470.07,250.363h293.76"/>
					</g>
				</g>
				<g id="line2d60">
					<g>
						<g>
							
								<path id="m3400efa6b1638b3fea9e19e898273957_6_" fill="none" stroke="#000000" stroke-width="0.5" stroke-linejoin="round" d="
								M470.07,250.363h4"/>
						</g>
					</g>
				</g>
				<g id="line2d61">
					<g>
						<g>
							
								<path id="m20b58b2501143cb5e0a5e8f1ef6f1643_6_" fill="none" stroke="#000000" stroke-width="0.5" stroke-linejoin="round" d="
								M763.829,250.363h-4"/>
						</g>
					</g>
				</g>
				<g id="text25">
					<g transform="translate(439.225227,254.730824)scale(0.120000)">
						<g>
							<path id="c_6a8d56c819c37117ab4cf023bec22a5a_5_" d="M10.593-35.501H73.19v8.301H10.593V-35.501z"/>
						</g>
						<g>
							<path id="c_7a2040fe3b94fcd41d0a72c84e93b115_14_" d="M115.573-66.41c-5.07,0-8.895,2.506-11.45,7.503
								c-2.555,4.989-3.833,12.5-3.833,22.526c0,9.994,1.278,17.489,3.833,22.494c2.555,4.997,6.38,7.495,11.45,7.495
								c5.111,0,8.944-2.498,11.499-7.495c2.563-5.005,3.841-12.5,3.841-22.494c0-10.026-1.278-17.537-3.841-22.526
								C124.517-63.903,120.684-66.41,115.573-66.41 M115.573-74.222c8.179,0,14.42,3.239,18.734,9.701
								c4.313,6.462,6.47,15.845,6.47,28.141c0,12.272-2.156,21.647-6.47,28.109c-4.313,6.462-10.555,9.692-18.734,9.692
								c-8.171,0-14.404-3.231-18.718-9.692c-4.313-6.462-6.47-15.837-6.47-28.109c0-12.297,2.156-21.68,6.47-28.141
								C101.169-70.983,107.402-74.222,115.573-74.222"/>
						</g>
						<g>
							<path id="c_ed3e21196fb739f392806f09ca0594ef_11_" d="M158.102-12.406h10.311v12.402h-10.311V-12.406z"/>
						</g>
						<g>
							<path id="c_1260a2df50f305f3db244e29828f968e_4_" d="M189.995-72.904h38.721v8.309h-29.688v17.863
								c1.424-0.488,2.856-0.863,4.281-1.099c1.44-0.236,2.873-0.358,4.313-0.358c8.138,0,14.575,2.23,19.328,6.689
								c4.761,4.451,7.145,10.49,7.145,18.107c0,7.845-2.449,13.949-7.332,18.294s-11.768,6.519-20.654,6.519
								c-3.06,0-6.185-0.26-9.359-0.781c-3.166-0.521-6.445-1.302-9.831-2.344v-9.92c2.93,1.595,5.957,2.783,9.082,3.564
								s6.421,1.172,9.904,1.172c5.631,0,10.091-1.481,13.371-4.443c3.296-2.954,4.94-6.974,4.94-12.061
								c0-5.07-1.644-9.082-4.94-12.044c-3.28-2.97-7.739-4.46-13.371-4.46c-2.637,0-5.265,0.293-7.894,0.879
								c-2.612,0.586-5.281,1.497-8.016,2.734V-72.904z"/>
						</g>
					</g>
				</g>
			</g>
			<g id="ytick8">
				<g id="line2d62">
					<g>
						<defs>
							<rect id="SVGID_55_" x="470.07" y="36.72" width="293.76" height="293.761"/>
						</defs>
						<clipPath id="SVGID_56_">
							<use xlink:href="#SVGID_55_"  overflow="visible"/>
						</clipPath>
						
							<path clip-path="url(#SVGID_56_)" fill="none" stroke="#000000" stroke-width="0.5" stroke-linejoin="round" stroke-dasharray="1,3" d="
							M470.07,183.6h293.76"/>
					</g>
				</g>
				<g id="line2d63">
					<g>
						<g>
							
								<path id="m3400efa6b1638b3fea9e19e898273957_7_" fill="none" stroke="#000000" stroke-width="0.5" stroke-linejoin="round" d="
								M470.07,183.6h4"/>
						</g>
					</g>
				</g>
				<g id="line2d64">
					<g>
						<g>
							
								<path id="m20b58b2501143cb5e0a5e8f1ef6f1643_7_" fill="none" stroke="#000000" stroke-width="0.5" stroke-linejoin="round" d="
								M763.829,183.6h-4"/>
						</g>
					</g>
				</g>
				<g id="text26">
					<g transform="translate(448.568977,187.967187)scale(0.120000)">
						<g>
							<path id="c_7a2040fe3b94fcd41d0a72c84e93b115_15_" d="M31.784-66.406c-5.07,0-8.895,2.498-11.45,7.499
								c-2.555,4.989-3.833,12.5-3.833,22.53c0,9.99,1.278,17.485,3.833,22.49c2.555,4.997,6.38,7.495,11.45,7.495
								c5.111,0,8.944-2.499,11.499-7.495c2.563-5.005,3.841-12.5,3.841-22.49c0-10.03-1.278-17.542-3.841-22.53
								C40.728-63.908,36.895-66.406,31.784-66.406 M31.784-74.219c8.179,0,14.421,3.235,18.734,9.7
								c4.313,6.462,6.47,15.841,6.47,28.141c0,12.268-2.156,21.643-6.47,28.105C46.205-1.811,39.963,1.42,31.784,1.42
								c-8.171,0-14.404-3.231-18.718-9.692c-4.313-6.462-6.47-15.837-6.47-28.105c0-12.301,2.157-21.68,6.47-28.141
								C17.38-70.984,23.613-74.219,31.784-74.219"/>
						</g>
						<g>
							<path id="c_ed3e21196fb739f392806f09ca0594ef_12_" d="M74.313-12.406h10.311v12.402H74.313V-12.406z"/>
						</g>
						<g>
							<path id="c_7a2040fe3b94fcd41d0a72c84e93b115_16_" d="M127.194-66.406c-5.07,0-8.895,2.498-11.45,7.499
								c-2.555,4.989-3.833,12.5-3.833,22.53c0,9.99,1.278,17.485,3.833,22.49c2.555,4.997,6.38,7.495,11.45,7.495
								c5.111,0,8.944-2.499,11.499-7.495c2.563-5.005,3.841-12.5,3.841-22.49c0-10.03-1.278-17.542-3.841-22.53
								C136.138-63.908,132.305-66.406,127.194-66.406 M127.194-74.219c8.179,0,14.421,3.235,18.734,9.7
								c4.313,6.462,6.47,15.841,6.47,28.141c0,12.268-2.156,21.643-6.47,28.105c-4.313,6.461-10.555,9.692-18.734,9.692
								c-8.171,0-14.404-3.231-18.718-9.692c-4.313-6.462-6.47-15.837-6.47-28.105c0-12.301,2.157-21.68,6.47-28.141
								C112.79-70.984,119.023-74.219,127.194-74.219"/>
						</g>
					</g>
				</g>
			</g>
			<g id="ytick9">
				<g id="line2d65">
					<g>
						<defs>
							<rect id="SVGID_57_" x="470.07" y="36.72" width="293.76" height="293.761"/>
						</defs>
						<clipPath id="SVGID_58_">
							<use xlink:href="#SVGID_57_"  overflow="visible"/>
						</clipPath>
						
							<path clip-path="url(#SVGID_58_)" fill="none" stroke="#000000" stroke-width="0.5" stroke-linejoin="round" stroke-dasharray="1,3" d="
							M470.07,116.836h293.76"/>
					</g>
				</g>
				<g id="line2d66">
					<g>
						<g>
							
								<path id="m3400efa6b1638b3fea9e19e898273957_8_" fill="none" stroke="#000000" stroke-width="0.5" stroke-linejoin="round" d="
								M470.07,116.836h4"/>
						</g>
					</g>
				</g>
				<g id="line2d67">
					<g>
						<g>
							
								<path id="m20b58b2501143cb5e0a5e8f1ef6f1643_8_" fill="none" stroke="#000000" stroke-width="0.5" stroke-linejoin="round" d="
								M763.829,116.836h-4"/>
						</g>
					</g>
				</g>
				<g id="text27">
					<g transform="translate(448.818977,121.203551)scale(0.120000)">
						<g>
							<path id="c_7a2040fe3b94fcd41d0a72c84e93b115_17_" d="M31.784-66.406c-5.07,0-8.895,2.499-11.45,7.499
								c-2.555,4.989-3.833,12.5-3.833,22.53c0,9.99,1.278,17.485,3.833,22.485c2.555,5.001,6.38,7.499,11.45,7.499
								c5.111,0,8.944-2.498,11.499-7.499c2.563-5.001,3.841-12.496,3.841-22.485c0-10.03-1.278-17.542-3.841-22.53
								C40.728-63.908,36.895-66.406,31.784-66.406 M31.784-74.219c8.179,0,14.421,3.235,18.734,9.705
								c4.313,6.458,6.47,15.837,6.47,28.137c0,12.272-2.157,21.643-6.47,28.113C46.205-1.807,39.963,1.42,31.784,1.42
								c-8.17,0-14.404-3.227-18.717-9.684c-4.313-6.47-6.47-15.841-6.47-28.113c0-12.301,2.156-21.68,6.47-28.137
								C17.38-70.984,23.614-74.219,31.784-74.219"/>
						</g>
						<g>
							<path id="c_ed3e21196fb739f392806f09ca0594ef_13_" d="M74.313-12.406h10.311V0H74.313V-12.406z"/>
						</g>
						<g>
							<path id="c_1260a2df50f305f3db244e29828f968e_5_" d="M106.206-72.909h38.721v8.313H115.24v17.859
								c1.424-0.488,2.856-0.85,4.281-1.091c1.44-0.24,2.873-0.362,4.313-0.362c8.138,0,14.575,2.23,19.328,6.689
								c4.761,4.46,7.145,10.494,7.145,18.107c0,7.845-2.449,13.944-7.332,18.298c-4.883,4.346-11.768,6.514-20.654,6.514
								c-3.06,0-6.185-0.26-9.359-0.781c-3.166-0.521-6.445-1.302-9.831-2.344v-9.92c2.93,1.595,5.957,2.779,9.082,3.56
								s6.421,1.172,9.904,1.172c5.632,0,10.091-1.477,13.371-4.435c3.296-2.958,4.94-6.978,4.94-12.064
								c0-5.07-1.644-9.086-4.94-12.044c-3.28-2.97-7.739-4.456-13.371-4.456c-2.637,0-5.265,0.293-7.894,0.875
								c-2.612,0.586-5.281,1.497-8.016,2.734V-72.909z"/>
						</g>
					</g>
				</g>
			</g>
			<g id="ytick10">
				<g id="line2d68">
					<g>
						<defs>
							<rect id="SVGID_59_" x="470.07" y="36.72" width="293.76" height="293.761"/>
						</defs>
						<clipPath id="SVGID_60_">
							<use xlink:href="#SVGID_59_"  overflow="visible"/>
						</clipPath>
						
							<path clip-path="url(#SVGID_60_)" fill="none" stroke="#000000" stroke-width="0.5" stroke-linejoin="round" stroke-dasharray="1,3" d="
							M470.07,50.073h293.76"/>
					</g>
				</g>
				<g id="line2d69">
					<g>
						<g>
							
								<path id="m3400efa6b1638b3fea9e19e898273957_9_" fill="none" stroke="#000000" stroke-width="0.5" stroke-linejoin="round" d="
								M470.07,50.073h4"/>
						</g>
					</g>
				</g>
				<g id="line2d70">
					<g>
						<g>
							
								<path id="m20b58b2501143cb5e0a5e8f1ef6f1643_9_" fill="none" stroke="#000000" stroke-width="0.5" stroke-linejoin="round" d="
								M763.829,50.073h-4"/>
						</g>
					</g>
				</g>
				<g id="text28">
					<g transform="translate(449.084602,54.439915)scale(0.120000)">
						<g>
							<path id="c_42baa63129a918535c52adb20d687ea7_5_" d="M12.407-8.297h16.113v-55.624l-17.537,3.516v-8.984l17.44-3.516h9.863
								v64.608h16.105V0H12.407V-8.297z"/>
						</g>
						<g>
							<path id="c_ed3e21196fb739f392806f09ca0594ef_14_" d="M74.313-12.407h10.311V0H74.313V-12.407z"/>
						</g>
						<g>
							<path id="c_7a2040fe3b94fcd41d0a72c84e93b115_18_" d="M127.194-66.407c-5.07,0-8.895,2.498-11.45,7.499
								c-2.555,4.989-3.833,12.5-3.833,22.534c0,9.985,1.278,17.48,3.833,22.481s6.38,7.499,11.45,7.499
								c5.111,0,8.944-2.499,11.499-7.499c2.563-5.001,3.841-12.496,3.841-22.481c0-10.034-1.278-17.546-3.841-22.534
								C136.138-63.908,132.305-66.407,127.194-66.407 M127.194-74.219c8.179,0,14.421,3.235,18.734,9.705
								c4.313,6.458,6.47,15.837,6.47,28.141c0,12.268-2.156,21.639-6.47,28.109c-4.313,6.458-10.555,9.684-18.734,9.684
								c-8.171,0-14.404-3.227-18.718-9.684c-4.313-6.47-6.47-15.841-6.47-28.109c0-12.305,2.157-21.684,6.47-28.141
								C112.79-70.984,119.024-74.219,127.194-74.219"/>
						</g>
					</g>
				</g>
			</g>
			<g id="text29">
				<g id="mathtext5">
					<g transform="translate(433.975227,186.600000)rotate(-90.0)">
						<g transform="translate(0.000000,-3.703125)scale(0.120000)">
							<path id="c_b1ccbd40de9466de4ee940ca0731021f_2_" d="M1.008-1.986c0.168,0.289,0.461,0.434,0.878,0.434
								c0.379,0,0.707-0.133,0.984-0.399c0.278-0.265,0.501-0.586,0.671-0.964c0.17-0.376,0.302-0.762,0.396-1.157
								c-0.355,0.337-0.74,0.505-1.155,0.505c-0.316,0-0.586-0.055-0.808-0.163c-0.223-0.11-0.396-0.273-0.52-0.489
								c-0.123-0.218-0.184-0.48-0.184-0.79c0-0.261,0.034-0.529,0.104-0.804c0.071-0.276,0.17-0.583,0.296-0.921
								C1.8-7.074,1.911-7.368,2.004-7.618C2.11-7.91,2.163-8.151,2.163-8.338c0-0.238-0.088-0.357-0.264-0.357
								c-0.316,0-0.578,0.163-0.783,0.489s-0.356,0.69-0.453,1.093c-0.016,0.052-0.049,0.077-0.1,0.077H0.422
								c-0.066,0-0.1-0.038-0.1-0.112v-0.034c0.129-0.478,0.326-0.9,0.59-1.27c0.268-0.368,0.604-0.553,1.01-0.553
								c0.285,0,0.525,0.094,0.723,0.281S2.942-8.298,2.942-8.01c0,0.149-0.033,0.306-0.099,0.469
								c-0.035,0.098-0.115,0.311-0.24,0.64C2.477-6.575,2.381-6.303,2.314-6.088c-0.066,0.216-0.12,0.427-0.163,0.634
								S2.086-5.041,2.086-4.833c0,0.265,0.057,0.489,0.17,0.673s0.293,0.275,0.54,0.275c0.496,0,0.941-0.302,1.335-0.907L5.04-8.49
								c0.026-0.106,0.088-0.197,0.186-0.272C5.325-8.838,5.43-8.876,5.543-8.876c0.098,0,0.183,0.031,0.255,0.094
								C5.87-8.72,5.906-8.638,5.906-8.536c0,0.046-0.003,0.077-0.011,0.094l-1.19,4.775C4.6-3.257,4.406-2.865,4.125-2.49
								s-0.62,0.677-1.016,0.905C2.712-1.356,2.299-1.241,1.87-1.241c-0.207,0-0.413-0.041-0.617-0.122
								c-0.202-0.08-0.366-0.2-0.491-0.36S0.574-2.071,0.574-2.285c0-0.219,0.064-0.408,0.193-0.568
								c0.13-0.159,0.302-0.239,0.516-0.239c0.13,0,0.239,0.04,0.326,0.12C1.696-2.894,1.741-2.789,1.741-2.66
								c0,0.184-0.069,0.344-0.207,0.48C1.397-2.043,1.239-1.974,1.055-1.974C1.047-1.978,1.04-1.981,1.032-1.984
								C1.024-1.985,1.016-1.986,1.008-1.986"/>
						</g>
					</g>
				</g>
			</g>
		</g>
		<g id="patch8">
			<path fill="none" stroke="#000000" stroke-linecap="square" stroke-linejoin="round" d="M470.07,36.72h293.76"/>
		</g>
		<g id="patch9">
			<path fill="none" stroke="#000000" stroke-linecap="square" stroke-linejoin="round" d="M763.829,330.48V36.72"/>
		</g>
		<g id="patch10">
			<path fill="none" stroke="#000000" stroke-linecap="square" stroke-linejoin="round" d="M470.07,330.48h293.76"/>
		</g>
		<g id="patch11">
			<path fill="none" stroke="#000000" stroke-linecap="square" stroke-linejoin="round" d="M470.07,330.48V36.72"/>
		</g>
		<g id="text30">
			<g transform="translate(513.100398,193.076562)scale(0.260000)">
				<g>
					<path id="c_f7a27dd75e8271b80b605f33cd79f506_7_" d="M24.705-5.17h9.281v5.168H5.516V-5.17h9.281v-62.502H5.516v-5.234h28.47
						v5.234h-9.281V-5.17z"/>
				</g>
			</g>
		</g>
		<g id="text31">
			<g transform="translate(574.731222,193.076562)scale(0.260000)">
				<g>
					<path id="c_f7a27dd75e8271b80b605f33cd79f506_8_" d="M24.705-5.17h9.281v5.168H5.516V-5.17h9.281v-62.502H5.516v-5.234h28.471
						v5.234h-9.281V-5.17z"/>
				</g>
				<g>
					<path id="c_f7a27dd75e8271b80b605f33cd79f506_9_" d="M64.207-5.17h9.281v5.168H45.018V-5.17h9.281v-62.502h-9.281v-5.234
						h28.471v5.234h-9.281V-5.17z"/>
				</g>
			</g>
		</g>
		<g id="text32">
			<g transform="translate(636.362045,193.076562)scale(0.260000)">
				<g>
					<path id="c_f7a27dd75e8271b80b605f33cd79f506_10_" d="M24.705-5.17h9.281v5.168H5.516V-5.17h9.281v-62.502H5.516v-5.234h28.471
						v5.234h-9.281V-5.17z"/>
				</g>
				<g>
					<path id="c_f7a27dd75e8271b80b605f33cd79f506_11_" d="M64.207-5.17h9.281v5.168H45.018V-5.17h9.281v-62.502h-9.281v-5.234
						h28.471v5.234h-9.281V-5.17z"/>
				</g>
				<g>
					<path id="c_f7a27dd75e8271b80b605f33cd79f506_12_" d="M103.709-5.17h9.281v5.168H84.52V-5.17h9.281v-62.502H84.52v-5.234
						h28.471v5.234h-9.281V-5.17z"/>
				</g>
			</g>
		</g>
		<g id="text33">
			<g transform="translate(703.102244,193.076562)scale(0.260000)">
				<g>
					<path id="c_f7a27dd75e8271b80b605f33cd79f506_13_" d="M24.706-5.17h9.281v5.168H5.516V-5.17h9.281v-62.502H5.516v-5.234h28.47
						v5.234h-9.281V-5.17z"/>
				</g>
				<g>
					<path id="c_77359844e15ba4a53c2a7ed465a2e7f0_1_" d="M56.989-67.672l21.529,55.951l21.484-55.951h-8.203v-5.234h21.391v5.234
						h-7.076L80.08-0.002h-8.406l-25.875-67.67H38.52v-5.234h26.577v5.234H56.989z"/>
				</g>
			</g>
		</g>
		<g id="text34">
			<g id="mathtext6">
				<g transform="translate(592.948977,34.720000)">
					<g transform="translate(0.000000,-3.375000)scale(0.144000)">
						<path id="c_b1ccbd40de9466de4ee940ca0731021f_3_" d="M1.211-1.314c0.201,0.347,0.553,0.52,1.054,0.52
							c0.454,0,0.848-0.16,1.181-0.479C3.778-1.592,4.046-1.977,4.251-2.43c0.204-0.452,0.362-0.914,0.475-1.388
							C4.299-3.415,3.837-3.213,3.339-3.213c-0.38,0-0.703-0.065-0.97-0.196C2.102-3.541,1.895-3.737,1.747-3.996
							C1.599-4.257,1.526-4.573,1.526-4.943c0-0.313,0.042-0.635,0.126-0.965c0.085-0.332,0.204-0.7,0.355-1.105
							c0.153-0.406,0.286-0.76,0.398-1.06c0.126-0.351,0.188-0.639,0.188-0.864c0-0.287-0.104-0.43-0.314-0.43
							c-0.381,0-0.694,0.196-0.94,0.587S0.912-7.951,0.794-7.468C0.777-7.407,0.737-7.375,0.675-7.375H0.506
							c-0.079,0-0.119-0.045-0.119-0.135v-0.041c0.154-0.573,0.391-1.081,0.709-1.523c0.319-0.442,0.723-0.664,1.21-0.664
							c0.343,0,0.632,0.113,0.869,0.337C3.412-9.176,3.531-8.89,3.531-8.543c0,0.179-0.04,0.366-0.119,0.562
							C3.37-7.864,3.273-7.608,3.124-7.214c-0.15,0.393-0.266,0.719-0.347,0.977C2.698-5.979,2.632-5.726,2.581-5.477
							C2.53-5.229,2.504-4.981,2.504-4.732c0,0.318,0.067,0.587,0.202,0.808c0.137,0.221,0.353,0.331,0.648,0.331
							c0.596,0,1.13-0.363,1.602-1.089L6.048-9.12C6.08-9.247,6.154-9.356,6.271-9.446c0.118-0.091,0.245-0.137,0.38-0.137
							c0.117,0,0.22,0.038,0.307,0.112c0.087,0.075,0.13,0.173,0.13,0.295c0,0.056-0.004,0.093-0.013,0.113l-1.43,5.73
							C5.519-2.84,5.288-2.37,4.951-1.919c-0.338,0.45-0.744,0.812-1.22,1.087C3.255-0.558,2.759-0.421,2.244-0.421
							c-0.249,0-0.496-0.049-0.74-0.146c-0.243-0.096-0.439-0.24-0.59-0.432C0.764-1.191,0.689-1.416,0.689-1.674
							c0-0.263,0.077-0.49,0.231-0.682C1.077-2.548,1.283-2.644,1.54-2.644c0.155,0,0.286,0.048,0.392,0.144
							c0.104,0.096,0.157,0.221,0.157,0.375c0,0.221-0.083,0.413-0.248,0.576C1.677-1.383,1.486-1.301,1.267-1.301
							C1.256-1.305,1.247-1.309,1.238-1.312C1.229-1.313,1.219-1.314,1.211-1.314"/>
					</g>
					<g transform="translate(9.581570,-3.375000)scale(0.144000)">
						<path id="c_7bbc93c01755cdeb977d08bdfb9ce616_1_" d="M10.665-5.288c-0.08,0-0.146-0.03-0.198-0.09
							c-0.052-0.062-0.077-0.127-0.077-0.198c0-0.08,0.025-0.147,0.077-0.203c0.052-0.057,0.118-0.085,0.198-0.085h9.042
							c0.07,0,0.132,0.028,0.183,0.085c0.053,0.056,0.078,0.123,0.078,0.203c0,0.07-0.025,0.136-0.078,0.198
							c-0.051,0.06-0.112,0.09-0.183,0.09H10.665z M10.665-8.087c-0.08,0-0.146-0.028-0.198-0.083
							c-0.052-0.057-0.077-0.125-0.077-0.205c0-0.071,0.025-0.136,0.077-0.196c0.052-0.062,0.118-0.092,0.198-0.092h9.042
							c0.07,0,0.132,0.031,0.183,0.092c0.053,0.06,0.078,0.125,0.078,0.196c0,0.079-0.025,0.147-0.078,0.205
							c-0.051,0.055-0.112,0.083-0.183,0.083H10.665z"/>
					</g>
					<g transform="translate(21.670862,-3.375000)scale(0.144000)">
						<path id="c_9dee543e61e1891a201a1f71acd5eb15" d="M22.15-3.332v-2.349c0-0.075,0.042-0.112,0.126-0.112h0.176
							c0.056,0,0.093,0.038,0.112,0.112c0.268,1.392,0.914,2.088,1.939,2.088c0.456,0,0.837-0.103,1.144-0.309
							c0.308-0.207,0.461-0.525,0.461-0.956c0-0.311-0.12-0.575-0.359-0.792c-0.239-0.218-0.522-0.366-0.851-0.446l-0.964-0.191
							c-0.322-0.071-0.616-0.178-0.882-0.322c-0.264-0.146-0.48-0.339-0.649-0.581c-0.169-0.242-0.253-0.522-0.253-0.842
							c0-0.421,0.111-0.766,0.333-1.035c0.223-0.27,0.511-0.465,0.867-0.585c0.356-0.12,0.741-0.18,1.153-0.18
							c0.494,0,0.923,0.131,1.287,0.394l0.417-0.357c0-0.024,0.022-0.036,0.069-0.036h0.105c0.028,0,0.055,0.014,0.077,0.041
							c0.023,0.025,0.035,0.052,0.035,0.079v1.886c0,0.088-0.037,0.133-0.112,0.133h-0.175c-0.086,0-0.129-0.044-0.129-0.133
							c0-0.502-0.14-0.906-0.418-1.21c-0.277-0.305-0.668-0.457-1.17-0.457c-0.431,0-0.805,0.081-1.121,0.241
							c-0.316,0.159-0.475,0.433-0.475,0.821c0,0.267,0.113,0.486,0.34,0.657c0.228,0.171,0.494,0.294,0.799,0.369l0.977,0.184
							c0.328,0.075,0.635,0.202,0.918,0.38c0.283,0.177,0.509,0.402,0.675,0.675c0.167,0.271,0.25,0.578,0.25,0.92
							c0,0.347-0.061,0.648-0.181,0.905c-0.118,0.255-0.284,0.467-0.499,0.637c-0.213,0.168-0.465,0.292-0.756,0.371
							c-0.29,0.08-0.594,0.119-0.914,0.119c-0.6,0-1.112-0.202-1.538-0.605l-0.527,0.569c0,0.024-0.025,0.036-0.078,0.036h-0.084
							C22.192-3.213,22.15-3.253,22.15-3.332"/>
					</g>
					<g transform="translate(27.341379,-3.375000)scale(0.144000)">
						<path id="c_47bb69df3dc90fb95dede367e92e714c" d="M27.785-3.375v-0.506c0.329,0,0.598-0.025,0.808-0.077
							c0.212-0.052,0.317-0.179,0.317-0.38v-3.931c0-0.371-0.071-0.598-0.216-0.682c-0.143-0.084-0.425-0.126-0.846-0.126v-0.506
							l2.074-0.155v5.4c0,0.201,0.092,0.328,0.274,0.38c0.183,0.051,0.427,0.077,0.731,0.077v0.506H27.785z M28.397-12.213
							c0-0.211,0.079-0.396,0.238-0.556s0.342-0.238,0.549-0.238c0.135,0,0.266,0.035,0.392,0.105
							c0.128,0.069,0.227,0.167,0.297,0.295c0.071,0.126,0.106,0.257,0.106,0.394c0,0.206-0.081,0.389-0.241,0.549
							c-0.159,0.159-0.344,0.238-0.554,0.238c-0.207,0-0.39-0.08-0.549-0.238C28.476-11.825,28.397-12.008,28.397-12.213"/>
					</g>
					<g transform="translate(31.325494,-3.375000)scale(0.144000)">
						<path id="c_f29dbb720c0206d930ab49b6b497324a" d="M31.755-3.375v-0.506c0.327,0,0.597-0.025,0.808-0.077
							c0.212-0.052,0.317-0.179,0.317-0.38v-3.931c0-0.258-0.039-0.444-0.117-0.558c-0.076-0.115-0.188-0.186-0.333-0.211
							s-0.37-0.038-0.675-0.038v-0.506l2.088-0.155v1.406c0.192-0.413,0.477-0.75,0.853-1.012c0.379-0.263,0.79-0.394,1.235-0.394
							c0.666,0,1.167,0.16,1.501,0.479c0.336,0.318,0.504,0.805,0.504,1.46v3.46c0,0.201,0.105,0.328,0.315,0.38
							c0.211,0.051,0.481,0.077,0.81,0.077v0.506h-3.298v-0.506c0.328,0,0.598-0.025,0.808-0.077
							c0.211-0.052,0.317-0.179,0.317-0.38v-3.417c0-0.468-0.068-0.854-0.205-1.157c-0.135-0.303-0.414-0.455-0.837-0.455
							c-0.557,0-1.015,0.223-1.375,0.668c-0.358,0.445-0.538,0.952-0.538,1.519v2.842c0,0.201,0.106,0.328,0.317,0.38
							c0.212,0.051,0.479,0.077,0.801,0.077v0.506H31.755z"/>
					</g>
					<g transform="translate(39.314813,-3.375000)scale(0.144000)">
						<path id="c_277960698c3e9ebfcde4d2161536ce57_3_" d="M40.44-3.789c0.17,0.13,0.409,0.196,0.718,0.196
							c0.3,0,0.564-0.144,0.794-0.432s0.387-0.603,0.471-0.945l0.654-2.554c0.104-0.463,0.155-0.78,0.155-0.949
							c0-0.239-0.066-0.447-0.2-0.625c-0.133-0.179-0.32-0.268-0.56-0.268c-0.305,0-0.591,0.095-0.857,0.286
							c-0.268,0.19-0.492,0.432-0.675,0.724c-0.184,0.292-0.312,0.589-0.388,0.889c-0.018,0.062-0.056,0.093-0.112,0.093h-0.176
							c-0.074,0-0.112-0.045-0.112-0.135v-0.041c0.093-0.357,0.252-0.705,0.478-1.044c0.225-0.34,0.5-0.616,0.825-0.826
							c0.327-0.211,0.676-0.317,1.047-0.317c0.351,0,0.668,0.094,0.951,0.281c0.284,0.188,0.484,0.442,0.601,0.765
							c0.165-0.294,0.375-0.542,0.631-0.743c0.255-0.203,0.534-0.304,0.839-0.304c0.207,0,0.418,0.037,0.632,0.11
							c0.217,0.072,0.393,0.183,0.529,0.333s0.204,0.337,0.204,0.562c0,0.243-0.078,0.453-0.235,0.63
							c-0.158,0.175-0.358,0.263-0.602,0.263c-0.154,0-0.283-0.049-0.387-0.148s-0.155-0.224-0.155-0.374
							c0-0.201,0.069-0.377,0.207-0.529c0.14-0.153,0.306-0.244,0.497-0.272C46.04-9.299,45.8-9.367,45.496-9.367
							c-0.309,0-0.577,0.144-0.806,0.43c-0.227,0.286-0.387,0.605-0.481,0.956l-0.632,2.545c-0.104,0.385-0.155,0.702-0.155,0.949
							c0,0.245,0.069,0.455,0.207,0.63c0.138,0.176,0.322,0.264,0.554,0.264c0.449,0,0.851-0.198,1.203-0.594
							c0.354-0.396,0.588-0.831,0.7-1.305c0.02-0.055,0.057-0.083,0.112-0.083h0.178c0.037,0,0.067,0.013,0.09,0.038
							c0.024,0.025,0.036,0.055,0.036,0.088c0,0.009-0.005,0.023-0.014,0.043c-0.136,0.571-0.423,1.08-0.859,1.525
							c-0.435,0.445-0.927,0.668-1.476,0.668c-0.352,0-0.669-0.094-0.952-0.283c-0.283-0.19-0.484-0.448-0.603-0.772
							c-0.15,0.282-0.358,0.529-0.624,0.74c-0.264,0.21-0.546,0.315-0.846,0.315c-0.205,0-0.418-0.037-0.637-0.11
							c-0.218-0.072-0.395-0.183-0.531-0.333c-0.135-0.15-0.202-0.339-0.202-0.569c0-0.225,0.078-0.43,0.234-0.614
							c0.157-0.186,0.354-0.279,0.589-0.279c0.159,0,0.293,0.048,0.4,0.144c0.108,0.096,0.162,0.221,0.162,0.376
							c0,0.202-0.067,0.378-0.202,0.529C40.808-3.92,40.641-3.827,40.44-3.789"/>
					</g>
				</g>
			</g>
		</g>
	</g>
</g>
</svg>
