<?xml version="1.0" encoding="UTF-8" standalone="no"?>
<svg
   xmlns:dc="http://purl.org/dc/elements/1.1/"
   xmlns:cc="http://creativecommons.org/ns#"
   xmlns:rdf="http://www.w3.org/1999/02/22-rdf-syntax-ns#"
   xmlns:svg="http://www.w3.org/2000/svg"
   xmlns="http://www.w3.org/2000/svg"
   xmlns:sodipodi="http://sodipodi.sourceforge.net/DTD/sodipodi-0.dtd"
   xmlns:inkscape="http://www.inkscape.org/namespaces/inkscape"
   version="1.0"
   width="724"
   height="724"
   id="Unit circle angles"
   inkscape:version="0.48.0 r9654"
   sodipodi:docname="Unit_circle_angles.svg">
  <metadata
     id="metadata3693">
    <rdf:RDF>
      <cc:Work
         rdf:about="">
        <dc:format>image/svg+xml</dc:format>
        <dc:type
           rdf:resource="http://purl.org/dc/dcmitype/StillImage" />
        <dc:title></dc:title>
      </cc:Work>
    </rdf:RDF>
  </metadata>
  <defs
     id="defs3691" />
  <sodipodi:namedview
     pagecolor="#ffffff"
     bordercolor="#666666"
     borderopacity="1"
     objecttolerance="10"
     gridtolerance="10"
     guidetolerance="10"
     inkscape:pageopacity="0"
     inkscape:pageshadow="2"
     inkscape:window-width="1024"
     inkscape:window-height="707"
     id="namedview3689"
     showgrid="false"
     inkscape:zoom="0.5"
     inkscape:cx="344.92228"
     inkscape:cy="349.12557"
     inkscape:window-x="0"
     inkscape:window-y="0"
     inkscape:window-maximized="1"
     inkscape:current-layer="Unit circle angles" />
  <g
     id="g3978"
     transform="translate(17.077722,-8.8744275)">
    <path
       id="path90"
       style="fill:#000000;stroke:none"
       d="m 685.66012,361.05403 19.50862,-6.96911 -19.50862,-6.96912 7.80485,6.96912"
       inkscape:connector-curvature="0" />
    <path
       id="path92"
       style="fill:none;stroke:#000000;stroke-width:1.74000001"
       d="m -14.454184,354.08492 707.919154,0"
       inkscape:connector-curvature="0" />
    <path
       id="path94"
       style="fill:#000000;stroke:none"
       d="m 363.22415,35.589834 -6.96911,-19.508619 -6.96911,19.508619 6.96911,-7.804846"
       inkscape:connector-curvature="0" />
    <path
       id="path96"
       style="fill:none;stroke:#000000;stroke-width:1.74000001"
       d="m 356.25854,724.79764 0,-697.012652"
       inkscape:connector-curvature="0" />
    <path
       id="path100"
       style="fill:#000000;stroke:none"
       d="m 580.78774,353.87511 c 0,-3.37791 -2.74148,-6.11939 -6.11939,-6.11939 -3.3779,0 -6.11939,2.74148 -6.11939,6.11939 0,3.3779 2.74149,6.11939 6.11939,6.11939 3.37791,0 6.11939,-2.74149 6.11939,-6.11939"
       inkscape:connector-curvature="0" />
    <path
       id="path108"
       style="fill:#000000;stroke:none"
       d="m 362.58774,136.02478 c 0,-3.37825 -2.74149,-6.11939 -6.11939,-6.11939 -3.37791,0 -6.1194,2.74114 -6.1194,6.11939 0,3.3779 2.74149,6.11939 6.1194,6.11939 3.3779,0 6.11939,-2.74149 6.11939,-6.11939"
       inkscape:connector-curvature="0" />
    <path
       id="path116"
       style="fill:#000000;stroke:none"
       d="m 144.38773,353.87511 c 0,-3.37791 -2.74149,-6.11939 -6.11939,-6.11939 -3.37791,0 -6.11939,2.74148 -6.11939,6.11939 0,3.3779 2.74148,6.11939 6.11939,6.11939 3.3779,0 6.11939,-2.74149 6.11939,-6.11939"
       inkscape:connector-curvature="0" />
    <path
       id="path124"
       style="fill:#000000;stroke:none"
       d="m 362.58774,572.07512 c 0,-3.37791 -2.74149,-6.11939 -6.11939,-6.11939 -3.37791,0 -6.1194,2.74148 -6.1194,6.11939 0,3.3779 2.74149,6.11939 6.1194,6.11939 3.3779,0 6.11939,-2.74149 6.11939,-6.11939"
       inkscape:connector-curvature="0" />
    <path
       id="path132"
       style="fill:#000000;stroke:none"
       d="m 601.83146,349.16143 c 0,-0.0944 0,-0.15736 -0.53152,-0.68887 -3.9199,-3.95138 -4.94796,-9.87495 -4.94796,-14.67255 0,-5.4515 1.1994,-10.9065 5.07385,-14.82991 0.40912,-0.37416 0.40912,-0.44059 0.40912,-0.52801 0,-0.2203 -0.12588,-0.2273 -0.31471,-0.2273 -0.31471,0 -3.13662,2.09808 -4.98643,6.02848 -1.59454,3.44434 -1.93372,6.92715 -1.93372,9.56024 0,2.44426 0.33918,6.23828 2.02464,9.78403 1.88128,3.85696 4.5773,5.74873 4.89202,5.74873 0.18882,0 0.31471,-0.049 0.31471,-0.16785"
       inkscape:connector-curvature="0" />
    <path
       id="path134"
       style="fill:#000000;stroke:none"
       d="m 612.43374,321.57172 c 0,-0.75181 0.12588,-0.91616 -0.59446,-0.91616 -1.94421,2.10507 -4.70318,2.09807 -5.70677,2.09807 l 0,1.04904 c 0.63992,0 2.53518,-0.0699 4.20315,-0.88469 l 0,16.24262 c 0,1.12946 -0.0979,1.42669 -3.01074,1.42669 l -1.00358,0 0,1.04554 c 1.098,-0.0909 3.8255,-0.0909 5.08084,-0.0909 1.25535,0 3.98285,0 5.08085,0.0909 l 0,-1.04554 -1.00358,0 c -2.82192,0 -3.04221,-0.3287 -3.04221,-1.42669"
       inkscape:connector-curvature="0" />
    <path
       id="path136"
       style="fill:#000000;stroke:none"
       d="m 625.37188,341.60486 c 0,-2.07011 -0.75531,-3.46533 -1.93722,-3.46533 -1.03505,0 -1.66098,0.86721 -1.66098,1.83582 0,0.84622 0.62593,1.66098 1.66098,1.66098 0.37765,0 0.78328,-0.12589 1.09799,-0.40913 0.0944,-0.0629 0.12588,-0.0944 0.15736,-0.0944 0.0315,0 -0.0175,0.0315 -0.0175,0.46857 0,2.32187 -1.05603,4.19965 -2.05262,5.2347 -0.34618,0.34618 -0.34618,0.40913 -0.34618,0.50004 0,0.2203 0.15736,0.23429 0.31471,0.23429 0.34618,0 2.78345,-2.37083 2.78345,-5.97603"
       inkscape:connector-curvature="0" />
    <path
       id="path138"
       style="fill:#000000;stroke:none"
       d="m 647.40169,331.60402 c 0,-2.5072 -0.14687,-5.0179 -1.16793,-7.33627 -1.44068,-3.01074 -4.01432,-3.61219 -5.32912,-3.61219 -1.88127,0 -4.17167,0.83573 -5.455,3.82899 -1.00358,2.16451 -0.9826,4.60877 -0.9826,7.11597 0,2.34985 0.10841,5.17176 1.23437,7.55658 1.34977,2.53867 3.63667,3.1681 5.17176,3.1681 1.69245,0 4.07727,-0.6574 5.455,-3.63667 1.00358,-2.16452 1.07352,-4.60878 1.07352,-7.08451 z m -6.52852,10.02182 c -1.22388,0 -3.07368,-0.78329 -3.63666,-3.78354 -0.34619,-1.87778 -0.32521,-4.76263 -0.32521,-6.61244 0,-2.00716 -0.021,-4.07726 0.23079,-5.76971 0.59446,-3.73143 2.9478,-4.10174 3.73108,-4.10174 1.03505,0 3.10516,0.57697 3.69961,3.75906 0.31471,1.75539 0.38115,4.1402 0.38115,6.11239 0,2.34635 -0.0699,4.4829 -0.41262,6.49006 -0.46857,2.97577 -2.25893,3.90592 -3.66814,3.90592"
       inkscape:connector-curvature="0" />
    <path
       id="path140"
       style="fill:#000000;stroke:none"
       d="m 658.24175,333.79651 c 0,-2.44426 -0.34968,-6.23828 -2.09807,-9.78403 -1.88128,-3.85347 -4.57731,-5.80818 -4.89202,-5.80818 -0.18883,0 -0.31471,0.0909 -0.31471,0.22729 0,0.0944 0,0.15736 0.59445,0.71999 3.07369,3.10516 4.96196,8.08844 4.96196,14.64144 0,5.36058 -1.18192,10.87852 -5.14729,14.8299 -0.40912,0.37766 -0.40912,0.4406 -0.40912,0.53152 0,0.18882 0.12588,0.16784 0.31471,0.16784 0.31471,0 3.13663,-2.08059 4.98643,-5.96903 1.59804,-3.44784 2.00716,-6.93064 2.00716,-9.56373"
       inkscape:connector-curvature="0" />
    <path
       id="path142"
       style="fill:#000000;stroke:none"
       d="m 371.04299,114.52648 c 0,-0.0944 0,-0.15735 -0.53152,-0.68886 -3.9199,-3.95138 -4.94796,-9.87495 -4.94796,-14.669059 0,-5.455 1.1994,-10.91 5.07385,-14.830257 0.40912,-0.377304 0.40912,-0.440247 0.40912,-0.531163 0,-0.220298 -0.12588,-0.227292 -0.31471,-0.227292 -0.31471,0 -3.13662,2.101574 -4.98643,6.028475 -1.59454,3.447839 -1.93372,6.930647 -1.93372,9.563734 0,2.444262 0.33918,6.234782 2.02464,9.780182 1.88128,3.85732 4.5773,5.74908 4.89202,5.74908 0.18882,0 0.31471,-0.0489 0.31471,-0.16784"
       inkscape:connector-curvature="0" />
    <path
       id="path144"
       style="fill:#000000;stroke:none"
       d="m 387.24014,96.969077 c 0,-2.507202 -0.14686,-5.01825 -1.16793,-7.336276 -1.44068,-3.01074 -4.01432,-3.612189 -5.32911,-3.612189 -1.88128,0 -4.17168,0.835734 -5.455,3.82899 -1.00358,2.164517 -0.9826,4.608776 -0.9826,7.115978 0,2.349847 0.1084,5.17176 1.23437,7.55657 1.34976,2.53868 3.63666,3.1681 5.17176,3.1681 1.69244,0 4.07726,-0.6574 5.455,-3.63702 1.00358,-2.16416 1.07351,-4.608422 1.07351,-7.084153 z m -6.52851,10.021813 c -1.22388,0 -3.07369,-0.78328 -3.63667,-3.78353 -0.34618,-1.88128 -0.3252,-4.762635 -0.3252,-6.615937 0,-2.003663 -0.021,-4.073766 0.23078,-5.766215 0.59446,-3.73108 2.9478,-4.10174 3.73109,-4.10174 1.03505,0 3.10515,0.576971 3.6996,3.759054 0.31472,1.755391 0.38116,4.140206 0.38116,6.108901 0,2.349846 -0.0699,4.482887 -0.41263,6.490047 -0.46857,2.97927 -2.25893,3.90942 -3.66813,3.90942"
       inkscape:connector-curvature="0" />
    <path
       id="path146"
       style="fill:#000000;stroke:none"
       d="m 394.93309,106.96991 c 0,-2.0701 -0.75531,-3.46532 -1.93722,-3.46532 -1.03506,0 -1.66098,0.86685 -1.66098,1.83581 0,0.84623 0.62592,1.66098 1.66098,1.66098 0.37765,0 0.78328,-0.12588 1.09799,-0.40912 0.0944,-0.063 0.12588,-0.0944 0.15736,-0.0944 0.0315,0 -0.0175,0.0315 -0.0175,0.46857 0,2.32188 -1.05603,4.19965 -2.05262,5.23471 -0.34618,0.34268 -0.34618,0.40912 -0.34618,0.49654 0,0.2203 0.15736,0.23778 0.31471,0.23778 0.34618,0 2.78345,-2.37117 2.78345,-5.97602"
       inkscape:connector-curvature="0" />
    <path
       id="path148"
       style="fill:#000000;stroke:none"
       d="m 411.71771,86.936772 c 0,-0.751811 0.12588,-0.91616 -0.59446,-0.91616 -1.94422,2.105071 -4.70319,2.098077 -5.70677,2.098077 l 0,1.049038 c 0.63992,0 2.53518,-0.06994 4.20315,-0.884689 l 0,16.242612 c 0,1.12947 -0.0979,1.42669 -3.01074,1.42669 l -1.00358,0 0,1.04555 c 1.09799,-0.0948 3.82549,-0.0948 5.08084,-0.0948 1.25535,0 3.98285,0 5.08085,0.0948 l 0,-1.04555 -1.00359,0 c -2.82191,0 -3.04221,-0.3287 -3.04221,-1.42669"
       inkscape:connector-curvature="0" />
    <path
       id="path150"
       style="fill:#000000;stroke:none"
       d="m 427.80296,99.161568 c 0,-2.44426 -0.34968,-6.238283 -2.09807,-9.784033 -1.88128,-3.856965 -4.57731,-5.808176 -4.89202,-5.808176 -0.18883,0 -0.31471,0.09092 -0.31471,0.227291 0,0.09441 0,0.157356 0.59445,0.72034 3.07369,3.105154 4.96196,8.088087 4.96196,14.641081 0,5.360589 -1.18192,10.878529 -5.14729,14.829559 -0.40912,0.378 -0.40912,0.44094 -0.40912,0.53186 0,0.18883 0.12588,0.16785 0.31471,0.16785 0.31471,0 3.13663,-2.0806 4.98643,-5.96903 1.59804,-3.44784 2.00716,-6.93065 2.00716,-9.563736"
       inkscape:connector-curvature="0" />
    <path
       id="path152"
       style="fill:#000000;stroke:none"
       d="m 33.251891,349.86079 c 0,-0.0944 0,-0.15736 -0.531163,-0.68887 -3.919208,-3.94788 -4.947266,-9.87495 -4.947266,-14.66906 0,-5.455 1.198701,-10.91 5.07385,-14.8299 0.408775,-0.37766 0.408775,-0.4406 0.408775,-0.53152 0,-0.22029 -0.125535,-0.22729 -0.314012,-0.22729 -0.314362,0 -3.136625,2.10158 -4.985731,6.02848 -1.597336,3.44784 -1.933727,6.93064 -1.933727,9.56373 0,2.44426 0.338839,6.23828 2.023945,9.78054 1.880926,3.85696 4.576955,5.74873 4.892016,5.74873 0.188477,0 0.314012,-0.049 0.314012,-0.16785"
       inkscape:connector-curvature="0" />
    <path
       id="path154"
       style="fill:#000000;stroke:none"
       d="m 55.838389,335.3421 c 0.440596,0 0.954625,-0.21681 0.954625,-0.84623 0,-0.62593 -0.548997,-0.55249 -0.954625,-0.55249 l -17.088837,0 c -0.440247,0 -1.188211,-0.0734 -1.188211,0.55249 0,0.62593 0.684672,0.84623 1.188211,0.84623"
       inkscape:connector-curvature="0" />
    <path
       id="path156"
       style="fill:#000000;stroke:none"
       d="m 68.681767,322.27108 c 0,-0.75216 0.125186,-0.91616 -0.594455,-0.91616 -1.943868,2.10507 -4.702839,2.09807 -5.70607,2.09807 l 0,1.04904 c 0.639564,0 2.534477,-0.0699 4.202798,-0.88469 l 0,16.24261 c 0,1.12947 -0.09721,1.4267 -3.010041,1.4267 l -1.003231,0 0,1.04554 c 1.097994,-0.0909 3.825494,-0.0909 5.080494,-0.0909 1.255,0 3.9825,0 5.080493,0.0909 l 0,-1.04554 -1.00323,0 c -2.821564,0 -3.041862,-0.3287 -3.041862,-1.4267"
       inkscape:connector-curvature="0" />
    <path
       id="path158"
       style="fill:#000000;stroke:none"
       d="m 81.969588,342.30421 c 0,-2.0701 -0.754608,-3.46532 -1.937224,-3.46532 -1.034702,0 -1.660278,0.86721 -1.660278,1.83582 0,0.84622 0.625576,1.66098 1.660278,1.66098 0.377654,0 0.782932,-0.12589 1.097994,-0.40913 0.09406,-0.0629 0.125534,-0.0944 0.157006,-0.0944 0.03077,0 -0.01678,0.0315 -0.01678,0.46857 0,2.32187 -1.055333,4.19965 -2.052619,5.2347 -0.345483,0.34618 -0.345483,0.40912 -0.345483,0.49654 0,0.2203 0.157006,0.23779 0.314012,0.23779 0.345833,0 2.783099,-2.37083 2.783099,-5.97603"
       inkscape:connector-curvature="0" />
    <path
       id="path160"
       style="fill:#000000;stroke:none"
       d="m 103.99975,332.30338 c 0,-2.5072 -0.14687,-5.0179 -1.16793,-7.33628 -1.44068,-3.01109 -4.014324,-3.61218 -5.329119,-3.61218 -1.881275,0 -4.170977,0.83573 -5.4543,3.82899 -1.002881,2.16451 -0.981551,4.60877 -0.981551,7.11597 0,2.34985 0.107352,5.17176 1.23332,7.55658 1.349763,2.53867 3.635967,3.16809 5.17106,3.16809 1.692449,0 4.07726,-0.65739 5.455,-3.63666 1.00358,-2.16452 1.07352,-4.60878 1.07352,-7.08451 z m -6.52852,10.02182 c -1.223878,0 -3.074032,-0.78329 -3.636667,-3.78354 -0.345833,-1.87778 -0.324502,-4.76263 -0.324502,-6.61244 0,-2.00716 -0.02063,-4.07726 0.230439,-5.76971 0.594105,-3.73108 2.947448,-4.10174 3.73073,-4.10174 1.035052,0 3.10515,0.57697 3.69961,3.75906 0.31471,1.75539 0.38115,4.1402 0.38115,6.11239 0,2.34635 -0.0699,4.48289 -0.41262,6.48656 -0.46857,2.97927 -2.258931,3.90942 -3.66814,3.90942"
       inkscape:connector-curvature="0" />
    <path
       id="path162"
       style="fill:#000000;stroke:none"
       d="m 114.49013,334.49587 c 0,-2.44426 -0.34968,-6.23828 -2.09808,-9.78403 -1.88127,-3.85347 -4.5773,-5.80818 -4.89201,-5.80818 -0.18883,0 -0.31471,0.0909 -0.31471,0.22729 0,0.0944 0,0.15701 0.59445,0.72034 3.07368,3.10516 4.96195,8.08809 4.96195,14.64108 0,5.36059 -1.18191,10.87853 -5.14728,14.82991 -0.40912,0.37766 -0.40912,0.4406 -0.40912,0.53151 0,0.18883 0.12588,0.16785 0.31471,0.16785 0.31471,0 3.13662,-2.08059 4.98643,-5.96903 1.59803,-3.44784 2.00716,-6.93065 2.00716,-9.56373"
       inkscape:connector-curvature="0" />
    <path
       id="path164"
       style="fill:#000000;stroke:none"
       d="m 372.79138,624.3592 c 0,-0.0944 0,-0.15736 -0.53151,-0.68887 -3.91991,-3.94788 -4.94796,-9.87495 -4.94796,-14.66906 0,-5.455 1.1994,-10.91 5.07385,-14.82991 0.40912,-0.37765 0.40912,-0.44059 0.40912,-0.53151 0,-0.2203 -0.12588,-0.22729 -0.31471,-0.22729 -0.31471,0 -3.13663,2.10157 -4.98643,6.02847 -1.59454,3.44784 -1.93373,6.93065 -1.93373,9.56374 0,2.44426 0.33919,6.23828 2.02465,9.78053 1.88127,3.85697 4.5773,5.74874 4.89201,5.74874 0.18883,0 0.31471,-0.049 0.31471,-0.16785"
       inkscape:connector-curvature="0" />
    <path
       id="path166"
       style="fill:#000000;stroke:none"
       d="m 388.63886,606.80179 c 0,-2.5072 -0.14687,-5.0179 -1.16793,-7.33628 -1.44068,-3.01074 -4.01432,-3.61219 -5.32912,-3.61219 -1.88127,0 -4.17167,0.83574 -5.455,3.82899 -1.00358,2.16452 -0.9826,4.60878 -0.9826,7.11598 0,2.34985 0.10841,5.17176 1.23437,7.55658 1.34977,2.53867 3.63667,3.16809 5.17176,3.16809 1.69245,0 4.07727,-0.6574 5.455,-3.63667 1.00358,-2.16451 1.07352,-4.60877 1.07352,-7.0845 z m -6.52852,10.02181 c -1.22388,0 -3.07368,-0.78328 -3.63666,-3.78353 -0.34619,-1.87778 -0.32521,-4.76263 -0.32521,-6.61244 0,-2.00716 -0.021,-4.07726 0.23079,-5.76971 0.59446,-3.73108 2.9478,-4.10174 3.73108,-4.10174 1.03505,0 3.10516,0.57697 3.69961,3.75905 0.31471,1.75539 0.38115,4.14021 0.38115,6.1124 0,2.34635 -0.0699,4.48289 -0.41262,6.48656 -0.46857,2.97927 -2.25893,3.90941 -3.66814,3.90941"
       inkscape:connector-curvature="0" />
    <path
       id="path168"
       style="fill:#000000;stroke:none"
       d="m 396.68149,616.80262 c 0,-2.0701 -0.75531,-3.46532 -1.93723,-3.46532 -1.03505,0 -1.66097,0.8672 -1.66097,1.83582 0,0.84622 0.62592,1.66097 1.66097,1.66097 0.37766,0 0.78329,-0.12588 1.098,-0.40912 0.0944,-0.0629 0.12588,-0.0944 0.15735,-0.0944 0.0315,0 -0.0175,0.0315 -0.0175,0.46858 0,2.32187 -1.05603,4.19965 -2.05262,5.2347 -0.34618,0.34618 -0.34618,0.40912 -0.34618,0.49654 0,0.2203 0.15735,0.23778 0.31471,0.23778 0.34618,0 2.78345,-2.37082 2.78345,-5.97602"
       inkscape:connector-curvature="0" />
    <path
       id="path170"
       style="fill:#000000;stroke:none"
       d="m 425.09994,609.8405 c 0.4406,0 0.95463,-0.2168 0.95463,-0.84622 0,-0.62593 -0.549,-0.5525 -0.95463,-0.5525 l -17.08884,0 c -0.44059,0 -1.18891,-0.0734 -1.18891,0.5525 0,0.62592 0.68538,0.84622 1.18891,0.84622"
       inkscape:connector-curvature="0" />
    <path
       id="path172"
       style="fill:#000000;stroke:none"
       d="m 437.94367,596.76948 c 0,-0.75181 0.12588,-0.91616 -0.59446,-0.91616 -1.94421,2.10507 -4.70319,2.09808 -5.70677,2.09808 l 0,1.04904 c 0.63992,0 2.53518,-0.0699 4.20315,-0.88469 l 0,16.24261 c 0,1.12947 -0.0979,1.42669 -3.01074,1.42669 l -1.00358,0 0,1.04555 c 1.09799,-0.0909 3.8255,-0.0909 5.08084,-0.0909 1.25535,0 3.98285,0 5.08085,0.0909 l 0,-1.04555 -1.00358,0 c -2.82192,0 -3.04221,-0.32869 -3.04221,-1.42669"
       inkscape:connector-curvature="0" />
    <path
       id="path174"
       style="fill:#000000;stroke:none"
       d="m 453.67925,608.99428 c 0,-2.44426 -0.34968,-6.23828 -2.09808,-9.78403 -1.88128,-3.85347 -4.57731,-5.80818 -4.89202,-5.80818 -0.18882,0 -0.31471,0.0909 -0.31471,0.22729 0,0.0944 0,0.15736 0.59446,0.72034 3.07368,3.10516 4.96195,8.08809 4.96195,14.64108 0,5.36059 -1.18192,10.87853 -5.14728,14.82991 -0.40913,0.37765 -0.40913,0.4406 -0.40913,0.53151 0,0.18883 0.12589,0.16785 0.31471,0.16785 0.31471,0 3.13663,-2.08059 4.98643,-5.96903 1.59804,-3.44784 2.00716,-6.93065 2.00716,-9.56374"
       inkscape:connector-curvature="0" />
    <g
       transform="translate(-58,0)"
       id="g3756">
      <path
         inkscape:connector-curvature="0"
         d="m 527.93919,339.29697 c 0,-2.5072 -0.14687,-5.0179 -1.16793,-7.33628 -1.44068,-3.01074 -4.01432,-3.61218 -5.32912,-3.61218 -1.88127,0 -4.17168,0.83573 -5.455,3.82899 -1.00358,2.16451 -0.9826,4.60877 -0.9826,7.11597 0,2.34985 0.1084,5.17176 1.23437,7.55658 1.34976,2.53867 3.63667,3.16809 5.17176,3.16809 1.69245,0 4.07726,-0.65739 5.455,-3.63666 1.00358,-2.16452 1.07352,-4.60878 1.07352,-7.08451 z m -6.52852,10.02182 c -1.22388,0 -3.07368,-0.78329 -3.63667,-3.78354 -0.34618,-1.87778 -0.3252,-4.76263 -0.3252,-6.61244 0,-2.00716 -0.021,-4.07726 0.23079,-5.76971 0.59445,-3.73108 2.9478,-4.10174 3.73108,-4.10174 1.03505,0 3.10515,0.57697 3.69961,3.75906 0.31471,1.75539 0.38115,4.1402 0.38115,6.11239 0,2.34635 -0.0699,4.48289 -0.41262,6.48656 -0.46857,2.97927 -2.25893,3.90942 -3.66814,3.90942"
         style="fill:#000000;stroke:none"
         id="path400" />
      <path
         inkscape:connector-curvature="0"
         d="m 486.19944,339.77603 c 0,-1.95121 -0.11889,-3.90242 -0.94763,-5.70677 -1.12247,-2.33935 -3.12264,-2.57364 -4.1472,-2.57364 -1.46166,0 -3.24503,0.60145 -4.24161,2.74499 -0.77979,1.68195 -0.80427,3.58421 -0.80427,5.53542 0,1.82883 0.0874,4.02481 1.00009,5.87811 1.04904,1.97569 2.82891,2.46175 4.02481,2.46175 1.31829,0 3.17159,-0.51053 4.24161,-2.82891 0.77979,-1.68196 0.8742,-3.58421 0.8742,-5.51095 z m -5.11931,7.6405 c -0.95113,0 -2.38831,-0.57697 -2.82891,-2.78695 -0.26925,-1.46166 -0.0979,-3.7066 -0.0979,-5.14378 0,-1.55957 -0.17134,-3.1716 0.0245,-4.48639 0.46158,-2.90234 2.2939,-2.80093 2.90234,-2.80093 0.80426,0 2.41279,0.39164 2.87786,2.53517 0.24478,1.36725 0.14337,3.22055 0.14337,4.75564 0,1.82883 0.0979,3.48631 -0.16784,5.04938 -0.36717,2.31837 -1.75539,2.88485 -2.85339,2.88485"
         style="fill:#000000;stroke:none"
         id="path402" />
      <path
         inkscape:connector-curvature="0"
         d="m 495.99047,334.5728 c 0,-2.08409 -1.72043,-3.77654 -3.75906,-3.77654 -2.03164,0 -3.58421,1.70294 -3.58421,3.75906 0,2.08409 1.64349,3.58421 3.58421,3.58421 2.03164,0 3.75906,-1.61901 3.75906,-3.56673 z m -3.75906,2.86737 c -1.58754,0 -2.88485,-1.32179 -2.88485,-2.86737 0,-1.57006 1.29381,-3.07718 2.88485,-3.07718 1.58755,0 3.0597,1.40921 3.0597,3.0597 0,1.57006 -1.37075,2.88485 -3.0597,2.88485"
         style="fill:#000000;stroke:none"
         id="path404" />
    </g>
    <g
       transform="translate(62,0)"
       id="g3741">
      <path
         inkscape:connector-curvature="0"
         d="m 164.63417,336.74081 3.93739,0 c -1.15044,5.12281 -1.6295,6.61244 -1.6295,8.93082 0,0.52102 0.16435,1.46166 0.44409,2.64707 0.34968,1.5316 0.73083,1.74141 1.25535,1.74141 0.69586,0 1.42669,-0.62593 1.42669,-1.32529 0,-0.20981 0,-0.27974 -0.20981,-0.7658 -1.01057,-2.5072 -1.01057,-4.77312 -1.01057,-5.74873 0,-1.82882 0.24478,-3.68912 0.62593,-5.48297 l 3.97236,0 c 0.45458,0 1.70643,-0.0559 1.70643,-1.24137 0,-0.83573 -0.73083,-0.85671 -1.39172,-0.85671 l -11.66881,0 c -0.7658,0 -2.09108,0.021 -3.62268,1.65748 -1.22038,1.36025 -2.12605,2.96179 -2.12605,3.13663 0,0.035 0,0.34968 0.41962,0.34968 0.27974,0 0.34968,-0.13988 0.55599,-0.41962 1.70643,-2.68204 3.72758,-2.62609 4.42344,-2.62609 l 1.98618,0 c -1.11548,4.19615 -2.99675,8.38881 -4.45841,11.54292 -0.27975,0.52102 -0.27975,0.59096 -0.27975,0.83573 0,0.6609 0.556,0.93714 1.01058,0.93714 1.04554,0 1.32528,-0.97211 1.7414,-2.26592 0.48606,-1.59804 0.48606,-1.66797 0.93714,-3.40938"
         style="fill:#000000;stroke:none"
         id="path488" />
      <path
         inkscape:connector-curvature="0"
         d="m 204.00808,333.72308 c 0,-0.58397 0.17484,-0.47906 -0.38464,-0.47906 -1.51062,1.40571 -3.65765,1.39872 -4.43744,1.39872 l 0,0.69936 c 0.46857,0 1.8533,0.0629 3.07369,-0.56998 l 0,12.63042 c 0,0.8777 -0.0699,1.22738 -2.14704,1.22738 l -0.77978,0 0,0.69936 c 0.85322,-0.0734 2.97577,-0.0734 3.95138,-0.0734 0.9756,0 3.09816,0 3.95138,0.0734 l 0,-0.69936 -0.77979,0 c -2.19599,0 -2.44426,-0.27975 -2.44426,-1.22738"
         style="fill:#000000;stroke:none"
         id="path490" />
      <path
         inkscape:connector-curvature="0"
         d="m 213.57881,338.18499 c -1.12247,-0.73083 -1.17842,-1.55957 -1.17842,-1.97569 0,-1.48614 1.56657,-2.26592 3.2765,-2.26592 1.77987,0 3.37091,1.16443 3.37091,2.77995 0,1.39172 -0.96162,2.55965 -2.44426,3.41287 l -3.02473,-1.95121 z m 3.55974,2.31837 c 1.75539,-0.90217 2.95479,-2.1715 2.95479,-3.78003 0,-2.24145 -2.17151,-3.47931 -4.39547,-3.47931 -2.43727,0 -4.34652,1.73441 -4.34652,3.91641 0,0.4406 0.0455,1.53509 1.00708,2.68204 0.26925,0.29373 1.17143,0.90217 1.77987,1.31829 -1.41271,0.70635 -3.48631,2.0736 -3.48631,4.48639 0,2.58413 2.47573,4.21714 5.0214,4.21714 2.75548,0 5.11931,-2.02465 5.11931,-4.63326 0,-0.87769 -0.27974,-1.97569 -1.24136,-3.00025 -0.46158,-0.51053 -0.85322,-0.75531 -2.41279,-1.73091 l 0,0.003 z m -2.44076,1.02107 c 0.68187,0.41612 1.82882,1.14695 3.00025,1.90226 0.68187,0.46157 2.04562,1.1959 2.04562,2.68204 0,1.80434 -1.93373,3.0562 -4.04579,3.0562 -2.09808,0 -3.99684,-1.50363 -3.99684,-3.51778 0,-1.4127 0.82175,-2.97577 3.00025,-4.12272"
         style="fill:#000000;stroke:none"
         id="path492" />
      <path
         inkscape:connector-curvature="0"
         d="m 233.03148,341.52443 c 0,-1.95121 -0.11889,-3.90242 -0.94763,-5.70677 -1.12247,-2.33936 -3.12264,-2.57364 -4.1472,-2.57364 -1.46166,0 -3.24502,0.60145 -4.24161,2.74498 -0.77979,1.68196 -0.80426,3.58422 -0.80426,5.53543 0,1.82882 0.0874,4.02481 1.00008,5.87811 1.04904,1.97569 2.82891,2.46175 4.02481,2.46175 1.31829,0 3.17159,-0.51054 4.24161,-2.82891 0.77979,-1.68196 0.8742,-3.58422 0.8742,-5.51095 z m -5.11931,7.6405 c -0.95112,0 -2.38831,-0.57698 -2.8289,-2.78695 -0.26926,-1.46166 -0.0979,-3.7066 -0.0979,-5.14378 0,-1.55958 -0.17135,-3.1716 0.0245,-4.48639 0.46158,-2.90234 2.2939,-2.80094 2.90234,-2.80094 0.80427,0 2.41279,0.39165 2.87787,2.53518 0.24477,1.36725 0.14336,3.22055 0.14336,4.75564 0,1.82883 0.10141,3.48631 -0.16784,5.04937 -0.36716,2.31838 -1.75539,2.88486 -2.85339,2.88486"
         style="fill:#000000;stroke:none"
         id="path494" />
      <path
         inkscape:connector-curvature="0"
         d="m 242.82251,336.3212 c 0,-2.08409 -1.72043,-3.77654 -3.75906,-3.77654 -2.03163,0 -3.58421,1.70294 -3.58421,3.75905 0,2.08409 1.64349,3.58422 3.58421,3.58422 2.03164,0 3.75906,-1.61902 3.75906,-3.56673 z m -3.75906,2.86737 c -1.58754,0 -2.88485,-1.32179 -2.88485,-2.86737 0,-1.57006 1.29381,-3.07718 2.88485,-3.07718 1.58755,0 3.0597,1.40921 3.0597,3.05969 0,1.57007 -1.37074,2.88486 -3.0597,2.88486"
         style="fill:#000000;stroke:none"
         id="path496" />
    </g>
    <path
       id="path598"
       style="fill:#000000;stroke:none"
       d="m 403.12258,30.785238 c 0.13988,-0.486054 0.13988,-0.55634 0.13988,-0.800766 0,-0.625926 -0.48606,-0.961619 -1.01058,-0.961619 -0.34968,0 -0.90567,0.216802 -1.22038,0.751811 -0.0699,0.17484 -0.34968,1.25535 -0.48605,1.881276 -0.24478,0.90567 -0.48606,1.846308 -0.69587,2.786946 l -1.56656,6.269753 c -0.13987,0.521023 -1.6365,3.028225 -3.93739,3.028225 -1.77637,0 -2.20648,-1.570061 -2.20648,-2.888353 0,-1.601532 0.60844,-3.762551 1.82533,-6.829241 0.55599,-1.427042 0.62243,-1.811339 0.62243,-2.507202 0,-1.566564 -1.08751,-2.877862 -2.78345,-2.877862 -3.30447,0 -4.59829,5.070353 -4.59829,5.385064 0,0.34968 0.34968,0.34968 0.41962,0.34968 0.34968,0 0.38465,-0.06994 0.55599,-0.625926 0.94064,-3.273001 2.33586,-4.409459 3.51778,-4.409459 0.27974,0 0.79027,0.08742 0.79027,1.202897 0,0.870702 -0.30072,1.776372 -0.51053,2.437267 -1.39522,3.692615 -1.93723,5.678795 -1.93723,7.315295 0,3.101657 2.15053,4.143702 4.16469,4.143702 1.36025,0 2.54217,-0.587462 3.51777,-1.566564 -0.45458,1.811339 -0.8707,3.517775 -2.26592,5.364083 -0.90567,1.185414 -2.23096,2.146683 -3.83249,2.146683 -0.48605,0 -2.05611,-0.101058 -2.64707,-1.433337 0.55599,0 1.01057,0.01748 1.49663,-0.402131 0.34968,-0.314712 0.6504,-0.765798 0.6504,-1.426692 0,-1.08051 -0.90567,-1.318642 -1.24136,-1.318642 -0.80077,0 -1.95121,0.580818 -1.95121,2.364183 0,1.741404 1.53159,2.916327 3.69261,2.916327 3.58771,0 7.17543,-3.119141 8.15103,-6.99359"
       inkscape:connector-curvature="0" />
    <path
       id="path600"
       style="fill:#000000;stroke:none"
       d="m 676.87268,384.61543 c 0.20981,-0.90567 1.01057,-4.19965 3.44784,-4.19965 0.17134,0 1.00707,0.0874 1.7379,0.54201 -0.9721,0.17484 -1.78686,1.04554 -1.78686,1.88127 0,0.55599 0.41262,1.10849 1.43719,1.10849 0.76579,0 1.70643,-0.59096 1.70643,-1.90925 0,-1.81134 -1.94422,-2.32188 -3.06319,-2.32188 -2.02115,0 -3.24153,1.8603 -3.65765,2.66806 -0.8672,-2.30089 -2.75198,-2.66806 -3.76255,-2.66806 -3.62268,0 -5.5669,4.51087 -5.5669,5.38507 0,0.34968 0.31122,0.34968 0.37766,0.34968 0.27624,0 0.38115,-0.0699 0.45108,-0.38465 1.18542,-3.69262 3.48281,-4.65074 4.66822,-4.65074 0.6609,0 1.88128,0.3252 1.88128,2.42328 0,1.08051 -0.59096,3.41287 -1.88128,8.2909 -0.55599,2.16102 -1.77287,3.68912 -3.30447,3.68912 -0.20981,0 -1.01057,-0.0664 -1.7414,-0.52102 0.8707,-0.17484 1.61901,-0.90567 1.61901,-1.88128 0,-0.94063 -0.7553,-1.12946 -1.26933,-1.12946 -1.04554,0 -1.87778,0.86371 -1.87778,1.93023 0,1.59803 1.72042,2.30089 3.23453,2.30089 2.3009,0 3.55275,-2.43727 3.65765,-2.64707 0.41962,1.29031 1.66797,2.64707 3.76255,2.64707 3.58422,0 5.39906,-4.49338 5.39906,-5.36408 0,-0.34968 -0.18184,-0.34968 -0.24128,-0.34968 -0.31472,0 -0.38465,0.13987 -0.45459,0.38465 -1.15044,3.72758 -3.51777,4.62975 -4.63325,4.62975 -1.36025,0 -1.91624,-1.14695 -1.91624,-2.36733 0,-0.7658 0.2098,-1.53159 0.59095,-3.06669"
       inkscape:connector-curvature="0" />
    <g
       transform="translate(0,54)"
       id="g3748">
      <path
         inkscape:connector-curvature="0"
         d="m 367.54969,155.49843 2.90234,0 c -0.36716,1.46166 -1.04554,3.68213 -1.04554,5.60886 0,0.97561 0.18533,1.633 0.40912,2.17151 0.39164,1.22038 0.70635,1.4232 1.098,1.4232 0.55948,0 1.14694,-0.56299 1.14694,-1.20325 0,-0.19547 -0.0489,-0.29338 -0.19582,-0.53466 -0.46157,-0.90217 -0.90217,-2.2939 -0.90217,-4.29057 0,-0.46158 0,-1.43718 0.34269,-3.17159 l 3.0492,0 c 0.4406,0 0.63292,0 0.89868,-0.19582 0.34268,-0.24478 0.41612,-0.63292 0.41612,-0.75531 0,-0.70286 -0.63292,-0.68537 -1.04554,-0.68537 l -9.19308,0 c -1.00008,0 -1.68196,0.2133 -2.77995,1.22388 -0.63292,0.55599 -1.58405,1.87428 -1.58405,2.09458 0,0.29373 0.31821,0.29373 0.41612,0.29373 0.26925,0 0.29373,-0.049 0.4406,-0.26926 1.24485,-1.70293 2.75547,-1.70293 3.29048,-1.70293 l 1.48264,0 c -0.75181,2.68204 -2.0701,5.5564 -2.80093,7.01806 -0.14687,0.31821 -0.39164,0.82874 -0.46158,0.92665 -0.0245,0.0979 -0.0734,0.19582 -0.0734,0.36682 0,0.39164 0.29373,0.88504 0.85322,0.88504 0.9756,0 1.24486,-1.13297 1.82882,-3.39889"
         style="fill:#000000;stroke:none"
         id="path436" />
      <path
         inkscape:connector-curvature="0"
         d="m 374.02925,185.43799 -0.82874,0 c -0.0734,0.53466 -0.31821,1.97569 -0.63292,2.22047 -0.19582,0.14686 -2.0736,0.12238 -2.41279,0.12238 l -4.48639,0 c 2.55966,-2.25543 3.41288,-2.93381 4.87803,-4.07027 1.80435,-1.43718 3.40938,-2.95129 3.40938,-5.26617 0,-2.95129 -2.54917,-4.64724 -5.62984,-4.64724 -3.02473,0 -4.86055,2.0701 -4.86055,4.2591 0,1.24486 0.8777,1.33577 1.08051,1.33577 0.58397,0 1.36725,-0.40563 1.36725,-1.26234 0,-0.4406 -0.17834,-1.18541 -1.51411,-1.18541 0.7553,-1.81484 2.41279,-2.09808 3.55973,-2.09808 2.43727,0 3.54925,1.76553 3.54925,3.5982 0,2.12256 -1.40571,3.80416 -2.13304,4.68221 l -5.87812,5.80468 c -0.24477,0.2203 -0.0315,0.26925 -0.0315,0.95113 l 9.83649,0"
         style="fill:#000000;stroke:none"
         id="path438" />
      <path
         inkscape:connector-curvature="0"
         d="m 369.40649,221.63297 0,0.78013 c 0,5.70677 -2.6261,6.81176 -4.09125,6.81176 -0.41612,0 -1.73092,-0.049 -2.38831,-0.88469 1.07351,0 1.23786,-0.69237 1.23786,-1.098 0,-0.75565 -0.56998,-1.00008 -1.091,-1.00008 -0.39164,0 -1.00708,0.19582 -1.00708,1.04904 0,1.633 1.27284,2.63309 3.2765,2.63309 3.14712,0 6.16485,-3.31497 6.16485,-8.56016 0,-6.55998 -2.82891,-8.06361 -5.0214,-8.06361 -1.34277,0 -2.53517,0.39514 -3.58421,1.38124 -1.00009,1.09799 -1.53509,2.12255 -1.53509,3.95138 0,3.04535 2.13654,5.50745 4.85355,5.50745 1.48613,0 2.48622,-1.05254 3.0492,-2.5107 l 0.13638,0.003 z m -3.1646,1.81169 c -0.39164,0 -1.51062,0.0664 -2.26942,-1.46866 -0.4406,-0.90217 -0.51053,-2.12255 -0.51053,-3.31496 0,-1.31829 0.0734,-2.46174 0.58396,-3.36392 0.6574,-1.22038 1.58405,-1.29031 2.43727,-1.29031 1.11897,0 1.92323,0.72348 2.33935,1.68195 0.29373,0.77979 0.38815,2.31838 0.38815,3.43735 0,2.0243 -0.82525,4.32204 -2.97228,4.32204"
         style="fill:#000000;stroke:none"
         id="path440" />
      <path
         inkscape:connector-curvature="0"
         d="m 383.74335,221.58436 c 0,-1.95121 -0.11889,-3.90242 -0.94763,-5.70677 -1.12248,-2.33935 -3.12264,-2.57364 -4.1472,-2.57364 -1.46166,0 -3.24503,0.60145 -4.24162,2.74498 -0.77978,1.68196 -0.80426,3.58422 -0.80426,5.53543 0,1.82882 0.0874,4.02481 1.00008,5.87811 1.04904,1.97569 2.82891,2.46175 4.02482,2.46175 1.31829,0 3.17159,-0.51054 4.24161,-2.82891 0.77978,-1.68196 0.8742,-3.58422 0.8742,-5.51095 z m -5.11931,7.6405 c -0.95113,0 -2.38831,-0.57697 -2.82891,-2.78695 -0.26925,-1.46166 -0.0979,-3.7066 -0.0979,-5.14378 0,-1.55608 -0.17134,-3.1716 0.0245,-4.48639 0.46158,-2.89884 2.2939,-2.79744 2.90234,-2.79744 0.80426,0 2.41279,0.38815 2.87786,2.53168 0.24478,1.36725 0.14337,3.22055 0.14337,4.75564 0,1.82848 0.0979,3.48596 -0.16785,5.04938 -0.36716,2.31837 -1.75539,2.88485 -2.85338,2.88485"
         style="fill:#000000;stroke:none"
         id="path442" />
      <path
         inkscape:connector-curvature="0"
         d="m 393.88405,216.38113 c 0,-2.08409 -1.72042,-3.77654 -3.75905,-3.77654 -2.03164,0 -3.58422,1.70294 -3.58422,3.75906 0,2.08409 1.6435,3.58421 3.58422,3.58421 2.03164,0 3.75905,-1.61902 3.75905,-3.56673 z m -3.75905,2.86737 c -1.58755,0 -2.88486,-1.32214 -2.88486,-2.86737 0,-1.57006 1.29382,-3.07718 2.88486,-3.07718 1.58754,0 3.05969,1.40921 3.05969,3.0597 0,1.57006 -1.37074,2.88485 -3.05969,2.88485"
         style="fill:#000000;stroke:none"
         id="path444" />
      <polyline
         id="polyline7846"
         style="fill:#000000;stroke:none"
         points="176,667 180.92,667 180.92,667.48 176,667.48"
         transform="matrix(3.4904,0,0,-3.4904,-254,2497.78)" />
    </g>
    <g
       transform="translate(0,-86)"
       id="g3761">
      <path
         inkscape:connector-curvature="0"
         d="m 366.97272,525.56774 c 1.90225,0 3.48281,1.28333 3.48281,3.8255 0,3.02472 -1.87429,3.65764 -3.3849,3.65764 -0.97561,0 -3.12264,-0.24127 -4.1472,-1.53509 1.14695,-0.0455 1.37424,-0.79027 1.37424,-1.26584 0,-0.77978 -0.56998,-1.53159 -1.30081,-1.53159 -0.68187,0 -1.36725,0.46857 -1.36725,1.60502 0,2.2939 2.53518,3.78004 5.48648,3.78004 3.38839,0 5.7837,-2.26942 5.7837,-4.70669 0,-1.90225 -1.58056,-3.80451 -4.29757,-4.364 2.55966,-0.92665 3.54226,-2.75547 3.54226,-4.24161 0,-1.92673 -2.24494,-3.25901 -4.97944,-3.25901 -2.70652,0 -4.75564,1.27283 -4.75564,3.1611 0,0.82874 0.52452,1.38473 1.24136,1.38473 0.75531,0 1.2064,-0.60145 1.2064,-1.33577 0,-0.70636 -0.46857,-1.22039 -1.2064,-1.26584 0.85322,-1.07352 2.53518,-1.24137 3.43735,-1.24137 1.098,0 2.63309,0.51753 2.63309,2.55966 0,1.02106 -0.34269,2.14353 -0.97561,2.89884 -0.80426,0.92665 -1.48264,0.97561 -2.70652,1.04904 -0.60494,0.1049 -0.65739,0.1049 -0.77629,0.15736 -0.049,0 -0.24477,0.035 -0.24477,0.23078 0,0.34269 0.2203,0.4441 0.63292,0.4441"
         style="fill:#000000;stroke:none"
         id="path540" />
      <path
         inkscape:connector-curvature="0"
         d="m 381.88655,524.75998 2.90234,0 c -0.36717,1.46166 -1.04554,3.68213 -1.04554,5.60886 0,0.97561 0.18533,1.63301 0.40912,2.17151 0.39164,1.22038 0.70635,1.4232 1.098,1.4232 0.55948,0 1.14694,-0.56299 1.14694,-1.2029 0,-0.19582 -0.0489,-0.29373 -0.19582,-0.53501 -0.46157,-0.90217 -0.90217,-2.2939 -0.90217,-4.29057 0,-0.46157 0,-1.43718 0.34269,-3.17159 l 3.0492,0 c 0.4406,0 0.63292,0 0.90217,-0.19582 0.33919,-0.24478 0.41263,-0.63292 0.41263,-0.75531 0,-0.70635 -0.62943,-0.68537 -1.04555,-0.68537 l -9.19307,0 c -1.00008,0 -1.68196,0.21331 -2.77995,1.22038 -0.63292,0.55949 -1.58405,1.87778 -1.58405,2.09808 0,0.29373 0.31821,0.29373 0.41612,0.29373 0.26925,0 0.29373,-0.049 0.4406,-0.26925 1.24485,-1.70294 2.75547,-1.70294 3.29048,-1.70294 l 1.48614,0 c -0.75531,2.67854 -2.0736,5.5564 -2.80443,7.01806 -0.14687,0.31821 -0.39164,0.82875 -0.46158,0.92666 -0.0245,0.0979 -0.0734,0.19582 -0.0734,0.36716 0,0.39164 0.29373,0.88469 0.85322,0.88469 0.9756,0 1.24485,-1.13296 1.82882,-3.39889"
         style="fill:#000000;stroke:none"
         id="path542" />
      <path
         inkscape:connector-curvature="0"
         d="m 381.7222,555.04922 -0.82874,0 c -0.0734,0.53501 -0.31821,1.97569 -0.63292,2.22047 -0.19582,0.14686 -2.0736,0.12238 -2.41279,0.12238 l -4.48639,0 c 2.55966,-2.25543 3.41287,-2.93381 4.87803,-4.07026 1.80435,-1.43719 3.40938,-2.9513 3.40938,-5.26618 0,-2.95129 -2.54917,-4.64724 -5.62984,-4.64724 -3.02473,0 -4.86055,2.0701 -4.86055,4.2591 0,1.24486 0.8777,1.33577 1.08051,1.33577 0.58397,0 1.36725,-0.40562 1.36725,-1.26234 0,-0.4406 -0.17834,-1.18541 -1.51411,-1.18541 0.7553,-1.81484 2.41278,-2.09808 3.55973,-2.09808 2.43727,0 3.54925,1.76588 3.54925,3.5982 0,2.12256 -1.40571,3.80452 -2.13305,4.68221 l -5.87811,5.80468 c -0.24477,0.2203 -0.0315,0.26925 -0.0315,0.95113 l 9.83649,0"
         style="fill:#000000;stroke:none"
         id="path544" />
      <path
         inkscape:connector-curvature="0"
         d="m 371.96264,498.24728 -0.60844,0 c -0.12239,0.73083 -0.29373,1.80435 -0.53501,2.17151 -0.17134,0.19582 -1.77987,0.32521 -2.31837,0.32521 l -4.38848,0 2.58413,-2.64008 c 3.80451,-3.36392 5.15777,-4.68221 5.15777,-7.11948 0,-2.77995 -2.14703,-4.57381 -5.05986,-4.57381 -2.75547,0 -4.38148,2.16452 -4.38148,4.2591 0,1.36725 1.04904,1.33578 1.11198,1.33578 0.41612,0 1.33577,-0.28674 1.33577,-1.26235 0,-0.63292 -0.46157,-1.18541 -1.36025,-1.18541 -0.19582,0 -0.24478,-0.0839 -0.31821,-0.0595 0.55949,-1.58405 1.87778,-2.38831 3.29049,-2.38831 2.22046,0 3.27999,1.92674 3.27999,3.87445 0,1.95121 -1.22388,3.87795 -2.57364,5.38856 l -4.67871,5.21722 c -0.26926,0.26925 -0.0874,0.31821 -0.0874,0.90217 l 8.86437,0"
         style="fill:#000000;stroke:none"
         id="path546" />
      <path
         inkscape:connector-curvature="0"
         d="m 384.86232,487.63801 c 0.2203,-0.30422 0.2203,-0.35318 0.2203,-0.88469 l -5.92707,0 c -2.97577,0 -3.02473,-0.28324 -3.12264,-0.69936 l -0.60844,0 -0.80426,4.97244 0.60844,0 c 0.0734,-0.39164 0.29373,-1.92673 0.60844,-2.22046 0.17135,-0.14687 2.0736,-0.30772 2.38831,-0.30772 l 5.04938,0 c -0.26926,0.40563 -2.19599,3.17509 -2.731,4.01432 -2.19599,3.29048 -3.09466,6.68238 -3.09466,9.1686 0,0.24477 0.0944,1.34277 1.21688,1.34277 1.12247,0 0.88119,-1.098 0.88119,-1.34277 l 0,-1.24486 c 0,-1.34277 0.13987,-2.68204 0.51053,-4.00034 0.0979,-0.55599 0.4406,-2.65406 1.51062,-4.16818"
         style="fill:#000000;stroke:none"
         id="path548" />
      <path
         inkscape:connector-curvature="0"
         d="m 396.68149,494.68405 c 0,-1.95121 -0.11889,-3.90242 -0.94763,-5.70677 -1.12247,-2.33936 -3.12264,-2.57014 -4.1472,-2.57014 -1.46166,0 -3.24503,0.59795 -4.24161,2.74148 -0.77979,1.68196 -0.80427,3.58422 -0.80427,5.53543 0,1.82882 0.0874,4.02481 1.00009,5.87811 1.04903,1.97569 2.8289,2.46175 4.02481,2.46175 1.31829,0 3.17159,-0.51054 4.24161,-2.82891 0.77978,-1.68196 0.8742,-3.58422 0.8742,-5.51095 z m -5.11931,7.6405 c -0.95113,0 -2.38831,-0.57697 -2.82891,-2.78695 -0.26925,-1.46166 -0.0979,-3.7066 -0.0979,-5.14378 0,-1.55957 -0.17134,-3.1716 0.0245,-4.48639 0.46158,-2.90234 2.2939,-2.80093 2.90234,-2.80093 0.80426,0 2.41279,0.39164 2.87786,2.53517 0.24478,1.36725 0.14337,3.22055 0.14337,4.75564 0,1.82883 0.0979,3.48631 -0.16785,5.04937 -0.36716,2.31838 -1.75539,2.88486 -2.85338,2.88486"
         style="fill:#000000;stroke:none"
         id="path550" />
      <path
         inkscape:connector-curvature="0"
         d="m 406.82219,489.48082 c 0,-2.08409 -1.72042,-3.77654 -3.75905,-3.77654 -2.03164,0 -3.58422,1.70294 -3.58422,3.75906 0,2.08408 1.6435,3.58421 3.58422,3.58421 2.03164,0 3.75905,-1.61902 3.75905,-3.56673 z m -3.75905,2.86737 c -1.58755,0 -2.88486,-1.32179 -2.88486,-2.86737 0,-1.57006 1.29382,-3.07718 2.88486,-3.07718 1.58754,0 3.05969,1.40921 3.05969,3.0597 0,1.57006 -1.37074,2.88485 -3.05969,2.88485"
         style="fill:#000000;stroke:none"
         id="path552" />
      <polyline
         id="polyline7904"
         style="fill:#000000;stroke:none"
         points="176,561 185,561 185,561.48 176,561.48"
         transform="matrix(3.4904,0,0,-3.4904,-254.325,2496.7)" />
    </g>
    <text
       sodipodi:linespacing="125%"
       id="text3695"
       y="224.58121"
       x="544.35364"
       style="font-size:144px;font-style:normal;font-variant:normal;font-weight:bold;font-stretch:normal;text-align:center;line-height:125%;letter-spacing:0px;word-spacing:0px;writing-mode:lr-tb;text-anchor:middle;fill:#000000;fill-opacity:1;stroke:none;font-family:Serif;-inkscape-font-specification:Serif Bold"
       xml:space="preserve"><tspan
         y="224.58121"
         x="544.35364"
         id="tspan3697"
         sodipodi:role="line">I</tspan></text>
    <text
       sodipodi:linespacing="125%"
       id="text3695-3"
       y="224.58121"
       x="175.99796"
       style="font-size:144px;font-style:normal;font-variant:normal;font-weight:bold;font-stretch:normal;text-align:center;line-height:125%;letter-spacing:0px;word-spacing:0px;writing-mode:lr-tb;text-anchor:middle;fill:#000000;fill-opacity:1;stroke:none;font-family:Serif;-inkscape-font-specification:Serif Bold"
       xml:space="preserve"><tspan
         y="224.58121"
         x="175.99796"
         id="tspan3697-0"
         sodipodi:role="line">II</tspan></text>
    <text
       sodipodi:linespacing="125%"
       id="text3695-3-0"
       y="590.76257"
       x="175.99796"
       style="font-size:144px;font-style:normal;font-variant:normal;font-weight:bold;font-stretch:normal;text-align:center;line-height:125%;letter-spacing:0px;word-spacing:0px;writing-mode:lr-tb;text-anchor:middle;fill:#000000;fill-opacity:1;stroke:none;font-family:Serif;-inkscape-font-specification:Serif Bold"
       xml:space="preserve"><tspan
         y="590.76257"
         x="175.99796"
         id="tspan3697-0-2"
         sodipodi:role="line">III</tspan></text>
    <text
       sodipodi:linespacing="125%"
       id="text3695-3-8"
       y="590.76257"
       x="544.35364"
       style="font-size:144px;font-style:normal;font-variant:normal;font-weight:bold;font-stretch:normal;text-align:center;line-height:125%;letter-spacing:0px;word-spacing:0px;writing-mode:lr-tb;text-anchor:middle;fill:#000000;fill-opacity:1;stroke:none;font-family:Serif;-inkscape-font-specification:Serif Bold"
       xml:space="preserve"><tspan
         y="590.76257"
         x="544.35364"
         id="tspan3697-0-3"
         sodipodi:role="line">IV</tspan></text>
  </g>
</svg>
