<?xml version="1.0" standalone="no"?>
<!DOCTYPE svg PUBLIC "-//W3C//DTD SVG 1.1//EN"
  "http://www.w3.org/Graphics/SVG/1.1/DTD/svg11.dtd">
<!-- Created with matplotlib (http://matplotlib.sourceforge.net/) -->
<svg width="852pt" height="367pt" viewBox="0 0 852 367"
   xmlns="http://www.w3.org/2000/svg"
   xmlns:xlink="http://www.w3.org/1999/xlink"
   version="1.1"
   id="svg1">
<filter id="colorAdd"><feComposite in="SourceGraphic" in2="BackgroundImage" operator="arithmetic" k2="1" k3="1"/></filter>
<g id="figure1">
<g id="patch1">
<path style="fill: #ffffff; stroke: #ffffff; stroke-width: 1.000000; stroke-linejoin: round; stroke-linecap: square;  opacity: 1.000000"  d="M0.000000 367.200000L852.300000 367.200000L852.300000 0.000000
L0.000000 0.000000L0.000000 367.200000"/>
</g>
<g id="axes1">
<g id="patch2">
<path style="fill: #ffffff; opacity: 1.000000"  d="M109.778523 330.480000L403.538523 330.480000L403.538523 36.720000
L109.778523 36.720000L109.778523 330.480000"/>
</g>
<g id="line2d1">
<defs>
  <clipPath id="p994101b627398b8d4a21582411167e84">
<rect x="109.778523" y="36.720000" width="293.760000" height="293.760000"/>
  </clipPath>
</defs><path style="fill: none; stroke: #a52a2a; stroke-width: 2.000000; stroke-linejoin: miter; stroke-linecap: butt;  opacity: 1.000000" clip-path="url(#p994101b627398b8d4a21582411167e84)" d="M390.185795 183.600000L390.074452 178.148168L389.740606 172.705428
L389.184815 167.280858L388.408006 161.883503L387.411474 156.522366
L386.196881 151.206386L384.766254 145.944431L383.121976 140.745275
L381.266792 135.617589L379.203795 130.569925L376.936425 125.610701
L374.468464 120.748188L371.804028 115.990494L368.947559 111.345555
L365.903823 106.821117L362.677895 102.424725L359.275155 98.163712
L355.701279 94.045184L351.962225 90.076009L348.064231 86.262807
L344.013796 82.611938L339.817677 79.129489L335.482870 75.821269
L331.016605 72.692795L326.426331 69.749284L321.719703 66.995646
L316.904571 64.436473L311.988964 62.076032L306.981081 59.918260
L301.889273 57.966757L296.722033 56.224776L291.487978 54.695223
L286.195836 53.380648L280.854434 52.283244L275.472680 51.404841
L270.059549 50.746904L264.624068 50.310531L259.175303 50.096448
L256.658523 50.072727L256.658523 50.072727"/>
</g>
<g id="line2d2">
<path style="fill: none; stroke: #ff0000; stroke-width: 2.000000; stroke-linejoin: miter; stroke-linecap: butt;  opacity: 1.000000" clip-path="url(#p994101b627398b8d4a21582411167e84)" d="M256.658523 50.072727L251.206691 50.184071L245.763951 50.517917
L240.339380 51.073708L234.942026 51.850517L229.580888 52.847049
L224.264909 54.061641L219.002954 55.492269L213.803798 57.136546
L208.676112 58.991731L203.628448 61.054728L198.669224 63.322098
L193.806710 65.790059L189.049017 68.454495L184.404078 71.310963
L179.879640 74.354700L175.483248 77.580627L171.222235 80.983367
L167.103707 84.557244L163.134532 88.296297L159.321330 92.194292
L155.670460 96.244726L152.188012 100.440846L148.879792 104.775653
L145.751318 109.241918L142.807807 113.832192L140.054169 118.538820
L137.494995 123.353952L135.134555 128.269559L132.976783 133.277442
L131.025280 138.369249L129.283299 143.536490L127.753745 148.770545
L126.439171 154.062687L125.341767 159.404089L124.463364 164.785843
L123.805427 170.198974L123.369053 175.634454L123.154971 181.083219
L123.131250 183.600000L123.131250 183.600000"/>
</g>
<g id="line2d3">
<path style="fill: none; stroke: #ffa500; stroke-width: 2.000000; stroke-linejoin: miter; stroke-linecap: butt;  opacity: 1.000000" clip-path="url(#p994101b627398b8d4a21582411167e84)" d="M123.131250 183.600000L123.242594 189.051832L123.576440 194.494572
L124.132230 199.919142L124.909040 205.316497L125.905571 210.677634
L127.120164 215.993614L128.550792 221.255569L130.195069 226.454725
L132.050253 231.582411L134.113251 236.630075L136.380620 241.589299
L138.848582 246.451812L141.513018 251.209506L144.369486 255.854445
L147.413222 260.378883L150.639150 264.775275L154.041890 269.036288
L157.615767 273.154816L161.354820 277.123991L165.252815 280.937193
L169.303249 284.588062L173.499369 288.070511L177.834176 291.378731
L182.300440 294.507205L186.890714 297.450716L191.597342 300.204354
L196.412475 302.763527L201.328082 305.123968L206.335965 307.281740
L211.427772 309.233243L216.595012 310.975224L221.829068 312.504777
L227.121209 313.819352L232.462611 314.916756L237.844366 315.795159
L243.257497 316.453096L248.692977 316.889469L254.141742 317.103552
L256.658523 317.127273L256.658523 317.127273"/>
</g>
<g id="line2d4">
<path style="fill: none; stroke: #ffff00; stroke-width: 2.000000; stroke-linejoin: miter; stroke-linecap: butt;  opacity: 1.000000" clip-path="url(#p994101b627398b8d4a21582411167e84)" d="M256.658523 317.127273L262.110355 317.015929L267.553095 316.682083
L272.977665 316.126292L278.375020 315.349483L283.736157 314.352951
L289.052136 313.138359L294.314092 311.707731L299.513248 310.063454
L304.640933 308.208269L309.688597 306.145272L314.647822 303.877902
L319.510335 301.409941L324.268029 298.745505L328.912968 295.889037
L333.437406 292.845300L337.833797 289.619373L342.094810 286.216633
L346.213339 282.642756L350.182513 278.903703L353.995715 275.005708
L357.646585 270.955274L361.129034 266.759154L364.437254 262.424347
L367.565728 257.958082L370.509238 253.367808L373.262877 248.661180
L375.822050 243.846048L378.182491 238.930441L380.340262 233.922558
L382.291766 228.830751L384.033747 223.663510L385.563300 218.429455
L386.877875 213.137313L387.975279 207.795911L388.853682 202.414157
L389.511619 197.001026L389.947992 191.565546L390.162075 186.116781
L390.185795 183.600000L390.185795 183.600000"/>
</g>
<g id="matplotlib.axis1">
<g id="xtick1">
<g id="line2d5">
<path style="fill: none; stroke: #000000; stroke-width: 0.500000; stroke-linejoin: round; stroke-linecap: butt; stroke-dasharray: 1.000000,3.000000; stroke-dashoffset: 0.000000; opacity: 1.000000" clip-path="url(#p994101b627398b8d4a21582411167e84)" d="M123.131250 330.480000L123.131250 36.720000"/>
</g>
<g id="line2d6">
<defs><path id="m30e32995789d870ad79a2e54c91cf9c6" d="M0.000000 0.000000L0.000000 -4.000000"/></defs>
<g ><use style="fill: none; stroke: #000000; stroke-width: 0.500000; stroke-linejoin: round; stroke-linecap: butt;  opacity: 1.000000" xlink:href="#m30e32995789d870ad79a2e54c91cf9c6" x="123.131250" y="330.480000"/>
</g></g>
<g id="line2d7">
<defs><path id="m9281cae24120827b11d5ea8a7ad3e96b" d="M0.000000 0.000000L0.000000 4.000000"/></defs>
<g ><use style="fill: none; stroke: #000000; stroke-width: 0.500000; stroke-linejoin: round; stroke-linecap: butt;  opacity: 1.000000" xlink:href="#m9281cae24120827b11d5ea8a7ad3e96b" x="123.131250" y="36.720000"/>
</g></g>
<g id="text1">
<defs>
<path id="c_6a8d56c819c37117ab4cf023bec22a5a" d="M10.593750 -35.500000l62.593750 0.000000l0.000000 8.296875l-62.593750 0.000000z"/>
<path id="c_42baa63129a918535c52adb20d687ea7" d="M12.406250 -8.296875l16.109375 0.000000l0.000000 -55.625000l-17.531250 3.515625l0.000000 -8.984375l17.437500 -3.515625l9.859375 0.000000l0.000000 64.609375l16.109375 0.000000l0.000000 8.296875l-41.984375 0.000000z"/>
<path id="c_ed3e21196fb739f392806f09ca0594ef" d="M10.687500 -12.406250l10.312500 0.000000l0.000000 12.406250l-10.312500 0.000000z"/>
<path id="c_7a2040fe3b94fcd41d0a72c84e93b115" d="M31.781250 -66.406250q-7.609375 0.000000 -11.453125 7.500000q-3.828125 7.484375 -3.828125 22.531250q0.000000 14.984375 3.828125 22.484375q3.843750 7.500000 11.453125 7.500000q7.671875 0.000000 11.500000 -7.500000q3.843750 -7.500000 3.843750 -22.484375q0.000000 -15.046875 -3.843750 -22.531250q-3.828125 -7.500000 -11.500000 -7.500000M31.781250 -74.218750q12.265625 0.000000 18.734375 9.703125q6.468750 9.687500 6.468750 28.140625q0.000000 18.406250 -6.468750 28.109375q-6.468750 9.687500 -18.734375 9.687500q-12.250000 0.000000 -18.718750 -9.687500q-6.468750 -9.703125 -6.468750 -28.109375q0.000000 -18.453125 6.468750 -28.140625q6.468750 -9.703125 18.718750 -9.703125"/>
</defs>
<g style="fill: #000000; opacity: 1.000000" transform="translate(109.584375,343.386250)scale(0.120000)">
<use xlink:href="#c_6a8d56c819c37117ab4cf023bec22a5a"/>
<use xlink:href="#c_42baa63129a918535c52adb20d687ea7" x="83.789063"/>
<use xlink:href="#c_ed3e21196fb739f392806f09ca0594ef" x="147.412109"/>
<use xlink:href="#c_7a2040fe3b94fcd41d0a72c84e93b115" x="179.199219"/>
</g>
</g>
</g>
<g id="xtick2">
<g id="line2d8">
<path style="fill: none; stroke: #000000; stroke-width: 0.500000; stroke-linejoin: round; stroke-linecap: butt; stroke-dasharray: 1.000000,3.000000; stroke-dashoffset: 0.000000; opacity: 1.000000" clip-path="url(#p994101b627398b8d4a21582411167e84)" d="M189.894886 330.480000L189.894886 36.720000"/>
</g>
<g id="line2d9">
<g ><use style="fill: none; stroke: #000000; stroke-width: 0.500000; stroke-linejoin: round; stroke-linecap: butt;  opacity: 1.000000" xlink:href="#m30e32995789d870ad79a2e54c91cf9c6" x="189.894886" y="330.480000"/>
</g></g>
<g id="line2d10">
<g ><use style="fill: none; stroke: #000000; stroke-width: 0.500000; stroke-linejoin: round; stroke-linecap: butt;  opacity: 1.000000" xlink:href="#m9281cae24120827b11d5ea8a7ad3e96b" x="189.894886" y="36.720000"/>
</g></g>
<g id="text2">
<defs>
<path id="c_1260a2df50f305f3db244e29828f968e" d="M10.796875 -72.906250l38.718750 0.000000l0.000000 8.312500l-29.687500 0.000000l0.000000 17.859375q2.140625 -0.734375 4.281250 -1.093750q2.156250 -0.359375 4.312500 -0.359375q12.203125 0.000000 19.328125 6.687500q7.140625 6.687500 7.140625 18.109375q0.000000 11.765625 -7.328125 18.296875q-7.328125 6.515625 -20.656250 6.515625q-4.593750 0.000000 -9.359375 -0.781250q-4.750000 -0.781250 -9.828125 -2.343750l0.000000 -9.921875q4.390625 2.390625 9.078125 3.562500q4.687500 1.171875 9.906250 1.171875q8.453125 0.000000 13.375000 -4.437500q4.937500 -4.437500 4.937500 -12.062500q0.000000 -7.609375 -4.937500 -12.046875q-4.921875 -4.453125 -13.375000 -4.453125q-3.953125 0.000000 -7.890625 0.875000q-3.921875 0.875000 -8.015625 2.734375z"/>
</defs>
<g style="fill: #000000; opacity: 1.000000" transform="translate(176.473011,343.386250)scale(0.120000)">
<use xlink:href="#c_6a8d56c819c37117ab4cf023bec22a5a"/>
<use xlink:href="#c_7a2040fe3b94fcd41d0a72c84e93b115" x="83.789063"/>
<use xlink:href="#c_ed3e21196fb739f392806f09ca0594ef" x="147.412109"/>
<use xlink:href="#c_1260a2df50f305f3db244e29828f968e" x="179.199219"/>
</g>
</g>
</g>
<g id="xtick3">
<g id="line2d11">
<path style="fill: none; stroke: #000000; stroke-width: 0.500000; stroke-linejoin: round; stroke-linecap: butt; stroke-dasharray: 1.000000,3.000000; stroke-dashoffset: 0.000000; opacity: 1.000000" clip-path="url(#p994101b627398b8d4a21582411167e84)" d="M256.658523 330.480000L256.658523 36.720000"/>
</g>
<g id="line2d12">
<g ><use style="fill: none; stroke: #000000; stroke-width: 0.500000; stroke-linejoin: round; stroke-linecap: butt;  opacity: 1.000000" xlink:href="#m30e32995789d870ad79a2e54c91cf9c6" x="256.658523" y="330.480000"/>
</g></g>
<g id="line2d13">
<g ><use style="fill: none; stroke: #000000; stroke-width: 0.500000; stroke-linejoin: round; stroke-linecap: butt;  opacity: 1.000000" xlink:href="#m9281cae24120827b11d5ea8a7ad3e96b" x="256.658523" y="36.720000"/>
</g></g>
<g id="text3">
<g style="fill: #000000; opacity: 1.000000" transform="translate(247.908523,343.386250)scale(0.120000)">
<use xlink:href="#c_7a2040fe3b94fcd41d0a72c84e93b115"/>
<use xlink:href="#c_ed3e21196fb739f392806f09ca0594ef" x="63.623047"/>
<use xlink:href="#c_7a2040fe3b94fcd41d0a72c84e93b115" x="95.410156"/>
</g>
</g>
</g>
<g id="xtick4">
<g id="line2d14">
<path style="fill: none; stroke: #000000; stroke-width: 0.500000; stroke-linejoin: round; stroke-linecap: butt; stroke-dasharray: 1.000000,3.000000; stroke-dashoffset: 0.000000; opacity: 1.000000" clip-path="url(#p994101b627398b8d4a21582411167e84)" d="M323.422159 330.480000L323.422159 36.720000"/>
</g>
<g id="line2d15">
<g ><use style="fill: none; stroke: #000000; stroke-width: 0.500000; stroke-linejoin: round; stroke-linecap: butt;  opacity: 1.000000" xlink:href="#m30e32995789d870ad79a2e54c91cf9c6" x="323.422159" y="330.480000"/>
</g></g>
<g id="line2d16">
<g ><use style="fill: none; stroke: #000000; stroke-width: 0.500000; stroke-linejoin: round; stroke-linecap: butt;  opacity: 1.000000" xlink:href="#m9281cae24120827b11d5ea8a7ad3e96b" x="323.422159" y="36.720000"/>
</g></g>
<g id="text4">
<g style="fill: #000000; opacity: 1.000000" transform="translate(314.797159,343.386250)scale(0.120000)">
<use xlink:href="#c_7a2040fe3b94fcd41d0a72c84e93b115"/>
<use xlink:href="#c_ed3e21196fb739f392806f09ca0594ef" x="63.623047"/>
<use xlink:href="#c_1260a2df50f305f3db244e29828f968e" x="95.410156"/>
</g>
</g>
</g>
<g id="xtick5">
<g id="line2d17">
<path style="fill: none; stroke: #000000; stroke-width: 0.500000; stroke-linejoin: round; stroke-linecap: butt; stroke-dasharray: 1.000000,3.000000; stroke-dashoffset: 0.000000; opacity: 1.000000" clip-path="url(#p994101b627398b8d4a21582411167e84)" d="M390.185795 330.480000L390.185795 36.720000"/>
</g>
<g id="line2d18">
<g ><use style="fill: none; stroke: #000000; stroke-width: 0.500000; stroke-linejoin: round; stroke-linecap: butt;  opacity: 1.000000" xlink:href="#m30e32995789d870ad79a2e54c91cf9c6" x="390.185795" y="330.480000"/>
</g></g>
<g id="line2d19">
<g ><use style="fill: none; stroke: #000000; stroke-width: 0.500000; stroke-linejoin: round; stroke-linecap: butt;  opacity: 1.000000" xlink:href="#m9281cae24120827b11d5ea8a7ad3e96b" x="390.185795" y="36.720000"/>
</g></g>
<g id="text5">
<g style="fill: #000000; opacity: 1.000000" transform="translate(381.693608,343.386250)scale(0.120000)">
<use xlink:href="#c_42baa63129a918535c52adb20d687ea7"/>
<use xlink:href="#c_ed3e21196fb739f392806f09ca0594ef" x="63.623047"/>
<use xlink:href="#c_7a2040fe3b94fcd41d0a72c84e93b115" x="95.410156"/>
</g>
</g>
</g>
<g id="text6">
<defs>
<path id="c_277960698c3e9ebfcde4d2161536ce57" d="M7.812500 -2.875000q1.765625 1.359375 4.984375 1.359375q3.125000 0.000000 5.515625 -3.000000q2.390625 -3.000000 3.265625 -6.562500l4.546875 -17.734375q1.078125 -4.828125 1.078125 -6.593750q0.000000 -2.484375 -1.390625 -4.343750q-1.390625 -1.859375 -3.890625 -1.859375q-3.171875 0.000000 -5.953125 1.984375q-2.781250 1.984375 -4.687500 5.031250q-1.906250 3.046875 -2.687500 6.171875q-0.187500 0.640625 -0.781250 0.640625l-1.218750 0.000000q-0.781250 0.000000 -0.781250 -0.937500l0.000000 -0.281250q0.968750 -3.718750 3.312500 -7.250000q2.343750 -3.546875 5.734375 -5.734375q3.406250 -2.203125 7.265625 -2.203125q3.656250 0.000000 6.609375 1.953125q2.953125 1.953125 4.171875 5.312500q1.718750 -3.062500 4.375000 -5.156250q2.656250 -2.109375 5.828125 -2.109375q2.156250 0.000000 4.390625 0.765625q2.250000 0.750000 3.671875 2.312500q1.421875 1.562500 1.421875 3.906250q0.000000 2.531250 -1.640625 4.375000q-1.640625 1.828125 -4.171875 1.828125q-1.609375 0.000000 -2.687500 -1.031250q-1.078125 -1.031250 -1.078125 -2.593750q0.000000 -2.093750 1.437500 -3.671875q1.453125 -1.593750 3.453125 -1.890625q-1.812500 -1.421875 -4.984375 -1.421875q-3.218750 0.000000 -5.593750 2.984375q-2.359375 2.984375 -3.343750 6.640625l-4.390625 17.671875q-1.078125 4.015625 -1.078125 6.593750q0.000000 2.546875 1.437500 4.375000q1.437500 1.828125 3.843750 1.828125q4.687500 0.000000 8.359375 -4.125000q3.687500 -4.125000 4.859375 -9.062500q0.203125 -0.578125 0.781250 -0.578125l1.234375 0.000000q0.390625 0.000000 0.625000 0.265625q0.250000 0.265625 0.250000 0.609375q0.000000 0.093750 -0.093750 0.296875q-1.421875 5.953125 -5.968750 10.593750q-4.531250 4.640625 -10.250000 4.640625q-3.656250 0.000000 -6.609375 -1.968750q-2.953125 -1.984375 -4.187500 -5.359375q-1.562500 2.937500 -4.328125 5.140625q-2.750000 2.187500 -5.875000 2.187500q-2.140625 0.000000 -4.421875 -0.765625q-2.265625 -0.750000 -3.687500 -2.312500q-1.406250 -1.562500 -1.406250 -3.953125q0.000000 -2.343750 1.625000 -4.265625q1.640625 -1.937500 4.093750 -1.937500q1.656250 0.000000 2.781250 1.000000q1.125000 1.000000 1.125000 2.609375q0.000000 2.109375 -1.406250 3.671875q-1.390625 1.562500 -3.484375 1.953125"/>
</defs>
<g id="mathtext1">
<g style="fill: #000000" transform="translate(253.158523,355.558125)">
<use xlink:href="#c_277960698c3e9ebfcde4d2161536ce57" transform="translate(0.000000,-1.703125)scale(0.120000)"/>
</g>
</g>
</g>
</g>
<g id="matplotlib.axis2">
<g id="ytick1">
<g id="line2d20">
<path style="fill: none; stroke: #000000; stroke-width: 0.500000; stroke-linejoin: round; stroke-linecap: butt; stroke-dasharray: 1.000000,3.000000; stroke-dashoffset: 0.000000; opacity: 1.000000" clip-path="url(#p994101b627398b8d4a21582411167e84)" d="M109.778523 317.127273L403.538523 317.127273"/>
</g>
<g id="line2d21">
<defs><path id="m3400efa6b1638b3fea9e19e898273957" d="M0.000000 0.000000L4.000000 0.000000"/></defs>
<g ><use style="fill: none; stroke: #000000; stroke-width: 0.500000; stroke-linejoin: round; stroke-linecap: butt;  opacity: 1.000000" xlink:href="#m3400efa6b1638b3fea9e19e898273957" x="109.778523" y="317.127273"/>
</g></g>
<g id="line2d22">
<defs><path id="m20b58b2501143cb5e0a5e8f1ef6f1643" d="M0.000000 0.000000L-4.000000 0.000000"/></defs>
<g ><use style="fill: none; stroke: #000000; stroke-width: 0.500000; stroke-linejoin: round; stroke-linecap: butt;  opacity: 1.000000" xlink:href="#m20b58b2501143cb5e0a5e8f1ef6f1643" x="403.538523" y="317.127273"/>
</g></g>
<g id="text7">
<g style="fill: #000000; opacity: 1.000000" transform="translate(78.684773,321.494460)scale(0.120000)">
<use xlink:href="#c_6a8d56c819c37117ab4cf023bec22a5a"/>
<use xlink:href="#c_42baa63129a918535c52adb20d687ea7" x="83.789063"/>
<use xlink:href="#c_ed3e21196fb739f392806f09ca0594ef" x="147.412109"/>
<use xlink:href="#c_7a2040fe3b94fcd41d0a72c84e93b115" x="179.199219"/>
</g>
</g>
</g>
<g id="ytick2">
<g id="line2d23">
<path style="fill: none; stroke: #000000; stroke-width: 0.500000; stroke-linejoin: round; stroke-linecap: butt; stroke-dasharray: 1.000000,3.000000; stroke-dashoffset: 0.000000; opacity: 1.000000" clip-path="url(#p994101b627398b8d4a21582411167e84)" d="M109.778523 250.363636L403.538523 250.363636"/>
</g>
<g id="line2d24">
<g ><use style="fill: none; stroke: #000000; stroke-width: 0.500000; stroke-linejoin: round; stroke-linecap: butt;  opacity: 1.000000" xlink:href="#m3400efa6b1638b3fea9e19e898273957" x="109.778523" y="250.363636"/>
</g></g>
<g id="line2d25">
<g ><use style="fill: none; stroke: #000000; stroke-width: 0.500000; stroke-linejoin: round; stroke-linecap: butt;  opacity: 1.000000" xlink:href="#m20b58b2501143cb5e0a5e8f1ef6f1643" x="403.538523" y="250.363636"/>
</g></g>
<g id="text8">
<g style="fill: #000000; opacity: 1.000000" transform="translate(78.934773,254.730824)scale(0.120000)">
<use xlink:href="#c_6a8d56c819c37117ab4cf023bec22a5a"/>
<use xlink:href="#c_7a2040fe3b94fcd41d0a72c84e93b115" x="83.789063"/>
<use xlink:href="#c_ed3e21196fb739f392806f09ca0594ef" x="147.412109"/>
<use xlink:href="#c_1260a2df50f305f3db244e29828f968e" x="179.199219"/>
</g>
</g>
</g>
<g id="ytick3">
<g id="line2d26">
<path style="fill: none; stroke: #000000; stroke-width: 0.500000; stroke-linejoin: round; stroke-linecap: butt; stroke-dasharray: 1.000000,3.000000; stroke-dashoffset: 0.000000; opacity: 1.000000" clip-path="url(#p994101b627398b8d4a21582411167e84)" d="M109.778523 183.600000L403.538523 183.600000"/>
</g>
<g id="line2d27">
<g ><use style="fill: none; stroke: #000000; stroke-width: 0.500000; stroke-linejoin: round; stroke-linecap: butt;  opacity: 1.000000" xlink:href="#m3400efa6b1638b3fea9e19e898273957" x="109.778523" y="183.600000"/>
</g></g>
<g id="line2d28">
<g ><use style="fill: none; stroke: #000000; stroke-width: 0.500000; stroke-linejoin: round; stroke-linecap: butt;  opacity: 1.000000" xlink:href="#m20b58b2501143cb5e0a5e8f1ef6f1643" x="403.538523" y="183.600000"/>
</g></g>
<g id="text9">
<g style="fill: #000000; opacity: 1.000000" transform="translate(88.278523,187.967187)scale(0.120000)">
<use xlink:href="#c_7a2040fe3b94fcd41d0a72c84e93b115"/>
<use xlink:href="#c_ed3e21196fb739f392806f09ca0594ef" x="63.623047"/>
<use xlink:href="#c_7a2040fe3b94fcd41d0a72c84e93b115" x="95.410156"/>
</g>
</g>
</g>
<g id="ytick4">
<g id="line2d29">
<path style="fill: none; stroke: #000000; stroke-width: 0.500000; stroke-linejoin: round; stroke-linecap: butt; stroke-dasharray: 1.000000,3.000000; stroke-dashoffset: 0.000000; opacity: 1.000000" clip-path="url(#p994101b627398b8d4a21582411167e84)" d="M109.778523 116.836364L403.538523 116.836364"/>
</g>
<g id="line2d30">
<g ><use style="fill: none; stroke: #000000; stroke-width: 0.500000; stroke-linejoin: round; stroke-linecap: butt;  opacity: 1.000000" xlink:href="#m3400efa6b1638b3fea9e19e898273957" x="109.778523" y="116.836364"/>
</g></g>
<g id="line2d31">
<g ><use style="fill: none; stroke: #000000; stroke-width: 0.500000; stroke-linejoin: round; stroke-linecap: butt;  opacity: 1.000000" xlink:href="#m20b58b2501143cb5e0a5e8f1ef6f1643" x="403.538523" y="116.836364"/>
</g></g>
<g id="text10">
<g style="fill: #000000; opacity: 1.000000" transform="translate(88.528523,121.203551)scale(0.120000)">
<use xlink:href="#c_7a2040fe3b94fcd41d0a72c84e93b115"/>
<use xlink:href="#c_ed3e21196fb739f392806f09ca0594ef" x="63.623047"/>
<use xlink:href="#c_1260a2df50f305f3db244e29828f968e" x="95.410156"/>
</g>
</g>
</g>
<g id="ytick5">
<g id="line2d32">
<path style="fill: none; stroke: #000000; stroke-width: 0.500000; stroke-linejoin: round; stroke-linecap: butt; stroke-dasharray: 1.000000,3.000000; stroke-dashoffset: 0.000000; opacity: 1.000000" clip-path="url(#p994101b627398b8d4a21582411167e84)" d="M109.778523 50.072727L403.538523 50.072727"/>
</g>
<g id="line2d33">
<g ><use style="fill: none; stroke: #000000; stroke-width: 0.500000; stroke-linejoin: round; stroke-linecap: butt;  opacity: 1.000000" xlink:href="#m3400efa6b1638b3fea9e19e898273957" x="109.778523" y="50.072727"/>
</g></g>
<g id="line2d34">
<g ><use style="fill: none; stroke: #000000; stroke-width: 0.500000; stroke-linejoin: round; stroke-linecap: butt;  opacity: 1.000000" xlink:href="#m20b58b2501143cb5e0a5e8f1ef6f1643" x="403.538523" y="50.072727"/>
</g></g>
<g id="text11">
<g style="fill: #000000; opacity: 1.000000" transform="translate(88.794148,54.439915)scale(0.120000)">
<use xlink:href="#c_42baa63129a918535c52adb20d687ea7"/>
<use xlink:href="#c_ed3e21196fb739f392806f09ca0594ef" x="63.623047"/>
<use xlink:href="#c_7a2040fe3b94fcd41d0a72c84e93b115" x="95.410156"/>
</g>
</g>
</g>
<g id="text12">
<defs>
<path id="c_b1ccbd40de9466de4ee940ca0731021f" d="M8.406250 14.312500q2.093750 3.609375 7.312500 3.609375q4.734375 0.000000 8.203125 -3.328125q3.468750 -3.312500 5.593750 -8.031250q2.125000 -4.703125 3.296875 -9.640625q-4.437500 4.203125 -9.625000 4.203125q-3.953125 0.000000 -6.734375 -1.359375q-2.781250 -1.375000 -4.328125 -4.078125q-1.531250 -2.718750 -1.531250 -6.578125q0.000000 -3.265625 0.875000 -6.703125q0.890625 -3.453125 2.468750 -7.671875q1.593750 -4.234375 2.765625 -7.359375q1.312500 -3.656250 1.312500 -6.000000q0.000000 -2.984375 -2.187500 -2.984375q-3.968750 0.000000 -6.531250 4.078125q-2.562500 4.078125 -3.781250 9.109375q-0.187500 0.640625 -0.828125 0.640625l-1.171875 0.000000q-0.828125 0.000000 -0.828125 -0.937500l0.000000 -0.281250q1.609375 -5.968750 4.921875 -10.578125q3.328125 -4.609375 8.406250 -4.609375q3.562500 0.000000 6.031250 2.343750q2.468750 2.343750 2.468750 5.953125q0.000000 1.859375 -0.828125 3.906250q-0.437500 1.218750 -2.000000 5.328125q-1.562500 4.093750 -2.406250 6.781250q-0.828125 2.687500 -1.359375 5.281250q-0.531250 2.578125 -0.531250 5.171875q0.000000 3.312500 1.406250 5.609375q1.421875 2.296875 4.500000 2.296875q6.203125 0.000000 11.125000 -7.562500l7.578125 -30.812500q0.328125 -1.328125 1.546875 -2.265625q1.234375 -0.953125 2.640625 -0.953125q1.218750 0.000000 2.125000 0.781250q0.906250 0.781250 0.906250 2.046875q0.000000 0.578125 -0.093750 0.781250l-9.921875 39.796875q-1.312500 5.125000 -4.828125 9.812500q-3.515625 4.687500 -8.468750 7.546875q-4.953125 2.859375 -10.328125 2.859375q-2.593750 0.000000 -5.140625 -1.015625q-2.531250 -1.000000 -4.093750 -3.000000q-1.562500 -2.000000 -1.562500 -4.687500q0.000000 -2.734375 1.609375 -4.734375q1.625000 -2.000000 4.296875 -2.000000q1.625000 0.000000 2.718750 1.000000q1.093750 1.000000 1.093750 2.609375q0.000000 2.296875 -1.718750 4.000000q-1.703125 1.718750 -3.984375 1.718750q-0.109375 -0.046875 -0.203125 -0.078125q-0.093750 -0.015625 -0.187500 -0.015625"/>
</defs>
<g id="mathtext2">
<g style="fill: #000000" transform="translate(73.684773,186.600000)rotate(-90.0)">
<use xlink:href="#c_b1ccbd40de9466de4ee940ca0731021f" transform="translate(0.000000,-3.703125)scale(0.120000)"/>
</g>
</g>
</g>
</g>
<g id="patch3">
<path style="fill: none; stroke: #000000; stroke-width: 1.000000; stroke-linejoin: round; stroke-linecap: square;  opacity: 1.000000"  d="M109.778523 36.720000L403.538523 36.720000"/>
</g>
<g id="patch4">
<path style="fill: none; stroke: #000000; stroke-width: 1.000000; stroke-linejoin: round; stroke-linecap: square;  opacity: 1.000000"  d="M403.538523 330.480000L403.538523 36.720000"/>
</g>
<g id="patch5">
<path style="fill: none; stroke: #000000; stroke-width: 1.000000; stroke-linejoin: round; stroke-linecap: square;  opacity: 1.000000"  d="M109.778523 330.480000L403.538523 330.480000"/>
</g>
<g id="patch6">
<path style="fill: none; stroke: #000000; stroke-width: 1.000000; stroke-linejoin: round; stroke-linecap: square;  opacity: 1.000000"  d="M109.778523 330.480000L109.778523 36.720000"/>
</g>
<g id="text13">
<defs>
<path id="c_f7a27dd75e8271b80b605f33cd79f506" d="M24.703125 -5.171875l9.281250 0.000000l0.000000 5.171875l-28.468750 0.000000l0.000000 -5.171875l9.281250 0.000000l0.000000 -62.500000l-9.281250 0.000000l0.000000 -5.234375l28.468750 0.000000l0.000000 5.234375l-9.281250 0.000000z"/>
</defs>
<g style="fill: #000000; opacity: 1.000000" transform="translate(366.453580,79.578381)scale(0.260000)">
<use xlink:href="#c_f7a27dd75e8271b80b605f33cd79f506"/>
</g>
</g>
<g id="text14">
<g style="fill: #000000; opacity: 1.000000" transform="translate(134.324403,79.578381)scale(0.260000)">
<use xlink:href="#c_f7a27dd75e8271b80b605f33cd79f506"/>
<use xlink:href="#c_f7a27dd75e8271b80b605f33cd79f506" x="39.501953"/>
</g>
</g>
<g id="text15">
<g style="fill: #000000; opacity: 1.000000" transform="translate(129.191591,306.574744)scale(0.260000)">
<use xlink:href="#c_f7a27dd75e8271b80b605f33cd79f506"/>
<use xlink:href="#c_f7a27dd75e8271b80b605f33cd79f506" x="39.501953"/>
<use xlink:href="#c_f7a27dd75e8271b80b605f33cd79f506" x="79.003906"/>
</g>
</g>
<g id="text16">
<defs>
<path id="c_77359844e15ba4a53c2a7ed465a2e7f0" d="M17.484375 -67.671875l21.531250 55.953125l21.484375 -55.953125l-8.203125 0.000000l0.000000 -5.234375l21.390625 0.000000l0.000000 5.234375l-7.078125 0.000000l-26.031250 67.671875l-8.406250 0.000000l-25.875000 -67.671875l-7.281250 0.000000l0.000000 -5.234375l26.578125 0.000000l0.000000 5.234375z"/>
</defs>
<g style="fill: #000000; opacity: 1.000000" transform="translate(356.164517,306.574744)scale(0.260000)">
<use xlink:href="#c_f7a27dd75e8271b80b605f33cd79f506"/>
<use xlink:href="#c_77359844e15ba4a53c2a7ed465a2e7f0" x="39.501953"/>
</g>
</g>
<g id="text17">
<defs>
<path id="c_1210e7f4d85518601ea3049211d562d0" d="M4.984375 -0.000000l0.000000 -2.687500q0.000000 -0.250000 0.187500 -0.531250l15.531250 -17.187500q3.515625 -3.812500 5.703125 -6.390625q2.203125 -2.593750 4.343750 -5.968750q2.156250 -3.375000 3.406250 -6.859375q1.250000 -3.484375 1.250000 -7.390625q0.000000 -4.109375 -1.515625 -7.843750q-1.515625 -3.734375 -4.515625 -5.984375q-3.000000 -2.250000 -7.250000 -2.250000q-4.343750 0.000000 -7.812500 2.625000q-3.468750 2.609375 -4.890625 6.750000q0.390625 -0.093750 1.078125 -0.093750q2.250000 0.000000 3.828125 1.515625q1.593750 1.515625 1.593750 3.906250q0.000000 2.296875 -1.593750 3.890625q-1.578125 1.578125 -3.828125 1.578125q-2.343750 0.000000 -3.937500 -1.625000q-1.578125 -1.640625 -1.578125 -3.843750q0.000000 -3.765625 1.406250 -7.046875q1.421875 -3.296875 4.078125 -5.859375q2.671875 -2.578125 6.015625 -3.937500q3.343750 -1.375000 7.093750 -1.375000q5.718750 0.000000 10.640625 2.421875q4.937500 2.421875 7.812500 6.843750q2.890625 4.406250 2.890625 10.328125q0.000000 4.343750 -1.906250 8.250000q-1.906250 3.906250 -4.890625 7.109375q-2.968750 3.187500 -7.609375 7.250000q-4.640625 4.046875 -6.093750 5.406250l-11.328125 10.890625l9.609375 0.000000q7.078125 0.000000 11.843750 -0.109375q4.765625 -0.125000 5.046875 -0.375000q1.171875 -1.265625 2.406250 -9.234375l2.921875 0.000000l-2.828125 17.828125z"/>
<path id="c_6a3a612567bb59e037cbf13158797929" d="M7.515625 -23.000000q-0.828125 0.000000 -1.375000 -0.625000q-0.531250 -0.640625 -0.531250 -1.375000q0.000000 -0.734375 0.531250 -1.359375q0.546875 -0.640625 1.375000 -0.640625l29.406250 0.000000l0.000000 -29.500000q0.000000 -0.781250 0.578125 -1.281250q0.593750 -0.515625 1.421875 -0.515625q0.734375 0.000000 1.359375 0.515625q0.640625 0.500000 0.640625 1.281250l0.000000 29.500000l29.390625 0.000000q0.734375 0.000000 1.265625 0.640625q0.546875 0.625000 0.546875 1.359375q0.000000 0.734375 -0.546875 1.375000q-0.531250 0.625000 -1.265625 0.625000l-29.390625 0.000000l0.000000 29.500000q0.000000 0.781250 -0.640625 1.281250q-0.625000 0.515625 -1.359375 0.515625q-0.828125 0.000000 -1.421875 -0.515625q-0.578125 -0.500000 -0.578125 -1.281250l0.000000 -29.500000z"/>
<path id="c_7bbc93c01755cdeb977d08bdfb9ce616" d="M7.515625 -13.281250q-0.828125 0.000000 -1.375000 -0.625000q-0.531250 -0.640625 -0.531250 -1.375000q0.000000 -0.828125 0.531250 -1.406250q0.546875 -0.593750 1.375000 -0.593750l62.796875 0.000000q0.734375 0.000000 1.265625 0.593750q0.546875 0.578125 0.546875 1.406250q0.000000 0.734375 -0.546875 1.375000q-0.531250 0.625000 -1.265625 0.625000zM7.515625 -32.718750q-0.828125 0.000000 -1.375000 -0.578125q-0.531250 -0.593750 -0.531250 -1.421875q0.000000 -0.734375 0.531250 -1.359375q0.546875 -0.640625 1.375000 -0.640625l62.796875 0.000000q0.734375 0.000000 1.265625 0.640625q0.546875 0.625000 0.546875 1.359375q0.000000 0.828125 -0.546875 1.421875q-0.531250 0.578125 -1.265625 0.578125z"/>
<path id="c_1a459ac34855d27ec37ccb0e66298d36" d="M9.281250 -0.000000l0.000000 -3.515625q12.500000 0.000000 12.500000 -3.171875l0.000000 -52.500000q-5.171875 2.500000 -13.093750 2.500000l0.000000 -3.515625q12.265625 0.000000 18.515625 -6.406250l1.406250 0.000000q0.343750 0.000000 0.656250 0.281250q0.328125 0.265625 0.328125 0.609375l0.000000 59.031250q0.000000 3.171875 12.500000 3.171875l0.000000 3.515625z"/>
</defs>
<g id="mathtext3">
<g style="fill: #000000" transform="translate(221.158523,34.720000)">
<use xlink:href="#c_277960698c3e9ebfcde4d2161536ce57" transform="translate(0.000000,-3.173063)scale(0.144000)"/>
<use xlink:href="#c_1210e7f4d85518601ea3049211d562d0" transform="translate(8.214172,-9.295312)scale(0.100800)"/>
<use xlink:href="#c_6a3a612567bb59e037cbf13158797929" transform="translate(20.385176,-3.173063)scale(0.144000)"/>
<use xlink:href="#c_b1ccbd40de9466de4ee940ca0731021f" transform="translate(32.474468,-3.173063)scale(0.144000)"/>
<use xlink:href="#c_1210e7f4d85518601ea3049211d562d0" transform="translate(39.529247,-9.295312)scale(0.100800)"/>
<use xlink:href="#c_7bbc93c01755cdeb977d08bdfb9ce616" transform="translate(51.700251,-3.173063)scale(0.144000)"/>
<use xlink:href="#c_1a459ac34855d27ec37ccb0e66298d36" transform="translate(63.789542,-3.173063)scale(0.144000)"/>
</g>
</g>
</g>
</g>
<g id="axes2">
<g id="patch7">
<path style="fill: #ffffff; opacity: 1.000000"  d="M470.068977 330.480000L763.828977 330.480000L763.828977 36.720000
L470.068977 36.720000L470.068977 330.480000"/>
</g>
<g id="line2d35">
<defs>
  <clipPath id="p8823c3340038ae5e3ee71b31b56a0d17">
<rect x="470.068977" y="36.720000" width="293.760000" height="293.760000"/>
  </clipPath>
</defs><path style="fill: none; stroke: #ffff00; stroke-width: 2.500000; stroke-linejoin: miter; stroke-linecap: butt;  opacity: 1.000000" clip-path="url(#p8823c3340038ae5e3ee71b31b56a0d17)" d="M469.935450 225.260949L470.068977 224.862196L470.202505 224.463036
L470.336032 224.063473L470.469559 223.663510L470.603086 223.263152
L470.736614 222.862403L470.870141 222.461266L471.003668 222.059745
L471.137195 221.657845L471.270723 221.255569L471.404250 220.852922
L471.537777 220.449906L471.671305 220.046528L471.804832 219.642789
L471.938359 219.238695L472.071886 218.834249L472.205414 218.429455
L472.338941 218.024317L472.472468 217.618840L472.605995 217.213027
L472.739523 216.806882L472.873050 216.400410L473.006577 215.993614
L473.140105 215.586498L473.273632 215.179066L473.407159 214.771323
L473.540686 214.363272L473.674214 213.954917L473.807741 213.546263
L473.941268 213.137313L474.074795 212.728072L474.208323 212.318543
L474.341850 211.908731L474.475377 211.498640L474.608905 211.088273
L474.742432 210.677634L474.875959 210.266729L475.009486 209.855560
L475.143014 209.444133L475.276541 209.032450L475.410068 208.620516
L475.543595 208.208335L475.677123 207.795911L475.810650 207.383249
L475.944177 206.970352L476.077705 206.557224L476.211232 206.143869
L476.344759 205.730292L476.478286 205.316497L476.611814 204.902487
L476.745341 204.488267L476.878868 204.073841L477.012395 203.659213
L477.145923 203.244387L477.279450 202.829367L477.412977 202.414157
L477.546505 201.998762L477.680032 201.583185L477.813559 201.167430
L477.947086 200.751502L478.080614 200.335405L478.214141 199.919142
L478.347668 199.502719L478.481195 199.086139L478.614723 198.669405
L478.748250 198.252523L478.881777 197.835497L479.015305 197.418330
L479.148832 197.001026L479.282359 196.583590L479.415886 196.166026
L479.549414 195.748338L479.682941 195.330531L479.816468 194.912607
L479.949995 194.494572L480.083523 194.076429L480.217050 193.658183
L480.350577 193.239837L480.484105 192.821397L480.617632 192.402865
L480.751159 191.984247L480.884686 191.565546L481.018214 191.146766
L481.151741 190.727911L481.285268 190.308987L481.418795 189.889996
L481.552323 189.470943L481.685850 189.051832L481.819377 188.632667
L481.952905 188.213453L482.086432 187.794193L482.219959 187.374892
L482.353486 186.955553L482.487014 186.536181L482.620541 186.116781
L482.754068 185.697355L482.887595 185.277909L483.021123 184.858446
L483.154650 184.438971L483.288177 184.019488L483.421705 183.600000"/>
</g>
<g id="line2d36">
<path style="fill: none; stroke: #a52a2a; stroke-width: 2.500000; stroke-linejoin: miter; stroke-linecap: butt;  opacity: 1.000000" clip-path="url(#p8823c3340038ae5e3ee71b31b56a0d17)" d="M483.421705 183.600000L494.237414 149.986973L499.979086 132.889133
L504.652541 119.640663L508.791886 108.546540L512.530650 99.134631
L516.002359 90.978366L519.207014 83.996513L522.278141 77.836170
L525.082214 72.692795L527.752759 68.242662L530.289777 64.436473
L532.693268 61.221931L534.963232 58.545048L537.099668 56.351268
L539.236105 54.478929L541.239014 53.019762L543.108395 51.919391
L544.977777 51.073708L546.713632 50.517917L548.449486 50.184071
L550.185341 50.072727L550.185341 50.072727"/>
</g>
<g id="line2d37">
<path style="fill: none; stroke: #ff0000; stroke-width: 2.500000; stroke-linejoin: miter; stroke-linecap: butt;  opacity: 1.000000" clip-path="url(#p8823c3340038ae5e3ee71b31b56a0d17)" d="M550.185341 50.072727L551.921195 50.184071L553.657050 50.517917
L555.392905 51.073708L557.262286 51.919391L559.131668 53.019762
L561.001050 54.372693L563.003959 56.099542L565.140395 58.253428
L567.276832 60.723951L569.546795 63.688827L571.950286 67.200617
L574.487305 71.310963L577.157850 76.069434L579.961923 81.522201
L583.033050 88.002954L586.237705 95.296830L589.709414 103.763378
L593.448177 113.474864L597.587523 124.856122L602.260977 138.369249
L607.869123 155.291269L616.014286 180.663819L616.948977 183.600000
L616.948977 183.600000"/>
</g>
<g id="line2d38">
<path style="fill: none; stroke: #ffa500; stroke-width: 2.500000; stroke-linejoin: miter; stroke-linecap: butt;  opacity: 1.000000" clip-path="url(#p8823c3340038ae5e3ee71b31b56a0d17)" d="M616.948977 183.600000L627.764686 217.213027L633.506359 234.310867
L638.179814 247.559337L642.319159 258.653460L646.057923 268.065369
L649.529632 276.221634L652.734286 283.203487L655.805414 289.363830
L658.609486 294.507205L661.280032 298.957338L663.817050 302.763527
L666.220541 305.978069L668.490505 308.654952L670.626941 310.848732
L672.763377 312.721071L674.766286 314.180238L676.635668 315.280609
L678.505050 316.126292L680.240905 316.682083L681.976759 317.015929
L683.712614 317.127273L683.712614 317.127273"/>
</g>
<g id="line2d39">
<path style="fill: none; stroke: #ffff00; stroke-width: 2.500000; stroke-linejoin: miter; stroke-linecap: butt;  opacity: 1.000000" clip-path="url(#p8823c3340038ae5e3ee71b31b56a0d17)" d="M683.712614 317.127273L685.448468 317.015929L687.184323 316.682083
L688.920177 316.126292L690.789559 315.280609L692.658941 314.180238
L694.528323 312.827307L696.531232 311.100458L698.667668 308.946572
L700.804105 306.476049L703.074068 303.511173L705.477559 299.999383
L708.014577 295.889037L710.685123 291.130566L713.489195 285.677799
L716.560323 279.197046L719.764977 271.903170L723.236686 263.436622
L726.975450 253.725136L731.114795 242.343878L735.788250 228.830751
L741.396395 211.908731L749.541559 186.536181L750.476250 183.600000
L750.476250 183.600000"/>
</g>
<g id="line2d40">
<path style="fill: none; stroke: #a52a2a; stroke-width: 2.500000; stroke-linejoin: miter; stroke-linecap: butt;  opacity: 1.000000" clip-path="url(#p8823c3340038ae5e3ee71b31b56a0d17)" d="M750.476250 183.600000L750.609777 183.180512L750.743305 182.761029
L750.876832 182.341554L751.010359 181.922091L751.143886 181.502645
L751.277414 181.083219L751.410941 180.663819L751.544468 180.244447
L751.677995 179.825108L751.811523 179.405807L751.945050 178.986547
L752.078577 178.567333L752.212105 178.148168L752.345632 177.729057
L752.479159 177.310004L752.612686 176.891013L752.746214 176.472089
L752.879741 176.053234L753.013268 175.634454L753.146795 175.215753
L753.280323 174.797135L753.413850 174.378603L753.547377 173.960163
L753.680905 173.541817L753.814432 173.123571L753.947959 172.705428
L754.081486 172.287393L754.215014 171.869469L754.348541 171.451662
L754.482068 171.033974L754.615595 170.616410L754.749123 170.198974
L754.882650 169.781670L755.016177 169.364503L755.149705 168.947477
L755.283232 168.530595L755.416759 168.113861L755.550286 167.697281
L755.683814 167.280858L755.817341 166.864595L755.950868 166.448498
L756.084395 166.032570L756.217923 165.616815L756.351450 165.201238
L756.484977 164.785843L756.618505 164.370633L756.752032 163.955613
L756.885559 163.540787L757.019086 163.126159L757.152614 162.711733
L757.286141 162.297513L757.419668 161.883503L757.553195 161.469708
L757.686723 161.056131L757.820250 160.642776L757.953777 160.229648
L758.087305 159.816751L758.220832 159.404089L758.354359 158.991665
L758.487886 158.579484L758.621414 158.167550L758.754941 157.755867
L758.888468 157.344440L759.021995 156.933271L759.155523 156.522366
L759.289050 156.111727L759.422577 155.701360L759.556105 155.291269
L759.689632 154.881457L759.823159 154.471928L759.956686 154.062687
L760.090214 153.653737L760.223741 153.245083L760.357268 152.836728
L760.490795 152.428677L760.624323 152.020934L760.757850 151.613502
L760.891377 151.206386L761.024905 150.799590L761.158432 150.393118
L761.291959 149.986973L761.425486 149.581160L761.559014 149.175683
L761.692541 148.770545L761.826068 148.365751L761.959595 147.961305
L762.093123 147.557211L762.226650 147.153472L762.360177 146.750094
L762.493705 146.347078L762.627232 145.944431L762.760759 145.542155
L762.894286 145.140255L763.027814 144.738734L763.161341 144.337597
L763.294868 143.936848L763.428395 143.536490L763.561923 143.136527
L763.695450 142.736964L763.828977 142.337804L763.962505 141.939051"/>
</g>
<g id="matplotlib.axis3">
<g id="xtick6">
<g id="line2d41">
<path style="fill: none; stroke: #000000; stroke-width: 0.500000; stroke-linejoin: round; stroke-linecap: butt; stroke-dasharray: 1.000000,3.000000; stroke-dashoffset: 0.000000; opacity: 1.000000" clip-path="url(#p8823c3340038ae5e3ee71b31b56a0d17)" d="M483.421705 330.480000L483.421705 36.720000"/>
</g>
<g id="line2d42">
<g ><use style="fill: none; stroke: #000000; stroke-width: 0.500000; stroke-linejoin: round; stroke-linecap: butt;  opacity: 1.000000" xlink:href="#m30e32995789d870ad79a2e54c91cf9c6" x="483.421705" y="330.480000"/>
</g></g>
<g id="line2d43">
<g ><use style="fill: none; stroke: #000000; stroke-width: 0.500000; stroke-linejoin: round; stroke-linecap: butt;  opacity: 1.000000" xlink:href="#m9281cae24120827b11d5ea8a7ad3e96b" x="483.421705" y="36.720000"/>
</g></g>
<g id="text18">
<g style="fill: #000000; opacity: 1.000000" transform="translate(480.398267,343.386250)scale(0.120000)">
<use xlink:href="#c_7a2040fe3b94fcd41d0a72c84e93b115"/>
</g>
</g>
</g>
<g id="xtick7">
<g id="line2d44">
<path style="fill: none; stroke: #000000; stroke-width: 0.500000; stroke-linejoin: round; stroke-linecap: butt; stroke-dasharray: 1.000000,3.000000; stroke-dashoffset: 0.000000; opacity: 1.000000" clip-path="url(#p8823c3340038ae5e3ee71b31b56a0d17)" d="M616.948977 330.480000L616.948977 36.720000"/>
</g>
<g id="line2d45">
<g ><use style="fill: none; stroke: #000000; stroke-width: 0.500000; stroke-linejoin: round; stroke-linecap: butt;  opacity: 1.000000" xlink:href="#m30e32995789d870ad79a2e54c91cf9c6" x="616.948977" y="330.480000"/>
</g></g>
<g id="line2d46">
<g ><use style="fill: none; stroke: #000000; stroke-width: 0.500000; stroke-linejoin: round; stroke-linecap: butt;  opacity: 1.000000" xlink:href="#m9281cae24120827b11d5ea8a7ad3e96b" x="616.948977" y="36.720000"/>
</g></g>
<g id="text19">
<defs>
<path id="c_73898205c3b95b421cc0f9bc5a9ca268" d="M56.593750 -44.578125l-8.890625 0.000000l-5.125000 23.781250q-0.734375 3.609375 -1.109375 5.859375q-0.359375 2.234375 -0.359375 3.312500q0.000000 2.828125 1.140625 4.031250q1.156250 1.203125 3.843750 1.203125q0.828125 0.000000 1.953125 -0.125000q1.125000 -0.125000 2.937500 -0.375000l-1.468750 6.890625q-1.468750 0.390625 -2.812500 0.578125q-1.343750 0.203125 -2.609375 0.203125q-5.765625 0.000000 -8.718750 -2.484375q-2.953125 -2.500000 -2.953125 -7.375000q0.000000 -2.250000 0.515625 -5.765625q0.515625 -3.515625 2.171875 -11.375000l3.906250 -18.359375l-15.921875 0.000000l-9.468750 44.578125l-8.843750 0.000000l9.531250 -44.578125l-2.000000 0.000000q-2.640625 0.000000 -4.109375 1.562500q-1.468750 1.562500 -1.906250 4.921875l-7.812500 0.000000q1.375000 -8.093750 4.859375 -11.140625q3.500000 -3.062500 11.546875 -3.062500l43.406250 0.000000z"/>
</defs>
<g style="fill: #000000; opacity: 1.000000" transform="translate(613.355227,340.761250)scale(0.120000)">
<use xlink:href="#c_73898205c3b95b421cc0f9bc5a9ca268"/>
</g>
</g>
</g>
<g id="xtick8">
<g id="line2d47">
<path style="fill: none; stroke: #000000; stroke-width: 0.500000; stroke-linejoin: round; stroke-linecap: butt; stroke-dasharray: 1.000000,3.000000; stroke-dashoffset: 0.000000; opacity: 1.000000" clip-path="url(#p8823c3340038ae5e3ee71b31b56a0d17)" d="M750.476250 330.480000L750.476250 36.720000"/>
</g>
<g id="line2d48">
<g ><use style="fill: none; stroke: #000000; stroke-width: 0.500000; stroke-linejoin: round; stroke-linecap: butt;  opacity: 1.000000" xlink:href="#m30e32995789d870ad79a2e54c91cf9c6" x="750.476250" y="330.480000"/>
</g></g>
<g id="line2d49">
<g ><use style="fill: none; stroke: #000000; stroke-width: 0.500000; stroke-linejoin: round; stroke-linecap: butt;  opacity: 1.000000" xlink:href="#m9281cae24120827b11d5ea8a7ad3e96b" x="750.476250" y="36.720000"/>
</g></g>
<g id="text20">
<defs>
<path id="c_ed3f3ed3ebfbd18bcb9c012009a68ad1" d="M19.187500 -8.296875l34.421875 0.000000l0.000000 8.296875l-46.281250 0.000000l0.000000 -8.296875q5.609375 -5.812500 15.296875 -15.593750q9.703125 -9.796875 12.187500 -12.640625q4.734375 -5.312500 6.609375 -9.000000q1.890625 -3.687500 1.890625 -7.250000q0.000000 -5.812500 -4.078125 -9.468750q-4.078125 -3.671875 -10.625000 -3.671875q-4.640625 0.000000 -9.796875 1.609375q-5.140625 1.609375 -11.000000 4.890625l0.000000 -9.968750q5.953125 -2.390625 11.125000 -3.609375q5.187500 -1.218750 9.484375 -1.218750q11.328125 0.000000 18.062500 5.671875q6.734375 5.656250 6.734375 15.125000q0.000000 4.500000 -1.687500 8.531250q-1.671875 4.015625 -6.125000 9.484375q-1.218750 1.421875 -7.765625 8.187500q-6.531250 6.765625 -18.453125 18.921875"/>
</defs>
<g style="fill: #000000; opacity: 1.000000" transform="translate(743.593437,343.386250)scale(0.120000)">
<use xlink:href="#c_ed3f3ed3ebfbd18bcb9c012009a68ad1"/>
<use xlink:href="#c_73898205c3b95b421cc0f9bc5a9ca268" x="63.623047"/>
</g>
</g>
</g>
<g id="xtick9">
<g id="line2d50">
<path style="fill: none; stroke: #000000; stroke-width: 0.500000; stroke-linejoin: round; stroke-linecap: butt; stroke-dasharray: 1.000000,3.000000; stroke-dashoffset: 0.000000; opacity: 1.000000" clip-path="url(#p8823c3340038ae5e3ee71b31b56a0d17)" d="M550.185341 330.480000L550.185341 36.720000"/>
</g>
<g id="line2d51">
<g ><use style="fill: none; stroke: #000000; stroke-width: 0.500000; stroke-linejoin: round; stroke-linecap: butt;  opacity: 1.000000" xlink:href="#m30e32995789d870ad79a2e54c91cf9c6" x="550.185341" y="330.480000"/>
</g></g>
<g id="line2d52">
<g ><use style="fill: none; stroke: #000000; stroke-width: 0.500000; stroke-linejoin: round; stroke-linecap: butt;  opacity: 1.000000" xlink:href="#m9281cae24120827b11d5ea8a7ad3e96b" x="550.185341" y="36.720000"/>
</g></g>
<g id="text21">
<defs>
<path id="c_9c6d5cbc59c6231647eb409cc6b37bb3" d="M25.390625 -72.906250l8.296875 0.000000l-25.390625 82.187500l-8.296875 0.000000z"/>
</defs>
<g style="fill: #000000; opacity: 1.000000" transform="translate(541.318153,343.386250)scale(0.120000)">
<use xlink:href="#c_73898205c3b95b421cc0f9bc5a9ca268"/>
<use xlink:href="#c_9c6d5cbc59c6231647eb409cc6b37bb3" x="58.886719"/>
<use xlink:href="#c_ed3f3ed3ebfbd18bcb9c012009a68ad1" x="92.578125"/>
</g>
</g>
</g>
<g id="xtick10">
<g id="line2d53">
<path style="fill: none; stroke: #000000; stroke-width: 0.500000; stroke-linejoin: round; stroke-linecap: butt; stroke-dasharray: 1.000000,3.000000; stroke-dashoffset: 0.000000; opacity: 1.000000" clip-path="url(#p8823c3340038ae5e3ee71b31b56a0d17)" d="M683.712614 330.480000L683.712614 36.720000"/>
</g>
<g id="line2d54">
<g ><use style="fill: none; stroke: #000000; stroke-width: 0.500000; stroke-linejoin: round; stroke-linecap: butt;  opacity: 1.000000" xlink:href="#m30e32995789d870ad79a2e54c91cf9c6" x="683.712614" y="330.480000"/>
</g></g>
<g id="line2d55">
<g ><use style="fill: none; stroke: #000000; stroke-width: 0.500000; stroke-linejoin: round; stroke-linecap: butt;  opacity: 1.000000" xlink:href="#m9281cae24120827b11d5ea8a7ad3e96b" x="683.712614" y="36.720000"/>
</g></g>
<g id="text22">
<defs>
<path id="c_3dcfa38a02242cb63ec6726c6e70be7a" d="M40.578125 -39.312500q7.078125 1.515625 11.046875 6.312500q3.984375 4.781250 3.984375 11.812500q0.000000 10.781250 -7.421875 16.703125q-7.421875 5.906250 -21.093750 5.906250q-4.578125 0.000000 -9.437500 -0.906250q-4.859375 -0.906250 -10.031250 -2.718750l0.000000 -9.515625q4.093750 2.390625 8.968750 3.609375q4.890625 1.218750 10.218750 1.218750q9.265625 0.000000 14.125000 -3.656250q4.859375 -3.656250 4.859375 -10.640625q0.000000 -6.453125 -4.515625 -10.078125q-4.515625 -3.640625 -12.562500 -3.640625l-8.500000 0.000000l0.000000 -8.109375l8.890625 0.000000q7.265625 0.000000 11.125000 -2.906250q3.859375 -2.906250 3.859375 -8.375000q0.000000 -5.609375 -3.984375 -8.609375q-3.968750 -3.015625 -11.390625 -3.015625q-4.062500 0.000000 -8.703125 0.890625q-4.640625 0.875000 -10.203125 2.718750l0.000000 -8.781250q5.625000 -1.562500 10.531250 -2.343750q4.906250 -0.781250 9.250000 -0.781250q11.234375 0.000000 17.765625 5.109375q6.546875 5.093750 6.546875 13.781250q0.000000 6.062500 -3.468750 10.234375q-3.468750 4.171875 -9.859375 5.781250"/>
</defs>
<g style="fill: #000000; opacity: 1.000000" transform="translate(671.579801,343.386250)scale(0.120000)">
<use xlink:href="#c_3dcfa38a02242cb63ec6726c6e70be7a"/>
<use xlink:href="#c_73898205c3b95b421cc0f9bc5a9ca268" x="63.623047"/>
<use xlink:href="#c_9c6d5cbc59c6231647eb409cc6b37bb3" x="122.509766"/>
<use xlink:href="#c_ed3f3ed3ebfbd18bcb9c012009a68ad1" x="156.201172"/>
</g>
</g>
</g>
<g id="text23">
<g id="mathtext4">
<g style="fill: #000000" transform="translate(613.448977,356.495625)">
<use xlink:href="#c_277960698c3e9ebfcde4d2161536ce57" transform="translate(0.000000,-1.703125)scale(0.120000)"/>
</g>
</g>
</g>
</g>
<g id="matplotlib.axis4">
<g id="ytick6">
<g id="line2d56">
<path style="fill: none; stroke: #000000; stroke-width: 0.500000; stroke-linejoin: round; stroke-linecap: butt; stroke-dasharray: 1.000000,3.000000; stroke-dashoffset: 0.000000; opacity: 1.000000" clip-path="url(#p8823c3340038ae5e3ee71b31b56a0d17)" d="M470.068977 317.127273L763.828977 317.127273"/>
</g>
<g id="line2d57">
<g ><use style="fill: none; stroke: #000000; stroke-width: 0.500000; stroke-linejoin: round; stroke-linecap: butt;  opacity: 1.000000" xlink:href="#m3400efa6b1638b3fea9e19e898273957" x="470.068977" y="317.127273"/>
</g></g>
<g id="line2d58">
<g ><use style="fill: none; stroke: #000000; stroke-width: 0.500000; stroke-linejoin: round; stroke-linecap: butt;  opacity: 1.000000" xlink:href="#m20b58b2501143cb5e0a5e8f1ef6f1643" x="763.828977" y="317.127273"/>
</g></g>
<g id="text24">
<g style="fill: #000000; opacity: 1.000000" transform="translate(438.975227,321.494460)scale(0.120000)">
<use xlink:href="#c_6a8d56c819c37117ab4cf023bec22a5a"/>
<use xlink:href="#c_42baa63129a918535c52adb20d687ea7" x="83.789063"/>
<use xlink:href="#c_ed3e21196fb739f392806f09ca0594ef" x="147.412109"/>
<use xlink:href="#c_7a2040fe3b94fcd41d0a72c84e93b115" x="179.199219"/>
</g>
</g>
</g>
<g id="ytick7">
<g id="line2d59">
<path style="fill: none; stroke: #000000; stroke-width: 0.500000; stroke-linejoin: round; stroke-linecap: butt; stroke-dasharray: 1.000000,3.000000; stroke-dashoffset: 0.000000; opacity: 1.000000" clip-path="url(#p8823c3340038ae5e3ee71b31b56a0d17)" d="M470.068977 250.363636L763.828977 250.363636"/>
</g>
<g id="line2d60">
<g ><use style="fill: none; stroke: #000000; stroke-width: 0.500000; stroke-linejoin: round; stroke-linecap: butt;  opacity: 1.000000" xlink:href="#m3400efa6b1638b3fea9e19e898273957" x="470.068977" y="250.363636"/>
</g></g>
<g id="line2d61">
<g ><use style="fill: none; stroke: #000000; stroke-width: 0.500000; stroke-linejoin: round; stroke-linecap: butt;  opacity: 1.000000" xlink:href="#m20b58b2501143cb5e0a5e8f1ef6f1643" x="763.828977" y="250.363636"/>
</g></g>
<g id="text25">
<g style="fill: #000000; opacity: 1.000000" transform="translate(439.225227,254.730824)scale(0.120000)">
<use xlink:href="#c_6a8d56c819c37117ab4cf023bec22a5a"/>
<use xlink:href="#c_7a2040fe3b94fcd41d0a72c84e93b115" x="83.789063"/>
<use xlink:href="#c_ed3e21196fb739f392806f09ca0594ef" x="147.412109"/>
<use xlink:href="#c_1260a2df50f305f3db244e29828f968e" x="179.199219"/>
</g>
</g>
</g>
<g id="ytick8">
<g id="line2d62">
<path style="fill: none; stroke: #000000; stroke-width: 0.500000; stroke-linejoin: round; stroke-linecap: butt; stroke-dasharray: 1.000000,3.000000; stroke-dashoffset: 0.000000; opacity: 1.000000" clip-path="url(#p8823c3340038ae5e3ee71b31b56a0d17)" d="M470.068977 183.600000L763.828977 183.600000"/>
</g>
<g id="line2d63">
<g ><use style="fill: none; stroke: #000000; stroke-width: 0.500000; stroke-linejoin: round; stroke-linecap: butt;  opacity: 1.000000" xlink:href="#m3400efa6b1638b3fea9e19e898273957" x="470.068977" y="183.600000"/>
</g></g>
<g id="line2d64">
<g ><use style="fill: none; stroke: #000000; stroke-width: 0.500000; stroke-linejoin: round; stroke-linecap: butt;  opacity: 1.000000" xlink:href="#m20b58b2501143cb5e0a5e8f1ef6f1643" x="763.828977" y="183.600000"/>
</g></g>
<g id="text26">
<g style="fill: #000000; opacity: 1.000000" transform="translate(448.568977,187.967187)scale(0.120000)">
<use xlink:href="#c_7a2040fe3b94fcd41d0a72c84e93b115"/>
<use xlink:href="#c_ed3e21196fb739f392806f09ca0594ef" x="63.623047"/>
<use xlink:href="#c_7a2040fe3b94fcd41d0a72c84e93b115" x="95.410156"/>
</g>
</g>
</g>
<g id="ytick9">
<g id="line2d65">
<path style="fill: none; stroke: #000000; stroke-width: 0.500000; stroke-linejoin: round; stroke-linecap: butt; stroke-dasharray: 1.000000,3.000000; stroke-dashoffset: 0.000000; opacity: 1.000000" clip-path="url(#p8823c3340038ae5e3ee71b31b56a0d17)" d="M470.068977 116.836364L763.828977 116.836364"/>
</g>
<g id="line2d66">
<g ><use style="fill: none; stroke: #000000; stroke-width: 0.500000; stroke-linejoin: round; stroke-linecap: butt;  opacity: 1.000000" xlink:href="#m3400efa6b1638b3fea9e19e898273957" x="470.068977" y="116.836364"/>
</g></g>
<g id="line2d67">
<g ><use style="fill: none; stroke: #000000; stroke-width: 0.500000; stroke-linejoin: round; stroke-linecap: butt;  opacity: 1.000000" xlink:href="#m20b58b2501143cb5e0a5e8f1ef6f1643" x="763.828977" y="116.836364"/>
</g></g>
<g id="text27">
<g style="fill: #000000; opacity: 1.000000" transform="translate(448.818977,121.203551)scale(0.120000)">
<use xlink:href="#c_7a2040fe3b94fcd41d0a72c84e93b115"/>
<use xlink:href="#c_ed3e21196fb739f392806f09ca0594ef" x="63.623047"/>
<use xlink:href="#c_1260a2df50f305f3db244e29828f968e" x="95.410156"/>
</g>
</g>
</g>
<g id="ytick10">
<g id="line2d68">
<path style="fill: none; stroke: #000000; stroke-width: 0.500000; stroke-linejoin: round; stroke-linecap: butt; stroke-dasharray: 1.000000,3.000000; stroke-dashoffset: 0.000000; opacity: 1.000000" clip-path="url(#p8823c3340038ae5e3ee71b31b56a0d17)" d="M470.068977 50.072727L763.828977 50.072727"/>
</g>
<g id="line2d69">
<g ><use style="fill: none; stroke: #000000; stroke-width: 0.500000; stroke-linejoin: round; stroke-linecap: butt;  opacity: 1.000000" xlink:href="#m3400efa6b1638b3fea9e19e898273957" x="470.068977" y="50.072727"/>
</g></g>
<g id="line2d70">
<g ><use style="fill: none; stroke: #000000; stroke-width: 0.500000; stroke-linejoin: round; stroke-linecap: butt;  opacity: 1.000000" xlink:href="#m20b58b2501143cb5e0a5e8f1ef6f1643" x="763.828977" y="50.072727"/>
</g></g>
<g id="text28">
<g style="fill: #000000; opacity: 1.000000" transform="translate(449.084602,54.439915)scale(0.120000)">
<use xlink:href="#c_42baa63129a918535c52adb20d687ea7"/>
<use xlink:href="#c_ed3e21196fb739f392806f09ca0594ef" x="63.623047"/>
<use xlink:href="#c_7a2040fe3b94fcd41d0a72c84e93b115" x="95.410156"/>
</g>
</g>
</g>
<g id="text29">
<g id="mathtext5">
<g style="fill: #000000" transform="translate(433.975227,186.600000)rotate(-90.0)">
<use xlink:href="#c_b1ccbd40de9466de4ee940ca0731021f" transform="translate(0.000000,-3.703125)scale(0.120000)"/>
</g>
</g>
</g>
</g>
<g id="patch8">
<path style="fill: none; stroke: #000000; stroke-width: 1.000000; stroke-linejoin: round; stroke-linecap: square;  opacity: 1.000000"  d="M470.068977 36.720000L763.828977 36.720000"/>
</g>
<g id="patch9">
<path style="fill: none; stroke: #000000; stroke-width: 1.000000; stroke-linejoin: round; stroke-linecap: square;  opacity: 1.000000"  d="M763.828977 330.480000L763.828977 36.720000"/>
</g>
<g id="patch10">
<path style="fill: none; stroke: #000000; stroke-width: 1.000000; stroke-linejoin: round; stroke-linecap: square;  opacity: 1.000000"  d="M470.068977 330.480000L763.828977 330.480000"/>
</g>
<g id="patch11">
<path style="fill: none; stroke: #000000; stroke-width: 1.000000; stroke-linejoin: round; stroke-linecap: square;  opacity: 1.000000"  d="M470.068977 330.480000L470.068977 36.720000"/>
</g>
<g id="text30">
<g style="fill: #000000; opacity: 1.000000" transform="translate(513.100398,193.076562)scale(0.260000)">
<use xlink:href="#c_f7a27dd75e8271b80b605f33cd79f506"/>
</g>
</g>
<g id="text31">
<g style="fill: #000000; opacity: 1.000000" transform="translate(574.731222,193.076562)scale(0.260000)">
<use xlink:href="#c_f7a27dd75e8271b80b605f33cd79f506"/>
<use xlink:href="#c_f7a27dd75e8271b80b605f33cd79f506" x="39.501953"/>
</g>
</g>
<g id="text32">
<g style="fill: #000000; opacity: 1.000000" transform="translate(636.362045,193.076562)scale(0.260000)">
<use xlink:href="#c_f7a27dd75e8271b80b605f33cd79f506"/>
<use xlink:href="#c_f7a27dd75e8271b80b605f33cd79f506" x="39.501953"/>
<use xlink:href="#c_f7a27dd75e8271b80b605f33cd79f506" x="79.003906"/>
</g>
</g>
<g id="text33">
<g style="fill: #000000; opacity: 1.000000" transform="translate(703.102244,193.076562)scale(0.260000)">
<use xlink:href="#c_f7a27dd75e8271b80b605f33cd79f506"/>
<use xlink:href="#c_77359844e15ba4a53c2a7ed465a2e7f0" x="39.501953"/>
</g>
</g>
<g id="text34">
<defs>
<path id="c_9dee543e61e1891a201a1f71acd5eb15" d="M3.328125 0.296875l0.000000 -16.312500q0.000000 -0.781250 0.875000 -0.781250l1.218750 0.000000q0.578125 0.000000 0.781250 0.781250q2.781250 14.500000 13.468750 14.500000q4.750000 0.000000 7.937500 -2.140625q3.203125 -2.156250 3.203125 -6.640625q0.000000 -3.234375 -2.500000 -5.500000q-2.484375 -2.265625 -5.906250 -3.093750l-6.687500 -1.328125q-3.359375 -0.734375 -6.125000 -2.234375q-2.750000 -1.515625 -4.515625 -4.031250q-1.750000 -2.515625 -1.750000 -5.843750q0.000000 -4.390625 2.312500 -7.187500q2.312500 -2.812500 6.015625 -4.062500q3.718750 -1.250000 8.015625 -1.250000q5.140625 0.000000 8.937500 2.734375l2.890625 -2.484375q0.000000 -0.250000 0.484375 -0.250000l0.734375 0.000000q0.296875 0.000000 0.531250 0.281250q0.250000 0.265625 0.250000 0.546875l0.000000 13.093750q0.000000 0.921875 -0.781250 0.921875l-1.218750 0.000000q-0.890625 0.000000 -0.890625 -0.921875q0.000000 -5.234375 -2.906250 -8.406250q-2.890625 -3.171875 -8.125000 -3.171875q-4.484375 0.000000 -7.781250 1.671875q-3.296875 1.656250 -3.296875 5.703125q0.000000 2.781250 2.359375 4.562500q2.375000 1.781250 5.546875 2.562500l6.781250 1.281250q3.421875 0.781250 6.375000 2.640625q2.953125 1.843750 4.687500 4.687500q1.734375 2.828125 1.734375 6.390625q0.000000 3.609375 -1.250000 6.281250q-1.234375 2.656250 -3.468750 4.421875q-2.218750 1.750000 -5.250000 2.578125q-3.015625 0.828125 -6.343750 0.828125q-6.250000 0.000000 -10.687500 -4.203125l-3.656250 3.953125q0.000000 0.250000 -0.546875 0.250000l-0.578125 0.000000q-0.875000 0.000000 -0.875000 -0.828125"/>
<path id="c_47bb69df3dc90fb95dede367e92e714c" d="M3.078125 -0.000000l0.000000 -3.515625q3.421875 0.000000 5.609375 -0.531250q2.203125 -0.546875 2.203125 -2.640625l0.000000 -27.296875q0.000000 -3.859375 -1.500000 -4.734375q-1.484375 -0.875000 -5.875000 -0.875000l0.000000 -3.515625l14.406250 -1.078125l0.000000 37.500000q0.000000 2.093750 1.906250 2.640625q1.906250 0.531250 5.078125 0.531250l0.000000 3.515625zM7.328125 -61.375000q0.000000 -2.203125 1.656250 -3.859375q1.656250 -1.656250 3.812500 -1.656250q1.406250 0.000000 2.718750 0.734375q1.328125 0.718750 2.062500 2.046875q0.734375 1.312500 0.734375 2.734375q0.000000 2.140625 -1.671875 3.812500q-1.656250 1.656250 -3.843750 1.656250q-2.156250 0.000000 -3.812500 -1.656250q-1.656250 -1.671875 -1.656250 -3.812500"/>
<path id="c_f29dbb720c0206d930ab49b6b497324a" d="M2.984375 -0.000000l0.000000 -3.515625q3.406250 0.000000 5.609375 -0.531250q2.203125 -0.546875 2.203125 -2.640625l0.000000 -27.296875q0.000000 -2.687500 -0.812500 -3.875000q-0.796875 -1.203125 -2.312500 -1.468750q-1.515625 -0.265625 -4.687500 -0.265625l0.000000 -3.515625l14.500000 -1.078125l0.000000 9.765625q2.000000 -4.296875 5.921875 -7.031250q3.937500 -2.734375 8.578125 -2.734375q6.937500 0.000000 10.421875 3.328125q3.500000 3.312500 3.500000 10.140625l0.000000 24.031250q0.000000 2.093750 2.187500 2.640625q2.203125 0.531250 5.625000 0.531250l0.000000 3.515625l-22.906250 0.000000l0.000000 -3.515625q3.421875 0.000000 5.609375 -0.531250q2.203125 -0.546875 2.203125 -2.640625l0.000000 -23.734375q0.000000 -4.875000 -1.421875 -8.031250q-1.406250 -3.156250 -5.812500 -3.156250q-5.796875 0.000000 -9.546875 4.640625q-3.734375 4.640625 -3.734375 10.546875l0.000000 19.734375q0.000000 2.093750 2.203125 2.640625q2.203125 0.531250 5.562500 0.531250l0.000000 3.515625z"/>
</defs>
<g id="mathtext6">
<g style="fill: #000000" transform="translate(592.948977,34.720000)">
<use xlink:href="#c_b1ccbd40de9466de4ee940ca0731021f" transform="translate(0.000000,-3.375000)scale(0.144000)"/>
<use xlink:href="#c_7bbc93c01755cdeb977d08bdfb9ce616" transform="translate(9.581570,-3.375000)scale(0.144000)"/>
<use xlink:href="#c_9dee543e61e1891a201a1f71acd5eb15" transform="translate(21.670862,-3.375000)scale(0.144000)"/>
<use xlink:href="#c_47bb69df3dc90fb95dede367e92e714c" transform="translate(27.341379,-3.375000)scale(0.144000)"/>
<use xlink:href="#c_f29dbb720c0206d930ab49b6b497324a" transform="translate(31.325494,-3.375000)scale(0.144000)"/>
<use xlink:href="#c_277960698c3e9ebfcde4d2161536ce57" transform="translate(39.314813,-3.375000)scale(0.144000)"/>
</g>
</g>
</g>
</g>
</g>
</svg>
